<svg id="Layer_1" data-name="Layer 1" xmlns="http://www.w3.org/2000/svg" viewBox="0 0 48 48"><defs><style>.cls-1{fill:#fffefd;}.cls-2{fill:#f9f9f9;}.cls-3{fill:#6d9bd2;}.cls-4{fill:#0d4b93;}</style></defs><title>mec-5</title><circle class="cls-1" cx="23.61" cy="23.5" r="20.5"/><path class="cls-2" d="M48.69,24.45l-1.92-2.33L48,19.37a.88.88,0,0,0-.29-1.07l-2.46-1.75.5-3a.86.86,0,0,0-.55-1L42.4,11.56l-.29-3a.87.87,0,0,0-.78-.78l-3-.29-1-2.83a.87.87,0,0,0-1-.55l-3,.5L31.58,2.15a.87.87,0,0,0-1.07-.29L27.77,3.12,25.44,1.2a.85.85,0,0,0-1.1,0L22,3.12,19.26,1.86a.88.88,0,0,0-1.07.29L16.44,4.61l-3-.5a.85.85,0,0,0-1,.55L11.45,7.49l-3,.29a.87.87,0,0,0-.78.78l-.29,3L4.55,12.62a.86.86,0,0,0-.55,1l.49,3L2,18.3a.88.88,0,0,0-.29,1.07L3,22.12,1.09,24.45a.85.85,0,0,0,0,1.1L3,27.88,1.75,30.63A.88.88,0,0,0,2,31.7l2.45,1.75-.49,3a.86.86,0,0,0,.55,1l2.83,1.06.29,3a.87.87,0,0,0,.78.78l3,.29,1.06,2.83a.85.85,0,0,0,1,.55l3-.5,1.75,2.46a.88.88,0,0,0,1.07.29L22,46.88l2.33,1.92a.86.86,0,0,0,1.1,0l2.33-1.92,2.74,1.26a.87.87,0,0,0,1.07-.29l1.76-2.46,3,.5a.87.87,0,0,0,1-.55l1-2.83,3-.29a.87.87,0,0,0,.78-.78l.29-3,2.83-1.06a.86.86,0,0,0,.55-1l-.5-3,2.46-1.75A.88.88,0,0,0,48,30.63l-1.26-2.75,1.92-2.33A.85.85,0,0,0,48.69,24.45ZM25.54,44.8A19.81,19.81,0,1,1,44.69,25.65,19.82,19.82,0,0,1,25.54,44.8Z" transform="translate(-0.89 -1)"/><polygon class="cls-3" points="9.63 22.79 10.15 24.39 11.83 24.39 10.47 25.37 10.99 26.97 9.63 25.98 8.28 26.97 8.79 25.37 7.44 24.39 9.11 24.39 9.63 22.79"/><polygon class="cls-3" points="38.16 22.79 38.68 24.39 40.35 24.39 39 25.37 39.52 26.97 38.16 25.98 36.8 26.97 37.32 25.37 35.97 24.39 37.64 24.39 38.16 22.79"/><path class="cls-4" d="M24.89,44a19,19,0,1,1,13.45-5.57A18.9,18.9,0,0,1,24.89,44Zm0-37.6A18.58,18.58,0,0,0,11.75,38.14,18.58,18.58,0,1,0,24.89,6.42Z" transform="translate(-0.89 -1)"/><path class="cls-4" d="M10.08,19.52a.09.09,0,0,1-.05-.11l.15-.39a.08.08,0,0,1,.11,0l2.89,1.14a.08.08,0,0,1,.05.11l-.15.39a.1.1,0,0,1-.11.05Z" transform="translate(-0.89 -1)"/><path class="cls-4" d="M11.06,17.2a.08.08,0,0,1,0-.12L11.1,17l2.76-.35h0l-1.59-1.1a.09.09,0,0,1,0-.12l.24-.34a.09.09,0,0,1,.12,0l2.6,1.79a.11.11,0,0,1,0,.12l-.06.09-2.84.31h0L14,18.52a.08.08,0,0,1,0,.12l-.23.33a.08.08,0,0,1-.12,0Z" transform="translate(-0.89 -1)"/><path class="cls-4" d="M15.63,15.81l-.06-.33a.09.09,0,0,1,.09-.12,1.34,1.34,0,0,0,.7-.21.38.38,0,0,0,.08-.54c-.15-.18-.41-.18-.8-.06a1.12,1.12,0,0,1-1.29-.24A.9.9,0,0,1,14.53,13a1.54,1.54,0,0,1,.89-.34c.05,0,.11,0,.12.1l0,.32a.12.12,0,0,1-.08.14,1.63,1.63,0,0,0-.64.2.36.36,0,0,0-.09.51c.14.17.37.17.74.06a1.21,1.21,0,0,1,1.4.21,1,1,0,0,1-.18,1.37,1.41,1.41,0,0,1-1,.35C15.68,15.9,15.65,15.89,15.63,15.81Z" transform="translate(-0.89 -1)"/><path class="cls-4" d="M17.4,11.74l-.6.31a.08.08,0,0,1-.12,0l-.18-.34a.08.08,0,0,1,0-.11l1.72-.91a.08.08,0,0,1,.12,0l.18.34a.09.09,0,0,1,0,.12l-.6.31,1.23,2.33a.1.1,0,0,1,0,.12l-.37.19a.07.07,0,0,1-.11,0Z" transform="translate(-0.89 -1)"/><path class="cls-4" d="M19.76,10.19a.08.08,0,0,1,0-.11l.4-.13a.11.11,0,0,1,.11.06l.92,3a.09.09,0,0,1,0,.11l-.4.12a.09.09,0,0,1-.11-.06Z" transform="translate(-0.89 -1)"/><path class="cls-4" d="M22.56,10l-.68.09a.1.1,0,0,1-.1-.08l0-.38a.08.08,0,0,1,.07-.1l1.94-.24a.09.09,0,0,1,.09.08l.05.38a.09.09,0,0,1-.08.1l-.67.08.32,2.62a.09.09,0,0,1-.08.09l-.41,0a.08.08,0,0,1-.09-.07Z" transform="translate(-0.89 -1)"/><path class="cls-4" d="M25.43,9.36a.09.09,0,0,1,.09-.08l.42.05a.11.11,0,0,1,.08.1l-.24,1.91a.65.65,0,1,0,1.28.16l.24-1.9a.09.09,0,0,1,.1-.08l.42.05a.09.09,0,0,1,.07.1l-.24,1.94a1.25,1.25,0,1,1-2.47-.31Z" transform="translate(-0.89 -1)"/><path class="cls-4" d="M29.67,10.2a.11.11,0,0,1,.11-.06l.39.14a.1.1,0,0,1,0,.12l-1,2.92a.1.1,0,0,1-.11.06l-.39-.14a.1.1,0,0,1-.05-.12Z" transform="translate(-0.89 -1)"/><path class="cls-4" d="M31,12.34a1.67,1.67,0,0,1,2.27-.59,1.46,1.46,0,0,1,.68.94.09.09,0,0,1-.06.12l-.39.11a.07.07,0,0,1-.09-.06,1.09,1.09,0,1,0-.87,1.38.11.11,0,0,1,.1.06l.08.4a.1.1,0,0,1-.07.11,1.54,1.54,0,0,1-1.16-.18l-.1.17a.46.46,0,0,1,.11.64.48.48,0,0,1-.66.16.43.43,0,0,1-.2-.31.09.09,0,0,1,.08-.11l.12,0a.06.06,0,0,1,.07.05.16.16,0,0,0,.09.12.16.16,0,0,0,.22-.06c.06-.1,0-.23-.15-.37a.07.07,0,0,1,0-.11l.21-.34A1.66,1.66,0,0,1,31,12.34Z" transform="translate(-0.89 -1)"/><path class="cls-4" d="M32.9,15.41l3.26-1.12a.08.08,0,0,1,.09,0l0,0a.08.08,0,0,1,0,.09l-1.39,3.15a.08.08,0,0,1-.14,0l-.26-.29a.11.11,0,0,1,0-.15l.22-.51-.9-1-.52.18a.13.13,0,0,1-.16,0l-.26-.28A.08.08,0,0,1,32.9,15.41Zm2.05.74.45-1h0l-1,.38Zm1.21-2.64a.08.08,0,0,1,.06-.09c.09,0,.42-.13.6.07s0,.4.14.53.32-.08.33.08l0,.15c0,.06,0,.09-.1.11s-.39.11-.56-.08,0-.43-.14-.54-.31.09-.34-.07Z" transform="translate(-0.89 -1)"/><path class="cls-4" d="M38.83,18A1.65,1.65,0,0,1,38,20.23,1.6,1.6,0,1,1,38.83,18Zm-2.49,1.23a1.08,1.08,0,0,0,1.94-1,1.08,1.08,0,0,0-1.94,1Z" transform="translate(-0.89 -1)"/><path class="cls-4" d="M20.42,36.77a.09.09,0,0,1,.1-.05l.07,0a.09.09,0,0,1,.06.06l.4,2.39h0l1.5-1.91a.07.07,0,0,1,.08,0l.07,0a.07.07,0,0,1,.06.08l-.27,3.19c0,.07-.05.1-.1.08l-.4-.1a.09.09,0,0,1-.06-.09l.18-1.79h0l-1.21,1.59a.08.08,0,0,1-.09,0l-.08,0s0,0-.06-.07l-.31-2h0l-.69,1.66a.09.09,0,0,1-.1.05l-.39-.1a.09.09,0,0,1-.05-.13Z" transform="translate(-0.89 -1)"/><path class="cls-4" d="M24.16,37.54a.09.09,0,0,1,.08-.09l1.82-.05c.05,0,.08,0,.09.09v.38a.09.09,0,0,1-.09.09l-1.32,0,0,.77,1.11,0a.09.09,0,0,1,.08.09l0,.39a.09.09,0,0,1-.09.09l-1.1,0,0,.82,1.32,0a.09.09,0,0,1,.09.09v.38a.08.08,0,0,1-.08.09l-1.81.06a.09.09,0,0,1-.09-.09Z" transform="translate(-0.89 -1)"/><path class="cls-4" d="M28.35,36.85A1.43,1.43,0,0,1,29.5,37a.09.09,0,0,1,0,.13l-.18.36a.07.07,0,0,1-.1,0,1,1,0,0,0-.74-.08,1.09,1.09,0,0,0,.6,2.09,1,1,0,0,0,.58-.44.09.09,0,0,1,.11,0l.35.21a.09.09,0,0,1,0,.12,1.52,1.52,0,0,1-.92.74,1.69,1.69,0,0,1-.92-3.25Z" transform="translate(-0.89 -1)"/><polygon class="cls-4" points="36.5 33.9 31.92 33.9 31.92 32.91 32.34 32.92 32.34 33.41 35.45 33.41 34.23 32.16 35.31 30.53 33.57 30.53 33.58 30.14 36.07 30.14 34.8 32.08 36.5 33.9"/><polygon class="cls-4" points="11.28 33.9 15.86 33.9 15.86 32.91 15.44 32.92 15.44 33.41 12.33 33.41 13.55 32.16 12.47 30.53 14.21 30.53 14.2 30.14 11.71 30.14 12.97 32.08 11.28 33.9"/><path class="cls-4" d="M15.42,33.57h18.7V29.84H15.42Zm19.1.41H15V29.43H34.52Z" transform="translate(-0.89 -1)"/><path class="cls-4" d="M19.88,26.46h4.23A2.68,2.68,0,0,1,27,29.26a3.58,3.58,0,0,1-.05.58h4a5.49,5.49,0,0,0,0-.58c0-3.79-2.48-6.59-6.28-6.59h-2v-3.1h5.67a.54.54,0,0,0,.52-.55V16.48a.54.54,0,0,0-.52-.55H19.55a.54.54,0,0,0-.52.55v9A1,1,0,0,0,19.88,26.46Z" transform="translate(-0.89 -1)"/><path class="cls-4" d="M18.79,33.57a7.16,7.16,0,0,0,5.38,2.32,6.83,6.83,0,0,0,5.18-2.32Z" transform="translate(-0.89 -1)"/><path class="cls-4" d="M17.33,30.86a.94.94,0,0,1,.7.28.06.06,0,0,1,0,.08l-.18.2s0,0-.07,0a.62.62,0,0,0-.44-.18.67.67,0,0,0-.65.7.68.68,0,0,0,.65.71.65.65,0,0,0,.44-.18.06.06,0,0,1,.07,0l.18.2a.05.05,0,0,1,0,.08,1,1,0,0,1-.7.3,1.1,1.1,0,0,1,0-2.19Z" transform="translate(-0.89 -1)"/><path class="cls-4" d="M19.66,30.86a1.1,1.1,0,1,1-1,1.09A1.06,1.06,0,0,1,19.66,30.86Zm0,1.79A.7.7,0,1,0,19,32,.68.68,0,0,0,19.66,32.65Z" transform="translate(-0.89 -1)"/><path class="cls-4" d="M21.45,30.91a0,0,0,0,1,.05-.05h.08l1.2,1.34h0V30.94s0-.05.06-.05h.26a.06.06,0,0,1,.06.05V33a.06.06,0,0,1-.06.06H23l-1.21-1.4h0V33a0,0,0,0,1-.05,0H21.5a0,0,0,0,1-.05,0Z" transform="translate(-0.89 -1)"/><path class="cls-4" d="M25,30.86a.94.94,0,0,1,.7.28.06.06,0,0,1,0,.08l-.18.2a0,0,0,0,1-.07,0,.63.63,0,0,0-.45-.18.67.67,0,0,0-.64.7.68.68,0,0,0,.65.71.65.65,0,0,0,.44-.18.06.06,0,0,1,.07,0l.18.2a.06.06,0,0,1,0,.08,1,1,0,0,1-.7.3,1.1,1.1,0,0,1,0-2.19Z" transform="translate(-0.89 -1)"/><path class="cls-4" d="M26.39,30.94a.06.06,0,0,1,.06-.05h1.18a0,0,0,0,1,.05.05v.25a.06.06,0,0,1-.05.06h-.86v.5h.71a.06.06,0,0,1,.06.06v.25a.06.06,0,0,1-.06.06h-.71v.53h.86a.06.06,0,0,1,.05.06V33a0,0,0,0,1-.05,0H26.45a.06.06,0,0,1-.06,0Z" transform="translate(-0.89 -1)"/><path class="cls-4" d="M28.46,30.94a.06.06,0,0,1,.06-.05h.27a.05.05,0,0,1,.05.05v2a.05.05,0,0,1-.05,0h-.27a.06.06,0,0,1-.06,0Z" transform="translate(-0.89 -1)"/><path class="cls-4" d="M30,31.25h-.45a.06.06,0,0,1,0-.06v-.25a0,0,0,0,1,0-.05h1.27a0,0,0,0,1,.05.05v.25a.06.06,0,0,1-.05.06h-.45V33a0,0,0,0,1-.05,0h-.27a0,0,0,0,1,0,0Z" transform="translate(-0.89 -1)"/><path class="cls-4" d="M32.42,30.86a1.1,1.1,0,1,1-1,1.09A1.06,1.06,0,0,1,32.42,30.86Zm0,1.79a.7.7,0,1,0-.66-.7A.68.68,0,0,0,32.42,32.65Z" transform="translate(-0.89 -1)"/></svg>