<svg xmlns="http://www.w3.org/2000/svg" width="153.816" height="56.611" viewBox="0 0 153.816 56.611"><g transform="translate(1.383 1)"><line y2="43.715" transform="translate(126.194)" stroke-width="2" stroke="#cbcbcb" stroke-linecap="round" stroke-linejoin="round" fill="none"/><path d="M5528.059,995.221l25.239,43.715h-50.478Z" transform="translate(-5401.864 -995.221)" fill="none" stroke="#cbcbcb" stroke-linecap="round" stroke-linejoin="round" stroke-width="2"/><path d="M5441.456,995.221l25.239,43.715h-50.478Z" transform="translate(-5365.74 -995.221)" fill="none" stroke="#cbcbcb" stroke-linecap="round" stroke-linejoin="round" stroke-width="2"/><path d="M5354.854,995.221l25.239,43.715h-50.478Z" transform="translate(-5329.615 -995.221)" fill="none" stroke="#cbcbcb" stroke-linecap="round" stroke-linejoin="round" stroke-width="2"/><line y1="54.331" transform="translate(25.239)" stroke-width="2" stroke="#cbcbcb" stroke-linecap="round" stroke-linejoin="round" fill="none"/><line y1="54.331" transform="translate(75.717)" stroke-width="2" stroke="#cbcbcb" stroke-linecap="round" stroke-linejoin="round" fill="none"/><path d="M5466.695,977.007l-6.084,10.743h-37.443l-6.951-10.743" transform="translate(-5365.74 -933.419)" fill="none" stroke="#cbcbcb" stroke-linecap="round" stroke-linejoin="round" stroke-width="2"/><path d="M5465.585,1030.171l-19.155-53.164-18.288,53.164" transform="translate(-5370.714 -975.84)" fill="none" stroke="#cbcbcb" stroke-linecap="round" stroke-linejoin="round" stroke-width="2"/><path d="M5380.092,977.007l-6.084,10.743h-37.442l-6.951-10.743" transform="translate(-5329.615 -933.419)" fill="none" stroke="#cbcbcb" stroke-linecap="round" stroke-linejoin="round" stroke-width="2"/><path d="M5378.982,1030.171l-19.155-53.164-18.288,53.164" transform="translate(-5334.589 -975.84)" fill="none" stroke="#cbcbcb" stroke-linecap="round" stroke-linejoin="round" stroke-width="2"/></g></svg>