<svg xmlns="http://www.w3.org/2000/svg" width="184.894" height="159.669" viewBox="0 0 184.894 159.669"><g transform="translate(1.383 1)"><path d="M5793.1,1122.777l30.344-52.556h-60.687Z" transform="translate(-5641.291 -965.108)" fill="none" stroke="#fff" stroke-linecap="round" stroke-linejoin="round" stroke-width="2"/><path d="M5706.493,1122.777l30.343-52.556h-60.687Z" transform="translate(-5615.375 -965.108)" fill="none" stroke="#fff" stroke-linecap="round" stroke-linejoin="round" stroke-width="2"/><path d="M5619.891,1122.777l30.343-52.556h-60.687Z" transform="translate(-5589.459 -965.108)" fill="none" stroke="#fff" stroke-linecap="round" stroke-linejoin="round" stroke-width="2"/><path d="M5793.1,1047.777l30.344-52.556h-60.687Z" transform="translate(-5641.291 -942.664)" fill="none" stroke="#fff" stroke-linecap="round" stroke-linejoin="round" stroke-width="2"/><path d="M5706.493,1047.777l30.343-52.556h-60.687Z" transform="translate(-5615.375 -942.664)" fill="none" stroke="#fff" stroke-linecap="round" stroke-linejoin="round" stroke-width="2"/><path d="M5619.891,1047.777l30.343-52.556h-60.687Z" transform="translate(-5589.459 -942.664)" fill="none" stroke="#fff" stroke-linecap="round" stroke-linejoin="round" stroke-width="2"/><path d="M5793.1,972.777l30.344-52.556h-60.687Z" transform="translate(-5641.291 -920.221)" fill="none" stroke="#fff" stroke-linecap="round" stroke-linejoin="round" stroke-width="2"/><line y1="105.113" transform="translate(151.804)" stroke-width="2" stroke="#fff" stroke-linecap="round" stroke-linejoin="round" fill="none"/><line y2="52.556" transform="translate(91.117 105.113)" stroke-width="2" stroke="#fff" stroke-linecap="round" stroke-linejoin="round" fill="none"/><line y2="65.319" transform="translate(30.431 39.793)" stroke-width="2" stroke="#fff" stroke-linecap="round" stroke-linejoin="round" fill="none"/><line y2="65.319" transform="translate(91.117 39.793)" stroke-width="2" stroke="#fff" stroke-linecap="round" stroke-linejoin="round" fill="none"/><line y1="52.441" transform="translate(151.804 105.228)" stroke-width="2" stroke="#fff" stroke-linecap="round" stroke-linejoin="round" fill="none"/><path d="M5823.439,1064.87l-7.315-12.916h-45.016l-8.356,12.916" transform="translate(-5641.291 -959.642)" fill="none" stroke="#fff" stroke-linecap="round" stroke-linejoin="round" stroke-width="2"/><path d="M5819.692,1051.954l-23.027,63.916-21.987-63.916" transform="translate(-5644.86 -959.642)" fill="none" stroke="#fff" stroke-linecap="round" stroke-linejoin="round" stroke-width="2"/><line y1="52.441" transform="translate(30.952 105.228)" stroke-width="2" stroke="#fff" stroke-linecap="round" stroke-linejoin="round" fill="none"/><path d="M5650.109,1064.87l-7.315-12.916h-45.015l-8.356,12.916" transform="translate(-5589.422 -959.642)" fill="none" stroke="#fff" stroke-linecap="round" stroke-linejoin="round" stroke-width="2"/><path d="M5646.363,1051.954l-23.028,63.916-21.987-63.916" transform="translate(-5592.992 -959.642)" fill="none" stroke="#fff" stroke-linecap="round" stroke-linejoin="round" stroke-width="2"/><path d="M5736.836,989.923l-7.314-12.916h-45.016l-8.357,12.916" transform="translate(-5615.375 -937.214)" fill="none" stroke="#fff" stroke-linecap="round" stroke-linejoin="round" stroke-width="2"/><path d="M5733.091,977.007l-23.029,63.916-21.986-63.916" transform="translate(-5618.945 -937.214)" fill="none" stroke="#fff" stroke-linecap="round" stroke-linejoin="round" stroke-width="2"/><path d="M5650.233,989.923l-7.315-12.916H5597.9l-8.356,12.916" transform="translate(-5589.459 -937.214)" fill="none" stroke="#fff" stroke-linecap="round" stroke-linejoin="round" stroke-width="2"/><path d="M5646.487,977.007l-23.028,63.916-21.987-63.916" transform="translate(-5593.028 -937.214)" fill="none" stroke="#fff" stroke-linecap="round" stroke-linejoin="round" stroke-width="2"/></g></svg>