<svg xmlns="http://www.w3.org/2000/svg" width="335.567" height="320.889" viewBox="0 0 335.567 320.889">
  <g id="Componente_7_1" data-name="Componente 7 – 1" transform="translate(0.752 0.751)">
    <g id="Grupo_36" data-name="Grupo 36" transform="translate(201.798 218.578)">
      <g id="Grupo_21" data-name="Grupo 21" transform="translate(3 47.123)">
        <path id="Caminho_67" data-name="Caminho 67" stroke="#fff" d="M7948.736,1135.7s3.187,7.489,18.437,7.516" fill="none" transform="translate(-7947.479 -1126.619)" stroke-linecap="round" stroke-linejoin="round" stroke-width="2" stroke-dasharray="1 5"/>
        <path id="Caminho_68" data-name="Caminho 68" stroke="#fff" d="M7966.571,1179.218v2.2s.485,6.179,11.242,6.179" fill="none" transform="translate(-7957.977 -1152.234)" stroke-linecap="round" stroke-linejoin="round" stroke-width="2" stroke-dasharray="1 5"/>
        <ellipse id="Elipse_2" data-name="Elipse 2" cx="7.356" cy="3.178" rx="7.356" ry="3.178" transform="translate(12.338 5.12)" stroke-dasharray="1 5" stroke="#fff" stroke-linecap="round" stroke-linejoin="round" stroke-width="2" fill="none"/>
        <path id="Caminho_69" data-name="Caminho 69" stroke="#fff" d="M7965.231,1142.045c17.564,0,18.565-8.954,18.565-8.954l1.253-11.573a3.11,3.11,0,0,0-.5-2.056c-1.371-2.068-5.773-6.037-19.322-5.824,0,0-15.19-.008-19.036,5.824a3.117,3.117,0,0,0-.5,2.056l1.252,11.573s1,8.954,18.566,8.954" fill="none" transform="translate(-7945.68 -1113.631)" stroke-linecap="round" stroke-linejoin="round" stroke-width="2" stroke-dasharray="1 5"/>
        <path id="Caminho_70" data-name="Caminho 70" stroke="#fff" d="M8011.985,1135.7s-3.187,7.489-18.437,7.516" fill="none" transform="translate(-7973.855 -1126.619)" stroke-linecap="round" stroke-linejoin="round" stroke-width="2" stroke-dasharray="1 5"/>
        <path id="Caminho_71" data-name="Caminho 71" stroke="#fff" d="M8004.443,1179.218v2.2s-.485,6.179-11.242,6.179" fill="none" transform="translate(-7973.65 -1152.234)" stroke-linecap="round" stroke-linejoin="round" stroke-width="2" stroke-dasharray="1 5"/>
        <g id="Grupo_20" data-name="Grupo 20" transform="translate(1.994 16.548)">
          <path id="Caminho_72" data-name="Caminho 72" stroke="#fff" d="M7950.527,1153.852s6.131,5.469,17.843,5.469" fill="none" transform="translate(-7950.527 -1153.852)" stroke-linecap="round" stroke-linejoin="round" stroke-width="2" stroke-dasharray="1 5"/>
          <path id="Caminho_73" data-name="Caminho 73" stroke="#fff" d="M8011.739,1153.852s-6.13,5.469-17.843,5.469" fill="none" transform="translate(-7976.053 -1153.852)" stroke-linecap="round" stroke-linejoin="round" stroke-width="2" stroke-dasharray="1 5"/>
        </g>
        <path id="Caminho_74" data-name="Caminho 74" stroke="#fff" d="M7974.633,1131.439c14.446-.236,13.2-5.639,13.2-5.639s-.551-3.748-13.2-3.723c-12.564.024-13.2,3.723-13.2,3.723s-1.251,5.4,13.2,5.639" fill="none" transform="translate(-7954.938 -1118.602)" stroke-linecap="round" stroke-linejoin="round" stroke-width="2" stroke-dasharray="1 5"/>
      </g>
      <g id="Grupo_23" data-name="Grupo 23" transform="translate(47.813 22.246)">
        <path id="Caminho_75" data-name="Caminho 75" stroke="#fff" d="M8052.8,1172.454s3.186,7.489,18.437,7.516" fill="none" transform="translate(-8051.539 -1163.375)" stroke-linecap="round" stroke-linejoin="round" stroke-width="2" stroke-dasharray="1 5"/>
        <path id="Caminho_76" data-name="Caminho 76" stroke="#fff" d="M8070.632,1215.975v2.2s.485,6.179,11.242,6.179" fill="none" transform="translate(-8062.038 -1188.991)" stroke-linecap="round" stroke-linejoin="round" stroke-width="2" stroke-dasharray="1 5"/>
        <ellipse id="Elipse_3" data-name="Elipse 3" cx="7.356" cy="3.178" rx="7.356" ry="3.178" transform="translate(12.338 5.12)" stroke-dasharray="1 5" stroke="#fff" stroke-linecap="round" stroke-linejoin="round" stroke-width="2" fill="none"/>
        <path id="Caminho_77" data-name="Caminho 77" stroke="#fff" d="M8069.293,1178.8c17.564,0,18.566-8.954,18.566-8.954l1.252-11.573a3.113,3.113,0,0,0-.5-2.056c-1.372-2.068-5.773-6.037-19.323-5.824,0,0-15.19-.008-19.037,5.824a3.126,3.126,0,0,0-.5,2.056l1.253,11.573s1,8.954,18.566,8.954" fill="none" transform="translate(-8049.741 -1150.388)" stroke-linecap="round" stroke-linejoin="round" stroke-width="2" stroke-dasharray="1 5"/>
        <path id="Caminho_78" data-name="Caminho 78" stroke="#fff" d="M8116.047,1172.454s-3.187,7.489-18.437,7.516" fill="none" transform="translate(-8077.916 -1163.375)" stroke-linecap="round" stroke-linejoin="round" stroke-width="2" stroke-dasharray="1 5"/>
        <path id="Caminho_79" data-name="Caminho 79" stroke="#fff" d="M8108.5,1215.975v2.2s-.486,6.179-11.243,6.179" fill="none" transform="translate(-8077.711 -1188.991)" stroke-linecap="round" stroke-linejoin="round" stroke-width="2" stroke-dasharray="1 5"/>
        <g id="Grupo_22" data-name="Grupo 22" transform="translate(1.994 16.548)">
          <path id="Caminho_80" data-name="Caminho 80" stroke="#fff" d="M8054.588,1190.609s6.132,5.469,17.844,5.469" fill="none" transform="translate(-8054.588 -1190.609)" stroke-linecap="round" stroke-linejoin="round" stroke-width="2" stroke-dasharray="1 5"/>
          <path id="Caminho_81" data-name="Caminho 81" stroke="#fff" d="M8115.8,1190.609s-6.131,5.469-17.843,5.469" fill="none" transform="translate(-8080.115 -1190.609)" stroke-linecap="round" stroke-linejoin="round" stroke-width="2" stroke-dasharray="1 5"/>
        </g>
        <path id="Caminho_82" data-name="Caminho 82" stroke="#fff" d="M8078.694,1168.2c14.446-.235,13.2-5.639,13.2-5.639s-.551-3.748-13.2-3.723c-12.563.024-13.194,3.723-13.194,3.723s-1.252,5.4,13.194,5.639" fill="none" transform="translate(-8059.001 -1155.359)" stroke-linecap="round" stroke-linejoin="round" stroke-width="2" stroke-dasharray="1 5"/>
      </g>
      <g id="Grupo_27" data-name="Grupo 27" transform="translate(52.813 65.194)">
        <path id="Caminho_91" data-name="Caminho 91" stroke="#fff" d="M8052.8,1279.273s3.186,7.489,18.437,7.516" fill="none" transform="translate(-8051.539 -1270.194)" stroke-linecap="round" stroke-linejoin="round" stroke-width="2" stroke-dasharray="1 5"/>
        <path id="Caminho_92" data-name="Caminho 92" stroke="#fff" d="M8070.632,1322.794v2.2s.485,6.179,11.242,6.179" fill="none" transform="translate(-8062.038 -1295.81)" stroke-linecap="round" stroke-linejoin="round" stroke-width="2" stroke-dasharray="1 5"/>
        <ellipse id="Elipse_5" data-name="Elipse 5" cx="7.356" cy="3.178" rx="7.356" ry="3.178" transform="translate(12.338 5.12)" stroke-dasharray="1 5" stroke="#fff" stroke-linecap="round" stroke-linejoin="round" stroke-width="2" fill="none"/>
        <path id="Caminho_93" data-name="Caminho 93" stroke="#fff" d="M8069.293,1285.622c17.564,0,18.566-8.954,18.566-8.954l1.252-11.573a3.112,3.112,0,0,0-.5-2.055c-1.372-2.068-5.773-6.037-19.323-5.824,0,0-15.19-.008-19.037,5.824a3.126,3.126,0,0,0-.5,2.055l1.253,11.573s1,8.954,18.566,8.954" fill="none" transform="translate(-8049.741 -1257.207)" stroke-linecap="round" stroke-linejoin="round" stroke-width="2" stroke-dasharray="1 5"/>
        <path id="Caminho_94" data-name="Caminho 94" stroke="#fff" d="M8116.047,1279.273s-3.187,7.489-18.437,7.516" fill="none" transform="translate(-8077.916 -1270.194)" stroke-linecap="round" stroke-linejoin="round" stroke-width="2" stroke-dasharray="1 5"/>
        <path id="Caminho_95" data-name="Caminho 95" stroke="#fff" d="M8108.5,1322.794v2.2s-.486,6.179-11.243,6.179" fill="none" transform="translate(-8077.711 -1295.81)" stroke-linecap="round" stroke-linejoin="round" stroke-width="2" stroke-dasharray="1 5"/>
        <g id="Grupo_26" data-name="Grupo 26" transform="translate(1.994 16.548)">
          <path id="Caminho_96" data-name="Caminho 96" stroke="#fff" d="M8054.588,1297.428s6.132,5.469,17.844,5.469" fill="none" transform="translate(-8054.588 -1297.428)" stroke-linecap="round" stroke-linejoin="round" stroke-width="2" stroke-dasharray="1 5"/>
          <path id="Caminho_97" data-name="Caminho 97" stroke="#fff" d="M8115.8,1297.428s-6.131,5.469-17.843,5.469" fill="none" transform="translate(-8080.115 -1297.428)" stroke-linecap="round" stroke-linejoin="round" stroke-width="2" stroke-dasharray="1 5"/>
        </g>
        <path id="Caminho_98" data-name="Caminho 98" stroke="#fff" d="M8078.694,1275.015c14.446-.235,13.2-5.639,13.2-5.639s-.551-3.748-13.2-3.723c-12.563.024-13.194,3.723-13.194,3.723s-1.252,5.4,13.194,5.639" fill="none" transform="translate(-8059.001 -1262.178)" stroke-linecap="round" stroke-linejoin="round" stroke-width="2" stroke-dasharray="1 5"/>
      </g>
      <g id="Grupo_29" data-name="Grupo 29" transform="translate(92.627)">
        <path id="Caminho_99" data-name="Caminho 99" stroke="#fff" d="M8156.859,1098.94s3.186,7.489,18.437,7.516" fill="none" transform="translate(-8155.602 -1089.861)" stroke-linecap="round" stroke-linejoin="round" stroke-width="2" stroke-dasharray="1 5"/>
        <path id="Caminho_100" data-name="Caminho 100" stroke="#fff" d="M8174.694,1142.461v2.2s.485,6.179,11.241,6.179" fill="none" transform="translate(-8166.1 -1115.477)" stroke-linecap="round" stroke-linejoin="round" stroke-width="2" stroke-dasharray="1 5"/>
        <ellipse id="Elipse_6" data-name="Elipse 6" cx="7.356" cy="3.178" rx="7.356" ry="3.178" transform="translate(12.338 5.12)" stroke-dasharray="1 5" stroke="#fff" stroke-linecap="round" stroke-linejoin="round" stroke-width="2" fill="none"/>
        <path id="Caminho_101" data-name="Caminho 101" stroke="#fff" d="M8173.354,1105.288c17.564,0,18.565-8.954,18.565-8.954l1.253-11.572a3.113,3.113,0,0,0-.5-2.056c-1.371-2.068-5.772-6.037-19.322-5.825,0,0-15.19-.008-19.036,5.825a3.119,3.119,0,0,0-.5,2.056l1.253,11.572s1,8.954,18.564,8.954" fill="none" transform="translate(-8153.804 -1076.873)" stroke-linecap="round" stroke-linejoin="round" stroke-width="2" stroke-dasharray="1 5"/>
        <path id="Caminho_102" data-name="Caminho 102" stroke="#fff" d="M8220.107,1098.94s-3.186,7.489-18.437,7.516" fill="none" transform="translate(-8181.976 -1089.861)" stroke-linecap="round" stroke-linejoin="round" stroke-width="2" stroke-dasharray="1 5"/>
        <path id="Caminho_103" data-name="Caminho 103" stroke="#fff" d="M8212.566,1142.461v2.2s-.487,6.179-11.242,6.179" fill="none" transform="translate(-8181.773 -1115.477)" stroke-linecap="round" stroke-linejoin="round" stroke-width="2" stroke-dasharray="1 5"/>
        <g id="Grupo_28" data-name="Grupo 28" transform="translate(1.994 16.548)">
          <path id="Caminho_104" data-name="Caminho 104" stroke="#fff" d="M8158.65,1117.094s6.132,5.469,17.843,5.469" fill="none" transform="translate(-8158.65 -1117.094)" stroke-linecap="round" stroke-linejoin="round" stroke-width="2" stroke-dasharray="1 5"/>
          <path id="Caminho_105" data-name="Caminho 105" stroke="#fff" d="M8219.861,1117.094s-6.13,5.469-17.843,5.469" fill="none" transform="translate(-8184.176 -1117.094)" stroke-linecap="round" stroke-linejoin="round" stroke-width="2" stroke-dasharray="1 5"/>
        </g>
        <path id="Caminho_106" data-name="Caminho 106" stroke="#fff" d="M8182.756,1094.681c14.446-.235,13.2-5.638,13.2-5.638s-.551-3.748-13.2-3.724c-12.565.025-13.2,3.724-13.2,3.724s-1.252,5.4,13.2,5.638" fill="none" transform="translate(-8163.062 -1081.844)" stroke-linecap="round" stroke-linejoin="round" stroke-width="2" stroke-dasharray="1 5"/>
      </g>
    </g>
    <g id="Grupo_49" data-name="Grupo 49" transform="translate(0 -57.518)">
      <g id="Grupo_40" data-name="Grupo 40" transform="translate(47.182 74.85)">
        <path id="Caminho_139" data-name="Caminho 139" d="M7441.457,1131.146s3.512,8.253,20.319,8.283" transform="translate(-7440.071 -1121.141)" fill="none" stroke="#fff" stroke-linecap="round" stroke-linejoin="round" stroke-width="1.5"/>
        <path id="Caminho_140" data-name="Caminho 140" d="M7459.293,1174.667v2.427s.536,6.809,12.389,6.809" transform="translate(-7449.821 -1144.929)" fill="none" stroke="#fff" stroke-linecap="round" stroke-linejoin="round" stroke-width="1.5"/>
        <ellipse id="Elipse_11" data-name="Elipse 11" cx="8.107" cy="3.502" rx="8.107" ry="3.502" transform="translate(13.597 5.643)" fill="none" stroke="#fff" stroke-linecap="round" stroke-linejoin="round" stroke-width="1.5"/>
        <path id="Caminho_141" data-name="Caminho 141" d="M7459.948,1140.393c19.357,0,20.46-9.867,20.46-9.867l1.381-12.753a3.427,3.427,0,0,0-.547-2.265c-1.511-2.279-6.362-6.653-21.294-6.419,0,0-16.74-.009-20.979,6.419a3.441,3.441,0,0,0-.547,2.265l1.381,12.753s1.1,9.867,20.46,9.867" transform="translate(-7438.402 -1109.079)" fill="none" stroke="#fff" stroke-linecap="round" stroke-linejoin="round" stroke-width="1.5"/>
        <path id="Caminho_142" data-name="Caminho 142" d="M7506.589,1131.146s-3.511,8.253-20.317,8.283" transform="translate(-7464.567 -1121.141)" fill="none" stroke="#fff" stroke-linecap="round" stroke-linejoin="round" stroke-width="1.5"/>
        <path id="Caminho_143" data-name="Caminho 143" d="M7498.312,1174.667v2.427s-.536,6.809-12.389,6.809" transform="translate(-7464.376 -1144.929)" fill="none" stroke="#fff" stroke-linecap="round" stroke-linejoin="round" stroke-width="1.5"/>
        <g id="Grupo_39" data-name="Grupo 39" transform="translate(2.198 18.236)">
          <path id="Caminho_144" data-name="Caminho 144" d="M7443.249,1149.3s6.757,6.028,19.664,6.028" transform="translate(-7443.249 -1149.3)" fill="none" stroke="#fff" stroke-linecap="round" stroke-linejoin="round" stroke-width="1.5"/>
          <path id="Caminho_145" data-name="Caminho 145" d="M7506.281,1149.3s-6.756,6.028-19.663,6.028" transform="translate(-7466.955 -1149.3)" fill="none" stroke="#fff" stroke-linecap="round" stroke-linejoin="round" stroke-width="1.5"/>
        </g>
        <path id="Caminho_146" data-name="Caminho 146" d="M7468.7,1127.842c15.92-.259,14.542-6.214,14.542-6.214s-.607-4.13-14.542-4.1c-13.846.027-14.541,4.1-14.541,4.1s-1.379,5.955,14.541,6.214" transform="translate(-7447 -1113.695)" fill="none" stroke="#fff" stroke-linecap="round" stroke-linejoin="round" stroke-width="1.5"/>
      </g>
      <g id="Grupo_44" data-name="Grupo 44" transform="translate(94.364 57.518)">
        <path id="Caminho_155" data-name="Caminho 155" d="M7545.519,1057.631s3.512,8.253,20.318,8.283" transform="translate(-7544.133 -1047.626)" fill="none" stroke="#fff" stroke-linecap="round" stroke-linejoin="round" stroke-width="1.5"/>
        <path id="Caminho_156" data-name="Caminho 156" d="M7563.354,1101.152v2.427s.536,6.81,12.39,6.81" transform="translate(-7553.882 -1071.414)" fill="none" stroke="#fff" stroke-linecap="round" stroke-linejoin="round" stroke-width="1.5"/>
        <ellipse id="Elipse_13" data-name="Elipse 13" cx="8.107" cy="3.502" rx="8.107" ry="3.502" transform="translate(13.598 5.643)" fill="none" stroke="#fff" stroke-linecap="round" stroke-linejoin="round" stroke-width="1.5"/>
        <path id="Caminho_157" data-name="Caminho 157" d="M7564.009,1066.879c19.357,0,20.461-9.868,20.461-9.868l1.381-12.753a3.437,3.437,0,0,0-.547-2.265c-1.512-2.279-6.363-6.653-21.295-6.419,0,0-16.739-.009-20.979,6.419a3.439,3.439,0,0,0-.547,2.265l1.381,12.753s1.1,9.868,20.46,9.868" transform="translate(-7542.463 -1035.565)" fill="none" stroke="#fff" stroke-linecap="round" stroke-linejoin="round" stroke-width="1.5"/>
        <path id="Caminho_158" data-name="Caminho 158" d="M7610.649,1057.631s-3.512,8.253-20.318,8.283" transform="translate(-7568.627 -1047.626)" fill="none" stroke="#fff" stroke-linecap="round" stroke-linejoin="round" stroke-width="1.5"/>
        <path id="Caminho_159" data-name="Caminho 159" d="M7602.373,1101.152v2.427s-.536,6.81-12.39,6.81" transform="translate(-7568.438 -1071.414)" fill="none" stroke="#fff" stroke-linecap="round" stroke-linejoin="round" stroke-width="1.5"/>
        <g id="Grupo_43" data-name="Grupo 43" transform="translate(2.198 18.236)">
          <path id="Caminho_160" data-name="Caminho 160" d="M7547.31,1075.786s6.757,6.027,19.664,6.027" transform="translate(-7547.31 -1075.786)" fill="none" stroke="#fff" stroke-linecap="round" stroke-linejoin="round" stroke-width="1.5"/>
          <path id="Caminho_161" data-name="Caminho 161" d="M7610.343,1075.786s-6.757,6.027-19.663,6.027" transform="translate(-7571.017 -1075.786)" fill="none" stroke="#fff" stroke-linecap="round" stroke-linejoin="round" stroke-width="1.5"/>
        </g>
        <path id="Caminho_162" data-name="Caminho 162" d="M7572.766,1054.328c15.92-.259,14.541-6.214,14.541-6.214s-.607-4.13-14.541-4.1c-13.846.027-14.541,4.1-14.541,4.1s-1.379,5.955,14.541,6.214" transform="translate(-7551.062 -1040.181)" fill="none" stroke="#fff" stroke-linecap="round" stroke-linejoin="round" stroke-width="1.5"/>
      </g>
      <g id="Grupo_46" data-name="Grupo 46" transform="translate(0 96.88)">
        <path id="Caminho_163" data-name="Caminho 163" d="M7337.4,1179.735s3.511,8.254,20.318,8.283" transform="translate(-7336.011 -1169.73)" fill="none" stroke="#fff" stroke-linecap="round" stroke-linejoin="round" stroke-width="1.5"/>
        <path id="Caminho_164" data-name="Caminho 164" d="M7355.23,1223.256v2.427s.536,6.809,12.39,6.809" transform="translate(-7345.759 -1193.518)" fill="none" stroke="#fff" stroke-linecap="round" stroke-linejoin="round" stroke-width="1.5"/>
        <ellipse id="Elipse_14" data-name="Elipse 14" cx="8.107" cy="3.502" rx="8.107" ry="3.502" transform="translate(13.598 5.643)" fill="none" stroke="#fff" stroke-linecap="round" stroke-linejoin="round" stroke-width="1.5"/>
        <path id="Caminho_165" data-name="Caminho 165" d="M7355.886,1188.982c19.357,0,20.46-9.868,20.46-9.868l1.381-12.753a3.431,3.431,0,0,0-.547-2.265c-1.511-2.279-6.362-6.653-21.294-6.419,0,0-16.74-.009-20.979,6.419a3.441,3.441,0,0,0-.547,2.265l1.381,12.753s1.1,9.868,20.46,9.868" transform="translate(-7334.34 -1157.668)" fill="none" stroke="#fff" stroke-linecap="round" stroke-linejoin="round" stroke-width="1.5"/>
        <path id="Caminho_166" data-name="Caminho 166" d="M7402.527,1179.735s-3.512,8.254-20.318,8.283" transform="translate(-7360.504 -1169.73)" fill="none" stroke="#fff" stroke-linecap="round" stroke-linejoin="round" stroke-width="1.5"/>
        <path id="Caminho_167" data-name="Caminho 167" d="M7394.25,1223.256v2.427s-.536,6.809-12.39,6.809" transform="translate(-7360.314 -1193.518)" fill="none" stroke="#fff" stroke-linecap="round" stroke-linejoin="round" stroke-width="1.5"/>
        <g id="Grupo_45" data-name="Grupo 45" transform="translate(2.198 18.236)">
          <path id="Caminho_168" data-name="Caminho 168" d="M7339.188,1197.889s6.757,6.028,19.664,6.028" transform="translate(-7339.188 -1197.889)" fill="none" stroke="#fff" stroke-linecap="round" stroke-linejoin="round" stroke-width="1.5"/>
          <path id="Caminho_169" data-name="Caminho 169" d="M7402.22,1197.889s-6.757,6.028-19.663,6.028" transform="translate(-7362.893 -1197.889)" fill="none" stroke="#fff" stroke-linecap="round" stroke-linejoin="round" stroke-width="1.5"/>
        </g>
        <path id="Caminho_170" data-name="Caminho 170" d="M7364.643,1176.431c15.92-.259,14.541-6.214,14.541-6.214s-.607-4.131-14.541-4.1c-13.847.027-14.542,4.1-14.542,4.1s-1.379,5.954,14.542,6.214" transform="translate(-7342.938 -1162.284)" fill="none" stroke="#fff" stroke-linecap="round" stroke-linejoin="round" stroke-width="1.5"/>
      </g>
      <g id="Grupo_48" data-name="Grupo 48" transform="translate(47.182 116.368)">
        <path id="Caminho_171" data-name="Caminho 171" d="M7441.457,1222.715s3.512,8.253,20.319,8.283" transform="translate(-7440.071 -1212.71)" fill="none" stroke="#fff" stroke-linecap="round" stroke-linejoin="round" stroke-width="1.5"/>
        <path id="Caminho_172" data-name="Caminho 172" d="M7459.293,1266.236v2.427s.536,6.809,12.389,6.809" transform="translate(-7449.821 -1236.498)" fill="none" stroke="#fff" stroke-linecap="round" stroke-linejoin="round" stroke-width="1.5"/>
        <ellipse id="Elipse_15" data-name="Elipse 15" cx="8.107" cy="3.502" rx="8.107" ry="3.502" transform="translate(13.597 5.643)" fill="none" stroke="#fff" stroke-linecap="round" stroke-linejoin="round" stroke-width="1.5"/>
        <path id="Caminho_173" data-name="Caminho 173" d="M7459.948,1231.962c19.357,0,20.46-9.868,20.46-9.868l1.381-12.753a3.429,3.429,0,0,0-.547-2.266c-1.511-2.279-6.362-6.652-21.294-6.419,0,0-16.74-.009-20.979,6.419a3.443,3.443,0,0,0-.547,2.266l1.381,12.753s1.1,9.868,20.46,9.868" transform="translate(-7438.402 -1200.648)" fill="none" stroke="#fff" stroke-linecap="round" stroke-linejoin="round" stroke-width="1.5"/>
        <path id="Caminho_174" data-name="Caminho 174" d="M7506.589,1222.715s-3.511,8.253-20.317,8.283" transform="translate(-7464.567 -1212.71)" fill="none" stroke="#fff" stroke-linecap="round" stroke-linejoin="round" stroke-width="1.5"/>
        <path id="Caminho_175" data-name="Caminho 175" d="M7498.312,1266.236v2.427s-.536,6.809-12.389,6.809" transform="translate(-7464.376 -1236.498)" fill="none" stroke="#fff" stroke-linecap="round" stroke-linejoin="round" stroke-width="1.5"/>
        <g id="Grupo_47" data-name="Grupo 47" transform="translate(2.198 18.236)">
          <path id="Caminho_176" data-name="Caminho 176" d="M7443.249,1240.869s6.757,6.027,19.664,6.027" transform="translate(-7443.249 -1240.869)" fill="none" stroke="#fff" stroke-linecap="round" stroke-linejoin="round" stroke-width="1.5"/>
          <path id="Caminho_177" data-name="Caminho 177" d="M7506.281,1240.869s-6.756,6.027-19.663,6.027" transform="translate(-7466.955 -1240.869)" fill="none" stroke="#fff" stroke-linecap="round" stroke-linejoin="round" stroke-width="1.5"/>
        </g>
        <path id="Caminho_178" data-name="Caminho 178" d="M7468.7,1219.411c15.92-.26,14.542-6.214,14.542-6.214s-.607-4.13-14.542-4.1c-13.846.027-14.541,4.1-14.541,4.1s-1.379,5.954,14.541,6.214" transform="translate(-7447 -1205.265)" fill="none" stroke="#fff" stroke-linecap="round" stroke-linejoin="round" stroke-width="1.5"/>
      </g>
    </g>
    <g id="Grupo_50" data-name="Grupo 50" transform="translate(73.281 53.863)">
      <path id="Caminho_179" data-name="Caminho 179" stroke="#fff" d="M7732.72,1312.273l35.964-35.565a8.541,8.541,0,0,1,.07.907c.008,4.622.041,9.245-.012,13.867-.013,1.2.349,1.633,1.587,1.629,12.756-.038,25.512.024,38.268-.06,5.092-.034,10.1-.753,14.611-3.385,5.384-3.14,8.673-7.956,11.152-13.639A89.6,89.6,0,0,1,7833.3,1285c-3.82,17.56-12.886,31.465-28.854,40.313a49.658,49.658,0,0,1-24.6,6.258c-3.066-.012-6.133,0-9.2,0-1.588,0-1.716.118-1.72,1.761-.011,4.578-.005,9.156-.006,13.734v1.276l-.316.145Z" fill="#c4badc" transform="translate(-7647.745 -1155.694)" stroke-linecap="round" stroke-linejoin="round" stroke-width="2" stroke-dasharray="1 5"/>
      <path id="Caminho_180" data-name="Caminho 180" d="M7575.315,1181.715l49.178-13.153c4.382,16.559,8.721,32.955,13.061,49.352l-.262.218-14.305-8.37c-.791,1.326-1.566,2.6-2.318,3.891q-8.5,14.6-17,29.214c-2.693,4.651-4.759,9.533-4.875,15.014a23.223,23.223,0,0,0,5.644,15.8,2.235,2.235,0,0,1,.556,1c-.388-.234-.784-.457-1.164-.7a56.762,56.762,0,0,1-19.978-22.4c-4.017-7.958-6.541-16.366-6.575-25.388a49.613,49.613,0,0,1,6.663-25.692c1.722-2.951,3.411-5.922,5.208-8.827.64-1.035.543-1.516-.545-2.125-4.063-2.273-8.069-4.65-12.093-7C7576.181,1182.351,7575.877,1182.107,7575.315,1181.715Z" transform="translate(-7575.315 -1106.245)" fill="#c4badc" stroke="#fff" stroke-linecap="round" stroke-linejoin="round" stroke-width="2"/>
      <path id="Caminho_181" data-name="Caminho 181" d="M7732.531,1116.992c.592-.383.939-.628,1.3-.842,3.979-2.333,7.932-4.711,11.958-6.958,1.144-.638,1.144-1.21.579-2.192-2.146-3.729-4.259-7.478-6.374-11.225-4.058-7.184-8.074-14.392-12.175-21.551-2.5-4.358-5.545-8.278-9.911-10.945a23.837,23.837,0,0,0-18.074-2.778,3.6,3.6,0,0,1-.384.041l-.145-.32c2.595-1.187,5.145-2.484,7.792-3.54,7.293-2.908,14.921-3.588,22.717-3.553a51.914,51.914,0,0,1,23.187,5.554,49.292,49.292,0,0,1,22.342,21.9c1.186,2.282,2.539,4.477,3.739,6.752.62,1.174,1.279,1.327,2.427.657,3.9-2.282,7.857-4.481,11.793-6.709.345-.2.7-.373,1.283-.683-4.438,16.5-8.824,32.8-13.274,49.337Z" transform="translate(-7632.372 -1053.128)" fill="#c4badc" stroke="#fff" stroke-linecap="round" stroke-linejoin="round" stroke-width="2"/>
      <path id="Caminho_182" data-name="Caminho 182" stroke="#fff" d="M7842.727,1250.153c.9-3.174,1.241-6.212.221-9.21a24.784,24.784,0,0,0-2-4.172q-5.192-9.138-10.478-18.223c-.645-1.106-.451-1.646.646-2.271q15.373-8.765,30.683-17.637c1.066-.618,1.583-.5,2.161.591,2.961,5.6,6.592,10.838,8.794,16.833,2.479,6.749,3.284,13.547,1.064,20.566-2.26,7.147-7.128,11.2-14.351,12.668C7853.975,1250.414,7848.427,1250.187,7842.727,1250.153Z" fill="#c4badc" transform="translate(-7692.553 -1119.913)" stroke-linecap="round" stroke-linejoin="round" stroke-width="2" stroke-dasharray="1 5"/>
      <path id="Caminho_183" data-name="Caminho 183" d="M7702.95,1097.388c-3.359.885-6.315,2.266-8.393,4.878a53.223,53.223,0,0,0-4.026,6.254q-4.52,7.685-8.917,15.442c-.485.854-.84,1-1.73.483q-15.37-8.9-30.8-17.707c-1.181-.673-1.3-1.276-.646-2.418,3.417-5.968,6.593-12.086,11.249-17.246,4.283-4.748,9.257-8.338,15.64-9.777,7.526-1.7,13.73.351,18.771,6.158C7697.715,1087.617,7700.295,1092.418,7702.95,1097.388Z" transform="translate(-7608.782 -1063.984)" fill="#c4badc" stroke="#fff" stroke-linecap="round" stroke-linejoin="round" stroke-width="2"/>
      <path id="Caminho_184" data-name="Caminho 184" d="M7640.763,1297.47a15.937,15.937,0,0,0,12.851,5.28c6.794-.151,13.6-.016,20.394-.061,1.14-.007,1.545.289,1.541,1.491q-.059,17.795-.011,35.59c0,.935-.125,1.509-1.269,1.477-5.592-.154-11.207.007-16.772-.448-7.116-.583-13.737-2.792-19.023-7.9-4.391-4.245-7.239-9.2-6.46-15.613a32.828,32.828,0,0,1,4.191-11.828C7637.647,1302.829,7639.175,1300.245,7640.763,1297.47Z" transform="translate(-7601.344 -1165.561)" fill="#c4badc" stroke="#fff" stroke-linecap="round" stroke-linejoin="round" stroke-width="2"/>
    </g>
  </g>
</svg>
