<svg xmlns="http://www.w3.org/2000/svg" width="791.335" height="267.078" viewBox="0 0 791.335 267.078"><g transform="translate(680.229 40.201)"><path d="M6968.829,515.049a1.073,1.073,0,0,1-1.072-1.055q0-.261-.012-.521a1.072,1.072,0,0,1,1.04-1.1,1.1,1.1,0,0,1,1.1,1.04q.008.274.012.549a1.072,1.072,0,0,1-1.054,1.09Zm-.439-5.876a1.073,1.073,0,0,1-1.062-.936q-.033-.258-.07-.516a1.072,1.072,0,1,1,2.123-.3c.026.182.052.363.075.545a1.073,1.073,0,0,1-.927,1.2A1.1,1.1,0,0,1,6968.389,509.173Zm-1.1-5.788a1.073,1.073,0,0,1-1.039-.81l-.131-.512a1.072,1.072,0,1,1,2.075-.541l.136.528a1.072,1.072,0,0,1-1.041,1.335Zm-1.764-5.623a1.073,1.073,0,0,1-1-.689l-.189-.493a1.072,1.072,0,1,1,2-.78l.2.508a1.073,1.073,0,0,1-1,1.455Zm-2.4-5.382a1.073,1.073,0,0,1-.954-.579l-.244-.467a1.073,1.073,0,0,1,1.9-1l.251.481a1.074,1.074,0,0,1-.951,1.567Zm-3-5.07a1.069,1.069,0,0,1-.891-.474l-.295-.434a1.072,1.072,0,1,1,1.769-1.213l.305.451a1.072,1.072,0,0,1-.889,1.671Zm-85.445-.107a1.073,1.073,0,0,1-.887-1.673q.153-.228.31-.453a1.072,1.072,0,0,1,1.762,1.222q-.148.215-.295.432A1.075,1.075,0,0,1,6874.674,487.2Zm81.885-4.589a1.072,1.072,0,0,1-.818-.379q-.169-.2-.34-.4a1.072,1.072,0,1,1,1.618-1.407c.12.137.24.277.357.415a1.072,1.072,0,0,1-.817,1.767Zm-78.31-.1a1.072,1.072,0,0,1-.813-1.771q.178-.208.359-.415a1.072,1.072,0,0,1,1.612,1.415l-.344.4A1.071,1.071,0,0,1,6878.249,482.512Zm74.237-4.16a1.067,1.067,0,0,1-.731-.289l-.386-.357a1.072,1.072,0,0,1,1.448-1.582l.4.37a1.073,1.073,0,0,1-.732,1.857Zm-70.153-.091a1.072,1.072,0,0,1-.732-1.857l.4-.37a1.072,1.072,0,0,1,1.448,1.582l-.386.357A1.07,1.07,0,0,1,6882.333,478.26Zm65.624-3.679a1.072,1.072,0,0,1-.638-.211l-.424-.311a1.072,1.072,0,0,1,1.259-1.736l.441.323a1.073,1.073,0,0,1-.638,1.935Zm-61.084-.08a1.073,1.073,0,0,1-.638-1.935q.221-.163.445-.324a1.072,1.072,0,1,1,1.25,1.742q-.212.152-.42.307A1.067,1.067,0,0,1,6886.873,474.5Zm56.151-3.151a1.072,1.072,0,0,1-.537-.145c-.151-.088-.3-.174-.455-.26a1.073,1.073,0,1,1,1.054-1.869c.159.09.319.181.477.272a1.073,1.073,0,0,1-.539,2Zm-51.212-.066a1.073,1.073,0,0,1-.534-2l.477-.27a1.073,1.073,0,1,1,1.045,1.874l-.456.257A1.07,1.07,0,0,1,6891.812,471.284Zm45.945-2.58a1.06,1.06,0,0,1-.423-.088l-.485-.206a1.072,1.072,0,1,1,.829-1.978l.5.215a1.073,1.073,0,0,1-.425,2.058Zm-40.673-.05a1.073,1.073,0,0,1-.423-2.059l.5-.212a1.072,1.072,0,1,1,.825,1.98l-.483.2A1.071,1.071,0,0,1,6897.083,468.654Zm35.135-1.971a1.067,1.067,0,0,1-.31-.046l-.5-.149a1.072,1.072,0,1,1,.6-2.059l.525.155a1.073,1.073,0,0,1-.309,2.1Zm-29.6-.035a1.073,1.073,0,0,1-.306-2.1l.521-.153a1.073,1.073,0,0,1,.6,2.06l-.505.148A1.073,1.073,0,0,1,6902.621,466.647Zm23.866-1.335a1.039,1.039,0,0,1-.192-.017l-.517-.089a1.073,1.073,0,1,1,.358-2.115l.539.095a1.072,1.072,0,0,1-.189,2.127Zm-18.136-.021a1.073,1.073,0,0,1-.185-2.129l.541-.092a1.072,1.072,0,0,1,.35,2.116l-.518.089A1.1,1.1,0,0,1,6908.35,465.291Zm12.286-.683-.068,0-.525-.031a1.072,1.072,0,1,1,.113-2.142l.545.031a1.073,1.073,0,0,1-.065,2.143Zm-6.431-.008a1.072,1.072,0,0,1-.062-2.143l.546-.03a1.072,1.072,0,1,1,.1,2.142l-.525.029Z" transform="translate(-6873.603 -462.426)" fill="#c4badc"/></g><g transform="translate(320.648 214.456)"><path d="M6329.361,805.521a1.072,1.072,0,0,1-.051-2.143l.525-.029a1.072,1.072,0,1,1,.126,2.141l-.545.029Zm-5.356-.005-.057,0-.546-.032a1.072,1.072,0,1,1,.133-2.141l.525.03a1.073,1.073,0,0,1-.055,2.144Zm11.216-.624a1.072,1.072,0,0,1-.174-2.13l.518-.089a1.073,1.073,0,0,1,.373,2.113l-.54.092A1.046,1.046,0,0,1,6335.222,804.892Zm-17.074-.02a1.166,1.166,0,0,1-.181-.015l-.539-.094a1.072,1.072,0,0,1,.38-2.11l.518.089a1.073,1.073,0,0,1-.179,2.13Zm22.821-1.275a1.073,1.073,0,0,1-.3-2.1l.505-.148a1.072,1.072,0,0,1,.614,2.055l-.521.153A1.055,1.055,0,0,1,6340.969,803.6Zm-28.567-.034a1.058,1.058,0,0,1-.3-.043l-.524-.154a1.073,1.073,0,0,1,.618-2.054l.5.149a1.073,1.073,0,0,1-.3,2.1Zm34.128-1.916a1.072,1.072,0,0,1-.413-2.062l.483-.2a1.073,1.073,0,0,1,.845,1.972l-.5.213A1.078,1.078,0,0,1,6346.529,801.647Zm-39.687-.048a1.082,1.082,0,0,1-.413-.083l-.5-.215a1.072,1.072,0,1,1,.848-1.969l.484.206a1.072,1.072,0,0,1-.415,2.062Zm44.987-2.527a1.073,1.073,0,0,1-.524-2.009l.457-.258a1.073,1.073,0,0,1,1.065,1.862l-.477.269A1.069,1.069,0,0,1,6351.829,799.072Zm-50.285-.063a1.065,1.065,0,0,1-.526-.139q-.24-.135-.478-.272a1.072,1.072,0,0,1,1.076-1.855c.151.088.3.174.456.259a1.073,1.073,0,0,1-.528,2.007Zm55.255-3.1a1.072,1.072,0,0,1-.625-1.944q.211-.152.42-.307a1.073,1.073,0,0,1,1.275,1.725c-.148.109-.3.217-.446.324A1.062,1.062,0,0,1,6356.8,795.907Zm-60.22-.077a1.061,1.061,0,0,1-.628-.2l-.441-.323a1.073,1.073,0,1,1,1.275-1.725l.424.311a1.072,1.072,0,0,1-.63,1.941Zm64.8-3.635a1.072,1.072,0,0,1-.724-1.863l.387-.357a1.073,1.073,0,0,1,1.463,1.569l-.4.37A1.068,1.068,0,0,1,6361.377,792.195Zm-69.367-.09a1.067,1.067,0,0,1-.724-.282l-.4-.37a1.073,1.073,0,0,1,1.464-1.569l.386.358a1.072,1.072,0,0,1-.725,1.863Zm73.492-4.119a1.072,1.072,0,0,1-.805-1.78l.344-.4a1.072,1.072,0,1,1,1.627,1.4q-.179.208-.359.414A1.069,1.069,0,0,1,6365.5,787.986Zm-77.606-.1a1.07,1.07,0,0,1-.81-.369c-.12-.138-.24-.277-.357-.416a1.072,1.072,0,0,1,1.634-1.388l.341.4a1.073,1.073,0,0,1-.809,1.776Zm81.229-4.552a1.073,1.073,0,0,1-.879-1.684q.149-.215.3-.432a1.073,1.073,0,1,1,1.777,1.2q-.154.227-.311.453A1.071,1.071,0,0,1,6369.124,783.334Zm-84.836-.107a1.071,1.071,0,0,1-.885-.466l-.306-.451a1.072,1.072,0,1,1,1.78-1.2l.295.434a1.073,1.073,0,0,1-.883,1.679Zm-3.053-5.039a1.072,1.072,0,0,1-.949-.572l-.251-.48a1.072,1.072,0,1,1,1.9-.988l.244.467a1.072,1.072,0,0,1-.947,1.574Zm-2.458-5.357a1.072,1.072,0,0,1-1-.683l-.2-.51a1.072,1.072,0,1,1,2-.761l.189.491a1.073,1.073,0,0,1-.609,1.389A1.059,1.059,0,0,1,6278.776,772.832Zm-1.825-5.6a1.073,1.073,0,0,1-1.037-.8l-.136-.527a1.073,1.073,0,0,1,2.08-.525l.131.511a1.071,1.071,0,0,1-.767,1.308A1.059,1.059,0,0,1,6276.951,767.227Zm-1.167-5.776a1.073,1.073,0,0,1-1.061-.921q-.04-.272-.075-.545a1.073,1.073,0,1,1,2.128-.274q.033.258.07.516a1.072,1.072,0,0,1-.91,1.213A1.013,1.013,0,0,1,6275.784,761.451Zm-.5-5.871a1.074,1.074,0,0,1-1.072-1.041c0-.183-.009-.365-.012-.549a1.071,1.071,0,0,1,1.055-1.089h.018a1.071,1.071,0,0,1,1.071,1.055c0,.174.008.347.013.521a1.073,1.073,0,0,1-1.041,1.1Z" transform="translate(-6274.202 -752.9)" fill="#fff"/></g><g transform="translate(20.735 53.554)"><path d="M5776.241,548.108a1.072,1.072,0,0,1-1.052-.869l-.1-.537a1.073,1.073,0,0,1,2.11-.387l.1.517a1.072,1.072,0,0,1-.849,1.256A1.039,1.039,0,0,1,5776.241,548.108Zm-.789-5.842a1.072,1.072,0,0,1-1.068-.99l-.04-.546a1.073,1.073,0,0,1,2.141-.144l.038.524a1.073,1.073,0,0,1-.987,1.152C5775.508,542.265,5775.48,542.266,5775.453,542.266Zm-.117-5.894h-.039a1.073,1.073,0,0,1-1.034-1.11l.023-.546a1.072,1.072,0,1,1,2.143.1l-.022.525A1.073,1.073,0,0,1,5775.335,536.372Zm.553-5.869a1.074,1.074,0,0,1-1.062-1.235l.084-.537a1.072,1.072,0,0,1,2.118.341l-.082.521A1.073,1.073,0,0,1,5775.888,530.5Zm1.216-5.768a1.073,1.073,0,0,1-1.036-1.354l.146-.525a1.072,1.072,0,1,1,2.064.581l-.14.508A1.073,1.073,0,0,1,5777.1,524.735Zm1.868-5.589a1.073,1.073,0,0,1-1-1.47l.205-.506a1.072,1.072,0,1,1,1.983.815l-.2.487A1.071,1.071,0,0,1,5778.972,519.147Zm2.5-5.337a1.072,1.072,0,0,1-.943-1.581c.087-.161.175-.322.264-.482a1.072,1.072,0,1,1,1.875,1.043q-.127.228-.25.457A1.073,1.073,0,0,1,5781.47,513.81Zm3.1-5.013a1.072,1.072,0,0,1-.878-1.687c.1-.149.209-.3.315-.446a1.072,1.072,0,1,1,1.744,1.248l-.3.427A1.073,1.073,0,0,1,5784.566,508.8Zm3.65-4.626a1.072,1.072,0,0,1-.8-1.784l.364-.407a1.073,1.073,0,0,1,1.592,1.437l-.351.392A1.072,1.072,0,0,1,5788.217,504.17Zm74.308-2.935a1.069,1.069,0,0,1-.745-.3l-.379-.362a1.072,1.072,0,0,1,1.474-1.559l.4.377a1.073,1.073,0,0,1-.745,1.845Zm-70.155-1.248a1.073,1.073,0,0,1-.717-1.87l.41-.365a1.073,1.073,0,0,1,1.417,1.61l-.393.35A1.072,1.072,0,0,1,5792.37,499.987Zm65.689-2.6a1.066,1.066,0,0,1-.651-.221l-.417-.316a1.072,1.072,0,0,1,1.286-1.716l.435.329a1.073,1.073,0,0,1-.653,1.924Zm-61.088-1.091a1.073,1.073,0,0,1-.623-1.945l.449-.317a1.073,1.073,0,0,1,1.227,1.76l-.431.3A1.065,1.065,0,0,1,5796.971,496.3Zm56.215-2.221a1.064,1.064,0,0,1-.549-.152l-.45-.265a1.073,1.073,0,1,1,1.08-1.854q.236.138.471.278a1.073,1.073,0,0,1-.552,1.993Zm-51.221-.917a1.072,1.072,0,0,1-.519-2.011q.242-.134.485-.264a1.073,1.073,0,0,1,1.011,1.892l-.459.249A1.068,1.068,0,0,1,5801.964,493.159Zm46-1.812a1.073,1.073,0,0,1-.442-.1l-.476-.212a1.072,1.072,0,1,1,.86-1.965q.25.11.5.224a1.072,1.072,0,0,1-.443,2.049Zm-40.68-.729a1.073,1.073,0,0,1-.407-2.065c.17-.07.341-.139.512-.206a1.072,1.072,0,1,1,.787,2c-.162.064-.323.129-.485.2A1.081,1.081,0,0,1,5807.284,490.618Zm35.179-1.382a1.073,1.073,0,0,1-.327-.052l-.5-.157a1.073,1.073,0,1,1,.634-2.049l.521.164a1.073,1.073,0,0,1-.327,2.094Zm-29.6-.53a1.072,1.072,0,0,1-.288-2.106l.528-.145a1.072,1.072,0,1,1,.554,2.071l-.506.139A1.075,1.075,0,0,1,5812.861,488.706Zm23.895-.936a1.037,1.037,0,0,1-.209-.02l-.516-.1a1.072,1.072,0,1,1,.394-2.108l.537.1a1.073,1.073,0,0,1-.206,2.125Zm-18.137-.325a1.072,1.072,0,0,1-.167-2.131c.181-.029.363-.057.544-.083a1.072,1.072,0,1,1,.31,2.122c-.172.025-.344.052-.516.08A1.183,1.183,0,0,1,5818.619,487.445Zm12.3-.481c-.029,0-.06,0-.089,0-.173-.014-.346-.027-.52-.04a1.072,1.072,0,1,1,.147-2.139c.183.012.366.026.549.041a1.072,1.072,0,0,1-.087,2.141Zm-6.431-.115a1.073,1.073,0,0,1-.045-2.144l.546-.021a1.085,1.085,0,0,1,1.107,1.037,1.073,1.073,0,0,1-1.037,1.107l-.524.02Z" transform="translate(-5774.262 -484.685)" fill="#c4badc"/></g><g transform="translate(125.813 94.77)"><path d="M6028.909,695.566H5962.32a1.5,1.5,0,0,1-1.216-.622l-11.4-15.8a1.5,1.5,0,0,1-.169-1.452l32.122-77.509V554.89a1.5,1.5,0,0,1,1.5-1.5h24.568a1.5,1.5,0,0,1,1.5,1.5v45.291l32.464,77.506a1.5,1.5,0,0,1-.167,1.457l-11.4,15.8A1.5,1.5,0,0,1,6028.909,695.566Zm-65.821-3h65.054l10.458-14.5-32.256-77.009a1.5,1.5,0,0,1-.117-.58V556.39h-21.569v44.093a1.5,1.5,0,0,1-.114.574l-31.916,77.012Z" transform="translate(-5949.422 -553.39)" fill="#fff"/></g><g transform="translate(165.84 80.028)"><path d="M6029.888,556.3a13.744,13.744,0,1,1,13.743-13.744A13.759,13.759,0,0,1,6029.888,556.3Zm0-25.316a11.573,11.573,0,1,0,11.573,11.573A11.585,11.585,0,0,0,6029.888,530.986Z" transform="translate(-6016.145 -528.815)" fill="#fff"/></g><g transform="translate(154.258 62.996)"><path d="M6004.454,515.657a7.617,7.617,0,1,1,7.616-7.617A7.626,7.626,0,0,1,6004.454,515.657Zm0-13.062a5.445,5.445,0,1,0,5.446,5.445A5.452,5.452,0,0,0,6004.454,502.6Z" transform="translate(-5996.837 -500.424)" fill="#fff"/></g><g transform="translate(167.81 51.979)"><path d="M6024.09,491.382a4.662,4.662,0,1,1,4.662-4.662A4.667,4.667,0,0,1,6024.09,491.382Zm0-7.152a2.49,2.49,0,1,0,2.49,2.49A2.493,2.493,0,0,0,6024.09,484.23Z" transform="translate(-6019.429 -482.059)" fill="#fff"/></g><g transform="translate(83.698 185.653)"><path d="M5922.566,780.371a1.5,1.5,0,0,1-1.3-.75l-41.849-72.484a1.5,1.5,0,0,1,1.3-2.25h83.7a1.5,1.5,0,0,1,1.3,2.25l-41.849,72.484A1.5,1.5,0,0,1,5922.566,780.371Zm-39.251-72.484,39.251,67.985,39.251-67.985Z" transform="translate(-5879.218 -704.887)" fill="#fff"/></g><g transform="translate(0 185.653)"><path d="M5783.047,780.371a1.5,1.5,0,0,1-1.3-.75L5739.9,707.137a1.5,1.5,0,0,1,1.3-2.25h83.7a1.5,1.5,0,0,1,1.3,2.25l-41.849,72.484A1.5,1.5,0,0,1,5783.047,780.371ZM5743.8,707.887l39.251,67.985,39.252-67.985Z" transform="translate(-5739.699 -704.887)" fill="#fff"/></g><g transform="translate(52.687 99.292)"><path d="M5870.871,636.412a1.5,1.5,0,0,1-1.3-.75l-41.849-72.485a1.5,1.5,0,0,1,1.3-2.25h83.7a1.5,1.5,0,0,1,1.3,2.25l-41.848,72.485A1.5,1.5,0,0,1,5870.871,636.412Zm-39.251-72.485,39.251,67.985,39.251-67.985Z" transform="translate(-5827.523 -560.928)" fill="#fff"/></g><g transform="translate(125.547 185.863)"><path d="M5950.478,780.511a1.5,1.5,0,0,1-1.5-1.5V706.737a1.5,1.5,0,1,1,3,0v72.274A1.5,1.5,0,0,1,5950.478,780.511Z" transform="translate(-5948.978 -705.237)" fill="#fff"/></g><g transform="translate(94.535 81.69)"><path d="M5898.782,624.672a1.5,1.5,0,0,1-1.5-1.5V533.086a1.5,1.5,0,1,1,3,0v90.087A1.5,1.5,0,0,1,5898.782,624.672Z" transform="translate(-5897.282 -531.586)" fill="#fff"/></g><g transform="translate(41.849 168.05)"><path d="M5810.958,768.63a1.5,1.5,0,0,1-1.5-1.5V677.044a1.5,1.5,0,1,1,3,0v90.087A1.5,1.5,0,0,1,5810.958,768.63Z" transform="translate(-5809.458 -675.544)" fill="#fff"/></g><g transform="translate(0 168.05)"><path d="M5824.9,696.356a1.5,1.5,0,0,1-1.306-.76l-9.658-17.053H5753.54l-11.082,17.128a1.5,1.5,0,0,1-2.519-1.63l11.525-17.813a1.5,1.5,0,0,1,1.259-.685h62.084a1.5,1.5,0,0,1,1.305.761l10.088,17.813a1.5,1.5,0,0,1-1.3,2.239Z" transform="translate(-5739.698 -675.544)" fill="#fff"/></g><g transform="translate(11.525 168.049)"><path d="M5790.733,766.695h-.011a1.5,1.5,0,0,1-1.407-1.011l-30.324-88.152a1.5,1.5,0,0,1,2.837-.976l28.938,84.124,30.316-84.145a1.5,1.5,0,0,1,2.822,1.017l-31.76,88.152A1.5,1.5,0,0,1,5790.733,766.695Z" transform="translate(-5758.91 -675.543)" fill="#fff"/></g><g transform="translate(52.686 81.69)"><path d="M5912.722,552.4a1.5,1.5,0,0,1-1.307-.76l-9.658-17.052h-60.394l-11.082,17.128a1.5,1.5,0,0,1-2.519-1.63l11.525-17.812a1.5,1.5,0,0,1,1.26-.685h62.084a1.5,1.5,0,0,1,1.3.761l10.089,17.812a1.5,1.5,0,0,1-1.3,2.239Z" transform="translate(-5827.522 -531.586)" fill="#fff"/></g><g transform="translate(64.211 81.689)"><path d="M5878.558,622.736h-.011a1.5,1.5,0,0,1-1.407-1.011l-30.324-88.151a1.5,1.5,0,0,1,2.837-.976l28.938,84.123,30.317-84.144a1.5,1.5,0,0,1,2.822,1.017l-31.76,88.151A1.5,1.5,0,0,1,5878.558,622.736Z" transform="translate(-5846.734 -531.584)" fill="#fff"/></g><g transform="translate(161.874 159.618)"><path d="M6009.533,673.677s14.019-2.479,46.021,13.76c32.343,16.414,84.761,6.845,122.15-23.563,0,0-4.032,59.353-51.318,37.558S6050.668,641.975,6009.533,673.677Z" transform="translate(-6009.533 -661.487)" fill="#482e59"/></g><g transform="translate(289.191 3.712)"><g transform="translate(0 0)"><g transform="translate(1.344 9.709)"><path d="M6244.873,428.127h0c-16.876-.03-20.624-8.384-20.775-8.739a1.152,1.152,0,0,1,2.116-.909c.056.123,3.493,7.318,18.663,7.345a1.152,1.152,0,0,1,0,2.3Z" transform="translate(-6224.003 -417.785)" fill="#fff" stroke="#c4badc" stroke-width="1"/></g><g transform="translate(9.192 28.858)"><path d="M6250.26,460.973c-12.424,0-13.146-7.357-13.171-7.67,0-.03,0-.06,0-.091v-2.355a1.152,1.152,0,0,1,2.3,0v2.295c.063.478.968,5.518,10.871,5.518a1.152,1.152,0,1,1,0,2.3Z" transform="translate(-6237.085 -449.706)" fill="#fff" stroke="#c4badc" stroke-width="1"/></g><g transform="translate(13.195 5.477)"><path d="M6252.777,419.83c-5.921,0-9.019-2.289-9.019-4.55s3.1-4.55,9.019-4.55,9.019,2.289,9.019,4.55S6258.7,419.83,6252.777,419.83Zm0-6.8c-4.166,0-6.715,1.455-6.715,2.247s2.549,2.247,6.715,2.247,6.714-1.455,6.714-2.247S6256.943,413.032,6252.777,413.032Z" transform="translate(-6243.759 -410.73)" fill="#fff" stroke="#c4badc" stroke-width="1"/></g><path d="M6244.13,434.292h-.357c-19.249-.122-20.594-10.168-20.642-10.6l-1.341-12.38a4.508,4.508,0,0,1,.715-2.956c4.393-6.662,20.551-6.746,21.315-6.746h.005c14.755-.234,19.888,4.126,21.623,6.745a4.485,4.485,0,0,1,.716,2.959l-1.34,12.375c-.048.434-1.394,10.48-20.642,10.6Zm-.29-30.379c-4.367,0-16.323,1.025-19.413,5.712a2.191,2.191,0,0,0-.348,1.441l1.34,12.375c.045.334,1.322,8.5,18.558,8.547,17.4-.049,18.548-8.466,18.558-8.552l1.34-12.372a2.179,2.179,0,0,0-.346-1.438c-1.188-1.792-5.479-5.938-19.687-5.714Z" transform="translate(-6221.763 -401.601)" fill="#fff" stroke="#c4badc" stroke-width="1"/><g transform="translate(21.062 9.714)"><path d="M6258.024,428.13a1.151,1.151,0,0,1,0-2.3c15.224-.027,18.63-7.273,18.663-7.346a1.152,1.152,0,0,1,2.116.911c-.151.355-3.9,8.709-20.775,8.739Z" transform="translate(-6256.872 -417.794)" fill="#fff" stroke="#c4badc" stroke-width="1"/></g><g transform="translate(20.909 28.858)"><path d="M6257.769,460.973a1.152,1.152,0,1,1,0-2.3c9.917,0,10.813-5.072,10.872-5.517v-2.3a1.152,1.152,0,0,1,2.3,0v2.355c0,.031,0,.061,0,.091C6270.915,453.617,6270.193,460.973,6257.769,460.973Z" transform="translate(-6256.617 -449.706)" fill="#fff" stroke="#c4badc" stroke-width="1"/></g><g transform="translate(2.133 17.697)"><path d="M6245.552,439.253c-12.817,0-19.568-5.89-19.848-6.141a1.151,1.151,0,0,1,1.53-1.721h0c.063.056,6.432,5.559,18.318,5.559a1.151,1.151,0,1,1,0,2.3Z" transform="translate(-6225.318 -431.102)" fill="#fff" stroke="#c4badc" stroke-width="1"/><g transform="translate(19.082 0.002)"><path d="M6258.279,439.254a1.151,1.151,0,1,1,0-2.3c11.885,0,18.254-5.5,18.317-5.559a1.151,1.151,0,0,1,1.531,1.721C6277.847,433.364,6271.1,439.254,6258.279,439.254Z" transform="translate(-6257.127 -431.104)" fill="#fff" stroke="#c4badc" stroke-width="1"/></g></g><g transform="translate(6.923 3.716)"><path d="M6248.594,420.111h-.02c-7.423-.121-12.225-1.51-14.272-4.129a4.143,4.143,0,0,1-.951-3.268c.16-.868,1.645-4.892,15.24-4.919h.133c13.513,0,14.961,4.025,15.114,4.931a4.153,4.153,0,0,1-.955,3.255c-2.046,2.619-6.849,4.008-14.271,4.129ZM6235.6,413.2a2.086,2.086,0,0,0,.584,1.456c.937,1.118,3.793,3.014,12.406,3.157,8.761-.145,11.578-2.094,12.476-3.244a1.994,1.994,0,0,0,.513-1.375l0-.017-.013-.028v0c-.176-.364-1.853-3.043-12.837-3.043h-.132C6237.2,410.121,6235.7,412.974,6235.6,413.2Zm0-.006h0a.272.272,0,0,0,.007-.028c0,.005,0,.014-.007.027Zm.014-.066Zm25.947-.026Z" transform="translate(-6233.303 -407.796)" fill="#fff" stroke="#c4badc" stroke-width="1"/></g></g><g transform="translate(0 49.999)"><g transform="translate(1.344 9.709)"><path d="M6244.873,511.473h0c-16.876-.03-20.624-8.383-20.775-8.739a1.152,1.152,0,0,1,2.116-.91c.054.119,3.488,7.319,18.663,7.345a1.152,1.152,0,0,1,0,2.3Z" transform="translate(-6224.003 -501.132)" fill="#fff" stroke="#c4badc" stroke-width="1"/></g><g transform="translate(9.192 28.858)"><path d="M6250.26,544.319c-12.424,0-13.146-7.357-13.171-7.67,0-.03,0-.061,0-.09V534.2a1.152,1.152,0,0,1,2.3,0V536.5c.063.478.968,5.517,10.871,5.517a1.152,1.152,0,1,1,0,2.3Z" transform="translate(-6237.085 -533.052)" fill="#fff" stroke="#c4badc" stroke-width="1"/></g><g transform="translate(13.195 5.475)"><path d="M6252.777,503.175c-5.921,0-9.019-2.289-9.019-4.55s3.1-4.551,9.019-4.551,9.019,2.29,9.019,4.551S6258.7,503.175,6252.777,503.175Zm0-6.8c-4.166,0-6.715,1.455-6.715,2.247s2.549,2.247,6.715,2.247,6.714-1.454,6.714-2.247S6256.943,496.378,6252.777,496.378Z" transform="translate(-6243.759 -494.074)" fill="#fff" stroke="#c4badc" stroke-width="1"/></g><path d="M6244.13,517.638h-.357c-19.249-.124-20.594-10.168-20.642-10.6l-1.341-12.38a4.507,4.507,0,0,1,.715-2.956c4.393-6.663,20.551-6.747,21.315-6.747h.005c14.767-.226,19.888,4.127,21.624,6.745a4.488,4.488,0,0,1,.715,2.959l-1.34,12.377c-.048.434-1.394,10.478-20.642,10.6Zm-.29-30.38c-4.367,0-16.323,1.026-19.413,5.712a2.192,2.192,0,0,0-.348,1.441l1.34,12.376c.045.333,1.322,8.5,18.558,8.548,17.4-.049,18.548-8.467,18.558-8.552l1.34-12.373a2.178,2.178,0,0,0-.346-1.437c-1.188-1.793-5.473-5.941-19.687-5.715Z" transform="translate(-6221.763 -484.947)" fill="#fff" stroke="#c4badc" stroke-width="1"/><g transform="translate(21.062 9.713)"><path d="M6258.024,511.476a1.152,1.152,0,0,1,0-2.3c15.224-.026,18.63-7.273,18.663-7.346a1.152,1.152,0,0,1,2.116.911c-.151.356-3.9,8.709-20.775,8.739Z" transform="translate(-6256.872 -501.138)" fill="#fff" stroke="#c4badc" stroke-width="1"/></g><g transform="translate(20.909 28.858)"><path d="M6257.769,544.319a1.152,1.152,0,1,1,0-2.3c9.917,0,10.813-5.072,10.872-5.516v-2.3a1.152,1.152,0,0,1,2.3,0v2.356c0,.029,0,.06,0,.09C6270.915,536.963,6270.193,544.319,6257.769,544.319Z" transform="translate(-6256.617 -533.052)" fill="#fff" stroke="#c4badc" stroke-width="1"/></g><g transform="translate(2.133 17.697)"><path d="M6245.552,522.6c-12.817,0-19.568-5.89-19.848-6.141a1.151,1.151,0,0,1,1.53-1.72h0c.063.056,6.432,5.558,18.318,5.558a1.152,1.152,0,1,1,0,2.3Z" transform="translate(-6225.318 -514.447)" fill="#fff" stroke="#c4badc" stroke-width="1"/><g transform="translate(19.082 0.002)"><path d="M6258.279,522.6a1.152,1.152,0,1,1,0-2.3c11.885,0,18.254-5.5,18.317-5.558a1.151,1.151,0,0,1,1.531,1.721C6277.847,516.71,6271.1,522.6,6258.279,522.6Z" transform="translate(-6257.127 -514.45)" fill="#fff" stroke="#c4badc" stroke-width="1"/></g></g><g transform="translate(6.923 3.716)"><path d="M6248.594,503.457h-.02c-7.423-.121-12.225-1.511-14.272-4.129a4.143,4.143,0,0,1-.951-3.268c.16-.867,1.645-4.892,15.24-4.919h.131c13.515,0,14.963,4.025,15.116,4.931a4.155,4.155,0,0,1-.955,3.256c-2.046,2.618-6.849,4.008-14.271,4.129Zm-12.99-6.917a2.086,2.086,0,0,0,.584,1.456c.937,1.118,3.793,3.015,12.406,3.157,8.761-.145,11.577-2.094,12.476-3.244a2,2,0,0,0,.513-1.376l0-.017-.013-.028v0c-.176-.365-1.853-3.043-12.84-3.043h-.129C6237.2,493.467,6235.7,496.319,6235.6,496.54Zm0-.006h0c0-.011.005-.02.007-.028s0,.014-.007.028Zm.014-.066Zm25.947-.026Z" transform="translate(-6233.303 -491.141)" fill="#fff" stroke="#c4badc" stroke-width="1"/></g></g><g transform="translate(61.702 18.911)"><g transform="translate(1.344 9.708)"><path d="M6347.727,459.65h0c-16.877-.03-20.624-8.384-20.776-8.739a1.152,1.152,0,0,1,2.117-.91c.049.109,3.477,7.319,18.663,7.346a1.152,1.152,0,0,1,0,2.3Z" transform="translate(-6326.856 -449.308)" fill="#fff" stroke="#c4badc" stroke-width="1"/></g><g transform="translate(9.191 28.858)"><path d="M6353.113,492.5c-12.425,0-13.146-7.357-13.172-7.67,0-.03,0-.061,0-.091v-2.355a1.152,1.152,0,0,1,2.3,0v2.295c.063.477.968,5.517,10.872,5.517a1.152,1.152,0,0,1,0,2.3Z" transform="translate(-6339.938 -481.23)" fill="#fff" stroke="#c4badc" stroke-width="1"/></g><g transform="translate(13.194 5.476)"><path d="M6355.63,451.353c-5.921,0-9.019-2.289-9.019-4.55s3.1-4.55,9.019-4.55,9.019,2.289,9.019,4.55S6361.551,451.353,6355.63,451.353Zm0-6.8c-4.166,0-6.715,1.455-6.715,2.247s2.549,2.247,6.715,2.247,6.715-1.455,6.715-2.247S6359.8,444.556,6355.63,444.556Z" transform="translate(-6346.611 -442.253)" fill="#fff" stroke="#c4badc" stroke-width="1"/></g><path d="M6346.983,465.816h-.358c-19.249-.123-20.594-10.168-20.642-10.6l-1.341-12.38a4.5,4.5,0,0,1,.715-2.956c4.394-6.663,20.554-6.747,21.314-6.747h0c14.774-.228,19.888,4.127,21.624,6.745a4.486,4.486,0,0,1,.716,2.959l-1.34,12.376c-.049.434-1.393,10.479-20.643,10.6Zm-.29-30.38c-4.367,0-16.323,1.025-19.413,5.712a2.2,2.2,0,0,0-.349,1.44l1.341,12.376c.045.334,1.322,8.5,18.558,8.548,17.235-.048,18.513-8.214,18.559-8.563l1.338-12.36a2.178,2.178,0,0,0-.347-1.439c-1.188-1.792-5.49-5.932-19.686-5.714Z" transform="translate(-6324.617 -433.125)" fill="#fff" stroke="#c4badc" stroke-width="1"/><g transform="translate(21.062 9.714)"><path d="M6360.877,459.654a1.152,1.152,0,0,1,0-2.3c15.224-.026,18.631-7.273,18.664-7.346a1.151,1.151,0,0,1,2.115.91c-.151.356-3.9,8.709-20.774,8.739Z" transform="translate(-6359.725 -449.318)" fill="#fff" stroke="#c4badc" stroke-width="1"/></g><g transform="translate(20.908 28.858)"><path d="M6360.621,492.5a1.152,1.152,0,1,1,0-2.3c9.854,0,10.8-4.988,10.871-5.521v-2.29a1.152,1.152,0,0,1,2.3,0v2.355c0,.03,0,.061,0,.091C6373.768,485.141,6373.046,492.5,6360.621,492.5Z" transform="translate(-6359.469 -481.23)" fill="#fff" stroke="#c4badc" stroke-width="1"/></g><g transform="translate(2.133 17.697)"><path d="M6348.405,470.777c-12.816,0-19.567-5.89-19.848-6.141a1.151,1.151,0,0,1,1.531-1.721h0c.063.055,6.432,5.558,18.317,5.558a1.152,1.152,0,1,1,0,2.3Z" transform="translate(-6328.172 -462.625)" fill="#fff" stroke="#c4badc" stroke-width="1"/><g transform="translate(19.082 0.001)"><path d="M6361.132,470.778a1.152,1.152,0,1,1,0-2.3c11.886,0,18.255-5.5,18.317-5.558a1.151,1.151,0,0,1,1.531,1.72C6380.7,464.887,6373.949,470.778,6361.132,470.778Z" transform="translate(-6359.98 -462.627)" fill="#fff" stroke="#c4badc" stroke-width="1"/></g></g><g transform="translate(6.922 3.716)"><path d="M6351.447,451.635h-.019c-7.424-.121-12.225-1.51-14.272-4.129a4.137,4.137,0,0,1-.951-3.268c.16-.867,1.644-4.892,15.24-4.919h.134c13.514,0,14.96,4.025,15.113,4.931a4.147,4.147,0,0,1-.954,3.255c-2.047,2.619-6.849,4.009-14.271,4.129Zm-12.99-6.917a2.083,2.083,0,0,0,.584,1.456c.936,1.118,3.793,3.014,12.406,3.157,8.762-.146,11.578-2.095,12.476-3.244a2,2,0,0,0,.514-1.374c0-.007,0-.013,0-.017l-.013-.028h0c-.176-.364-1.853-3.044-12.836-3.044h-.133C6340.053,441.644,6338.555,444.5,6338.457,444.718Zm0-.005h0a.278.278,0,0,0,.007-.028c0,.005,0,.014-.007.028Zm.014-.031Zm0-.036Zm25.948-.026Z" transform="translate(-6336.155 -439.319)" fill="#fff" stroke="#c4badc" stroke-width="1"/></g></g><g transform="translate(0 99.491)"><g transform="translate(1.344 9.71)"><path d="M6244.873,593.974h0c-16.876-.031-20.624-8.383-20.775-8.739a1.152,1.152,0,0,1,2.116-.91c.054.118,3.488,7.318,18.664,7.345a1.152,1.152,0,0,1,0,2.3Z" transform="translate(-6224.003 -583.633)" fill="#fff" stroke="#c4badc" stroke-width="1"/></g><g transform="translate(9.192 28.858)"><path d="M6250.26,626.819c-12.424,0-13.146-7.357-13.171-7.67,0-.03,0-.061,0-.09V616.7a1.152,1.152,0,0,1,2.3,0V619c.063.478.968,5.517,10.871,5.517a1.152,1.152,0,1,1,0,2.3Z" transform="translate(-6237.085 -615.552)" fill="#fff" stroke="#c4badc" stroke-width="1"/></g><g transform="translate(13.195 5.476)"><path d="M6252.777,585.676c-5.921,0-9.019-2.289-9.019-4.551s3.1-4.55,9.019-4.55,9.019,2.29,9.019,4.55S6258.7,585.676,6252.777,585.676Zm0-6.8c-4.166,0-6.715,1.455-6.715,2.247s2.549,2.247,6.715,2.247,6.714-1.454,6.714-2.247S6256.943,578.879,6252.777,578.879Z" transform="translate(-6243.759 -576.575)" fill="#fff" stroke="#c4badc" stroke-width="1"/></g><path d="M6244.13,600.139h-.357c-19.249-.124-20.594-10.168-20.642-10.6l-1.341-12.38a4.507,4.507,0,0,1,.715-2.956c4.394-6.664,20.557-6.748,21.315-6.748h.005c14.79-.224,19.887,4.127,21.623,6.745a4.488,4.488,0,0,1,.716,2.959l-1.34,12.376c-.048.434-1.394,10.478-20.642,10.6Zm-.289-30.38c-4.366,0-16.324,1.026-19.414,5.712a2.195,2.195,0,0,0-.348,1.442l1.34,12.375c.045.334,1.322,8.5,18.558,8.548,17.4-.049,18.548-8.467,18.558-8.552l1.34-12.372a2.182,2.182,0,0,0-.346-1.439c-1.188-1.792-5.479-5.944-19.687-5.714Z" transform="translate(-6221.763 -567.447)" fill="#fff" stroke="#c4badc" stroke-width="1"/><g transform="translate(21.062 9.714)"><path d="M6258.024,593.977a1.152,1.152,0,0,1,0-2.3c15.225-.027,18.631-7.273,18.664-7.346a1.152,1.152,0,0,1,2.116.911c-.151.356-3.9,8.709-20.774,8.739Z" transform="translate(-6256.872 -583.64)" fill="#fff" stroke="#c4badc" stroke-width="1"/></g><g transform="translate(20.909 28.858)"><path d="M6257.769,626.819a1.152,1.152,0,1,1,0-2.3c9.917,0,10.813-5.072,10.872-5.516v-2.3a1.152,1.152,0,0,1,2.3,0v2.356c0,.029,0,.06,0,.09C6270.915,619.463,6270.193,626.819,6257.769,626.819Z" transform="translate(-6256.617 -615.552)" fill="#fff" stroke="#c4badc" stroke-width="1"/></g><g transform="translate(2.133 17.698)"><path d="M6245.552,605.1c-12.817,0-19.568-5.89-19.848-6.141a1.151,1.151,0,0,1,1.53-1.72h0c.063.056,6.432,5.558,18.318,5.558a1.152,1.152,0,1,1,0,2.3Z" transform="translate(-6225.318 -596.948)" fill="#fff" stroke="#c4badc" stroke-width="1"/><g transform="translate(19.082 0.002)"><path d="M6258.279,605.1a1.152,1.152,0,1,1,0-2.3c11.885,0,18.254-5.5,18.317-5.558a1.151,1.151,0,0,1,1.531,1.721C6277.847,599.211,6271.1,605.1,6258.279,605.1Z" transform="translate(-6257.127 -596.951)" fill="#fff" stroke="#c4badc" stroke-width="1"/></g></g><g transform="translate(6.923 3.716)"><path d="M6248.594,585.957h-.02c-7.423-.121-12.225-1.51-14.272-4.129a4.142,4.142,0,0,1-.951-3.268c.16-.867,1.643-4.892,15.24-4.919h.133c13.513,0,14.961,4.024,15.114,4.931a4.155,4.155,0,0,1-.954,3.256c-2.047,2.619-6.849,4.008-14.272,4.129Zm-12.99-6.916a2.085,2.085,0,0,0,.583,1.455c.937,1.119,3.793,3.015,12.407,3.157,8.612-.143,11.469-2.039,12.405-3.157a2.051,2.051,0,0,0,.579-1.481c-.092-.219-1.518-3.071-12.85-3.071h-.132C6237.2,575.967,6235.7,578.82,6235.6,579.041Zm0-.005h0c0-.011.005-.02.007-.028s0,.014-.007.028Zm25.965-.066a.207.207,0,0,0,.008.04V579A.175.175,0,0,0,6261.569,578.97Zm-25.951,0Z" transform="translate(-6233.303 -573.642)" fill="#fff" stroke="#c4badc" stroke-width="1"/></g></g></g><g transform="translate(343.389 86.811)"><g transform="translate(65.277 92.436)"><path d="M6449.986,752.872a1.5,1.5,0,0,1-1.066-.444l-27.565-27.82a1.5,1.5,0,0,1,.011-2.122l27.627-27.321a1.5,1.5,0,0,1,2.55.948,6.938,6.938,0,0,1,.058.81l.006,2.3c.008,2.656.015,5.4-.013,8.109q5.838-.016,11.676-.01c5.712,0,11.621,0,17.427-.035,4.394-.028,7.723-.79,10.478-2.4,3.416-1.992,5.867-5.009,7.949-9.782a1.5,1.5,0,0,1,2.864.768c-.081.713-.142,1.43-.2,2.146a38.546,38.546,0,0,1-.635,4.9c-3.163,14.539-10.869,25.292-22.9,31.96a40.027,40.027,0,0,1-19.631,5c-1.925-.007-3.85,0-5.775,0l-1.11,0q-.009,3.651,0,7.3v4.083a1.5,1.5,0,0,1-.873,1.362l-.24.11A1.5,1.5,0,0,1,6449.986,752.872Zm-25.443-29.309,24.186,24.41v-.795q0-3.726.005-7.451c0-2.073.768-2.845,2.818-2.849l1.285,0c1.931,0,3.86-.007,5.792,0a36.574,36.574,0,0,0,18.166-4.619c11.278-6.249,18.257-15.906,21.324-29.512a19.228,19.228,0,0,1-5.431,4.736c-3.226,1.882-7.03,2.773-11.97,2.805-5.816.038-11.728.04-17.447.035q-5.978,0-11.954.011a2.8,2.8,0,0,1-2.029-.711,2.762,2.762,0,0,1-.694-2.057c.029-2.594.024-5.234.017-7.8Z" transform="translate(-6420.921 -694.208)" fill="#fff"/></g><g transform="translate(0 47.871)"><path d="M6336.412,704.435a1.488,1.488,0,0,1-.773-.215l-.272-.161c-.225-.133-.45-.265-.669-.409a45.221,45.221,0,0,1-15.865-17.788,44.516,44.516,0,0,1-5.212-20.172,39.8,39.8,0,0,1,5.323-20.5l.93-1.6c.938-1.618,1.907-3.288,2.909-4.92-2.294-1.289-4.593-2.634-6.818-3.937l-2.188-1.279c-.2-.118-.4-.253-.647-.434-.107-.078-.229-.166-.375-.267a1.5,1.5,0,0,1,.469-2.68l37.778-10.1a1.5,1.5,0,0,1,1.837,1.065l10.033,37.911a1.5,1.5,0,0,1-.49,1.536l-.194.163a1.5,1.5,0,0,1-1.724.147l-9.708-5.68c-.341.569-.678,1.133-1.008,1.7l-2.75,4.721q-5.159,8.854-10.3,17.716c-2.379,4.109-3.473,7.444-3.544,10.814a16.438,16.438,0,0,0,3.988,11.145,3.2,3.2,0,0,1,.736,1.383,1.5,1.5,0,0,1-1.459,1.842Zm-19.059-72.36.124.073c2.313,1.353,4.7,2.753,7.074,4.079a2.7,2.7,0,0,1,1.425,1.619,2.745,2.745,0,0,1-.463,2.11c-1.043,1.689-2.062,3.444-3.046,5.142l-.934,1.606a36.843,36.843,0,0,0-4.913,18.975,41.6,41.6,0,0,0,4.889,18.832,42.618,42.618,0,0,0,9.913,12.9,19.246,19.246,0,0,1-1.273-7.414c.083-3.9,1.3-7.682,3.947-12.253q5.139-8.872,10.307-17.723l2.751-4.721c.4-.685.807-1.365,1.221-2.056l.567-.946a1.5,1.5,0,0,1,2.046-.527l8.141,4.764-8.808-33.28Zm5.918,6.886h0Zm-.2-.78Z" transform="translate(-6312.108 -619.921)" fill="#fff"/></g><g transform="translate(51.421 0)"><path d="M6462.321,602.125a1.5,1.5,0,0,1-.386-.051l-37.476-9.943a1.5,1.5,0,0,1-.431-2.709l.406-.266c.252-.167.449-.3.652-.415q1.17-.687,2.337-1.376c2.158-1.274,4.388-2.589,6.62-3.841-1.443-2.51-2.866-5.031-4.289-7.552l-.48-.851q-1.523-2.7-3.038-5.394c-2.059-3.662-4.187-7.448-6.31-11.153a20.886,20.886,0,0,0-7.094-7.873,16.725,16.725,0,0,0-12.788-1.948,3,3,0,0,1-.4.053,1.566,1.566,0,0,1-1.576-.872l-.11-.246a1.5,1.5,0,0,1,.744-1.98c.62-.284,1.236-.576,1.854-.868,1.358-.642,2.762-1.307,4.2-1.881,6.411-2.557,12.992-2.855,18.013-2.836a41.593,41.593,0,0,1,18.472,4.424,39.477,39.477,0,0,1,17.826,17.472c.462.891.974,1.79,1.469,2.66.436.764.885,1.554,1.311,2.353,2.184-1.275,4.417-2.533,6.578-3.751l2.369-1.338c.18-.1.365-.2.6-.322l.42-.221a1.5,1.5,0,0,1,2.154,1.713l-10.2,37.9A1.5,1.5,0,0,1,6462.321,602.125Zm-33.688-11.991,32.627,8.657,8.889-33.039-.252.143c-2.194,1.237-4.462,2.515-6.669,3.8a2.944,2.944,0,0,1-2.269.422,2.889,2.889,0,0,1-1.679-1.522c-.429-.813-.9-1.638-1.352-2.436-.509-.894-1.035-1.82-1.524-2.76a36.528,36.528,0,0,0-16.5-16.169,38.619,38.619,0,0,0-17.15-4.11c-4.528-.022-10.39.231-16.071,2.311a19.117,19.117,0,0,1,7.714,2.707,23.717,23.717,0,0,1,8.132,8.943c2.128,3.714,4.26,7.506,6.323,11.173q1.515,2.7,3.034,5.389l.48.851c1.463,2.591,2.926,5.183,4.41,7.76a2.455,2.455,0,0,1-1.014,3.742c-2.286,1.276-4.588,2.634-6.814,3.948Z" transform="translate(-6397.824 -540.123)" fill="#fff"/></g><g transform="translate(105.659 60.189)"><path d="M6503.57,683.344c-.833,0-1.663-.008-2.487-.017q-.823-.009-1.654-.014A1.5,1.5,0,0,1,6498,681.4a10.032,10.032,0,0,0,.192-6.181,17.713,17.713,0,0,0-1.423-2.948c-2.947-5.186-5.578-9.76-8.04-13.983a2.77,2.77,0,0,1-.413-2.137,2.836,2.836,0,0,1,1.461-1.667c7.82-4.458,15.747-9.015,23.562-13.543a2.757,2.757,0,0,1,2.147-.407A2.694,2.694,0,0,1,6517.07,642c.714,1.347,1.5,2.7,2.257,4.012a58.73,58.73,0,0,1,4.581,9.1c2.222,6.048,2.5,11.532.841,16.768-1.855,5.868-5.946,9.484-12.155,10.748A45.078,45.078,0,0,1,6503.57,683.344Zm-2.237-3.014a50.6,50.6,0,0,0,10.662-.645c5.134-1.044,8.37-3.895,9.894-8.714,1.448-4.578,1.187-9.428-.8-14.828a55.673,55.673,0,0,0-4.361-8.634c-.718-1.241-1.46-2.521-2.156-3.819-7.675,4.446-15.457,8.919-23.137,13.3,2.433,4.175,5.03,8.692,7.933,13.8a20.464,20.464,0,0,1,1.654,3.463A11.935,11.935,0,0,1,6501.333,680.33Z" transform="translate(-6488.235 -640.455)" fill="#fff"/></g><g transform="translate(30.163 9.785)"><path d="M6388.98,596.323a2.8,2.8,0,0,1-1.389-.433c-8.433-4.885-16.169-9.333-23.648-13.6a2.854,2.854,0,0,1-1.486-1.729,2.921,2.921,0,0,1,.432-2.176q.545-.95,1.08-1.9a63.3,63.3,0,0,1,7.748-11.6c3.875-4.294,8.062-6.9,12.8-7.969a15.285,15.285,0,0,1,15.882,5.21,57.8,57.8,0,0,1,6.988,10.98,1.5,1.5,0,0,1-.941,2.157,10.1,10.1,0,0,0-5.656,3.229,34.933,34.933,0,0,0-2.67,4.114l-.3.517c-2.175,3.7-4.412,7.573-6.838,11.843a2.466,2.466,0,0,1-1.475,1.292A1.993,1.993,0,0,1,6388.98,596.323Zm-23.422-16.561c7.305,4.165,14.858,8.507,23.07,13.263,2.333-4.1,4.5-7.845,6.6-11.426l.3-.513a37.561,37.561,0,0,1,2.911-4.464,11.777,11.777,0,0,1,5.44-3.707,48.3,48.3,0,0,0-5.75-8.827,12.328,12.328,0,0,0-12.957-4.251c-4.17.94-7.739,3.181-11.232,7.052a60.114,60.114,0,0,0-7.363,11.07Q6366.071,578.862,6365.559,579.762Z" transform="translate(-6362.387 -556.433)" fill="#fff"/></g><g transform="translate(23.46 101.329)"><path d="M6385.335,745.662h-.1c-1.442-.04-2.918-.052-4.345-.064-2.822-.025-5.741-.049-8.621-.285-6.486-.531-11.567-2.653-15.532-6.485-4.228-4.086-6-8.421-5.409-13.252a26.489,26.489,0,0,1,3.393-9.627c.77-1.4,1.554-2.759,2.385-4.2.372-.644.75-1.3,1.131-1.964a1.5,1.5,0,0,1,2.4-.272,10.816,10.816,0,0,0,8.735,3.574c3.217-.072,6.479-.059,9.632-.049,2.018.008,4.038.015,6.057,0a2.747,2.747,0,0,1,2.008.679,2.656,2.656,0,0,1,.686,1.971c-.032,9.572-.022,19.188-.009,27.333a2.66,2.66,0,0,1-.684,2.009A2.379,2.379,0,0,1,6385.335,745.662Zm-25.451-32.728-.184.318c-.823,1.423-1.6,2.767-2.353,4.139a23.309,23.309,0,0,0-3.045,8.545c-.473,3.888.963,7.3,4.516,10.734,3.447,3.331,7.925,5.18,13.693,5.653,2.771.226,5.633.25,8.4.274,1.256.01,2.55.022,3.835.05-.013-7.963-.021-17.3.008-26.6-1.92.011-3.841,0-5.761,0-3.137-.011-6.378-.023-9.554.047A13.756,13.756,0,0,1,6359.884,712.934Z" transform="translate(-6351.214 -709.033)" fill="#fff"/></g></g><g transform="translate(496.587 145.727)"><path d="M6567.482,649.967s44.094-36.214,45.559,19.132c.492,18.584,11.095,14.729,13.331,14.53,16.386-1.46,57.4-45.3,98.212-14.085,0,0-53.013,50.944-94.55.348C6607.213,642.093,6567.482,649.967,6567.482,649.967Z" transform="translate(-6567.482 -638.331)" fill="#482e59"/></g><g transform="translate(644.971 58.067)"><g transform="translate(0)"><path d="M6867.6,602a1.081,1.081,0,0,1-.274-.036c-.307-.08-30.874-8.342-45.142-36.044-10.17-19.747-9.782-44.312,1.154-73.015a1.086,1.086,0,0,1,1.388-.632c.351.128,35.231,13.23,48.327,44.634,7.918,18.987,6.416,40.676-4.465,64.46A1.087,1.087,0,0,1,6867.6,602Zm-42.623-107.291c-10.323,27.646-10.618,51.258-.875,70.195,12.471,24.236,37.87,33.146,42.9,34.7,10.263-22.868,11.629-43.673,4.055-61.849C6859.565,510.2,6830.712,497.086,6824.972,494.711Z" transform="translate(-6814.83 -492.207)" fill="#fff"/></g><g transform="translate(12.229 8.401)"><path d="M6875.751,607.6a1.081,1.081,0,0,1-.794-.346c-30.169-32.372-39.64-99.143-39.731-99.814a1.085,1.085,0,1,1,2.149-.3c.093.663,9.472,66.762,39.17,98.629a1.086,1.086,0,0,1-.794,1.826Z" transform="translate(-6835.215 -506.212)" fill="#fff"/></g><g transform="translate(18.575 12.102)"><path d="M6846.878,539.76a1.086,1.086,0,0,1-.844-1.768c10.688-13.233,11.136-24.445,11.139-24.556a1.085,1.085,0,0,1,2.17.058c-.013.484-.435,12.014-11.62,25.863A1.084,1.084,0,0,1,6846.878,539.76Z" transform="translate(-6845.793 -512.381)" fill="#fff"/></g><g transform="translate(23.626 21.603)"><path d="M6855.3,563.416a1.085,1.085,0,0,1-.586-2c16.609-10.631,16.83-31.9,16.83-32.113a1.086,1.086,0,0,1,1.085-1.084h0a1.085,1.085,0,0,1,1.084,1.085c0,.92-.2,22.659-17.83,33.941A1.086,1.086,0,0,1,6855.3,563.416Z" transform="translate(-6854.213 -528.219)" fill="#fff"/></g><g transform="translate(29.781 39.786)"><path d="M6865.56,592.672a1.086,1.086,0,0,1-.587-2c16.814-10.761,23.882-31.2,23.951-31.406a1.086,1.086,0,0,1,2.057.7c-.294.867-7.388,21.371-24.837,32.539A1.077,1.077,0,0,1,6865.56,592.672Z" transform="translate(-6864.473 -558.529)" fill="#fff"/></g><g transform="translate(38.088 58.47)"><path d="M6879.407,622.084a1.086,1.086,0,0,1-.587-2c16.772-10.735,21.618-29.4,21.665-29.589a1.085,1.085,0,0,1,2.105.529c-.2.8-5.109,19.694-22.6,30.888A1.078,1.078,0,0,1,6879.407,622.084Z" transform="translate(-6878.321 -589.674)" fill="#fff"/></g><g transform="translate(0.113 36.649)"><path d="M6834.992,562.623a1.1,1.1,0,0,1-.206-.02c-7.9-1.519-14.029-3.844-19.28-7.313a1.085,1.085,0,1,1,1.2-1.811c3.149,2.081,8.493,5.07,18.494,6.993a1.085,1.085,0,0,1-.2,2.151Z" transform="translate(-6815.019 -553.299)" fill="#fff"/></g><g transform="translate(1.277 54.701)"><path d="M6836.565,591.393a33.4,33.4,0,0,1-19.128-6.016,1.085,1.085,0,0,1,1.214-1.8A31.488,31.488,0,0,0,6841.3,588.9a1.085,1.085,0,0,1,.286,2.151A38.106,38.106,0,0,1,6836.565,591.393Z" transform="translate(-6816.959 -583.391)" fill="#fff"/></g><g transform="translate(9.2 75.668)"><path d="M6846.428,622.825a53.394,53.394,0,0,1-15.488-2.358,1.085,1.085,0,0,1,.625-2.079,50.022,50.022,0,0,0,21.376,1.83,1.085,1.085,0,1,1,.285,2.151A51.426,51.426,0,0,1,6846.428,622.825Z" transform="translate(-6830.167 -618.342)" fill="#fff"/></g><g transform="translate(28.45 95.225)"><path d="M6867.9,654.312a40.6,40.6,0,0,1-4.689-.288,1.085,1.085,0,0,1,.249-2.156,34.182,34.182,0,0,0,13.233-.893,1.085,1.085,0,0,1,.515,2.108A37.932,37.932,0,0,1,6867.9,654.312Z" transform="translate(-6862.254 -650.942)" fill="#fff"/></g></g><g transform="translate(713.529 96.704)"><g transform="translate(0 0)"><path d="M6932.722,647.549c-1.14,0-1.786-.034-1.829-.037a1.087,1.087,0,0,1-1.012-.963c-2.908-25.993,2.439-47.065,15.892-62.629,22.249-25.742,59.477-27.293,59.85-27.306h.038a1.085,1.085,0,0,1,1.083,1.035c1.424,30.682-5.88,54.14-21.709,69.722C6965.906,646.2,6939.8,647.549,6932.722,647.549Zm-.784-2.175c5.24.092,32.171-.436,51.591-19.568,15.171-14.946,22.266-37.47,21.094-66.957-6.195.464-37.7,3.905-57.22,26.5C6934.531,600.253,6929.33,620.445,6931.938,645.374Z" transform="translate(-6929.112 -556.613)" fill="#fff"/></g><g transform="translate(0.762 6.794)"><path d="M6931.47,652.046a1.086,1.086,0,0,1-.524-2.037c10.993-6.048,28.325-19.4,48.457-48.661a288.771,288.771,0,0,0,19.559-32.8,1.086,1.086,0,0,1,1.951.953c-.3.608-30.149,61.079-68.921,82.41A1.078,1.078,0,0,1,6931.47,652.046Z" transform="translate(-6930.383 -567.939)" fill="#fff"/></g><g transform="translate(50.347 4.773)"><path d="M7017.949,594.243a1.086,1.086,0,0,1-1.015-.7c-6.3-16.65-3.1-27.735-2.96-28.2a1.085,1.085,0,0,1,2.079.623h0c-.032.107-3.109,10.9,2.912,26.807a1.086,1.086,0,0,1-1.016,1.47Z" transform="translate(-7013.038 -564.57)" fill="#fff"/></g><g transform="translate(35.974 10.363)"><path d="M6998.155,612.846a1.081,1.081,0,0,1-.842-.4c-13.222-16.222-6.624-36.938-6.337-37.812a1.085,1.085,0,0,1,2.062.677c-.065.2-6.5,20.478,5.958,35.764a1.086,1.086,0,0,1-.841,1.771Z" transform="translate(-6989.079 -573.888)" fill="#fff"/></g><g transform="translate(19.581 23.508)"><path d="M6976.025,635.963a1.079,1.079,0,0,1-.842-.4c-13.088-16.06-13.423-37.753-13.431-38.669a1.085,1.085,0,0,1,1.076-1.094h.009a1.086,1.086,0,0,1,1.086,1.075c0,.217.347,21.86,12.941,37.317a1.085,1.085,0,0,1-.84,1.771Z" transform="translate(-6961.753 -595.8)" fill="#fff"/></g><g transform="translate(7.948 39.369)"><path d="M6955.081,660.05a1.083,1.083,0,0,1-.842-.4c-13.119-16.1-11.88-35.581-11.821-36.4a1.073,1.073,0,0,1,1.16-1,1.085,1.085,0,0,1,1,1.16c-.013.193-1.221,19.465,11.339,34.876a1.086,1.086,0,0,1-.841,1.771Z" transform="translate(-6942.362 -622.239)" fill="#fff"/></g><g transform="translate(51.74 37.413)"><path d="M7024.965,622.631a68.035,68.035,0,0,1-8.657-.594,1.086,1.086,0,0,1,.276-2.154c10.1,1.3,16.11.127,19.754-.866a1.085,1.085,0,1,1,.57,2.094A44.833,44.833,0,0,1,7024.965,622.631Z" transform="translate(-7015.36 -618.979)" fill="#fff"/></g><g transform="translate(41.228 52.115)"><path d="M7013.392,649.111a33.938,33.938,0,0,1-14.941-3.562,1.085,1.085,0,0,1,.943-1.954,31.493,31.493,0,0,0,23.178,2.016,1.086,1.086,0,1,1,.59,2.089A35.782,35.782,0,0,1,7013.392,649.111Z" transform="translate(-6997.837 -643.486)" fill="#fff"/></g><g transform="translate(29.776 66.597)"><path d="M7001.154,674.844h-.028a52.134,52.134,0,0,1-21.766-5.154,1.085,1.085,0,0,1,.944-1.954,50,50,0,0,0,20.877,4.938,1.085,1.085,0,0,1-.027,2.17Z" transform="translate(-6978.747 -667.626)" fill="#fff"/></g><g transform="translate(13.769 79.957)"><path d="M6965.8,697.192a1.162,1.162,0,0,1-.22-.022,36.615,36.615,0,0,1-13-5.267,1.085,1.085,0,1,1,1.149-1.842,34.179,34.179,0,0,0,12.291,4.982,1.086,1.086,0,0,1-.218,2.149Z" transform="translate(-6952.063 -689.897)" fill="#fff"/></g></g><g transform="translate(410.552)"><path d="M6434.259,446.877v-6.1a21.046,21.046,0,0,1-10.192-2.768l1.7-5.914a19.839,19.839,0,0,0,9.815,2.769c3.964,0,6.668-1.95,6.668-4.971,0-2.831-2.2-4.655-6.858-6.354-6.605-2.391-10.884-5.41-10.884-11.261,0-5.411,3.775-9.563,10.129-10.7v-6.166h5.159v5.851a20.12,20.12,0,0,1,8.682,2.076l-1.7,5.788a18.7,18.7,0,0,0-8.557-2.139c-4.4,0-5.977,2.265-5.977,4.4,0,2.58,2.265,4.027,7.612,6.165,7.046,2.643,10.192,6.04,10.192,11.639,0,5.348-3.712,10.066-10.632,11.2v6.48Z" transform="translate(-6424.066 -395.413)" fill="#c4badc"/></g><g transform="translate(443.244 29.031)"><path d="M6488.754,495.27v-6.1a21.056,21.056,0,0,1-10.193-2.768l1.7-5.914a19.846,19.846,0,0,0,9.815,2.769c3.963,0,6.668-1.95,6.668-4.971,0-2.831-2.2-4.655-6.857-6.354-6.606-2.391-10.884-5.41-10.884-11.261,0-5.41,3.775-9.563,10.129-10.7v-6.166h5.159v5.851a20.122,20.122,0,0,1,8.682,2.076l-1.7,5.788a18.708,18.708,0,0,0-8.557-2.139c-4.4,0-5.977,2.265-5.977,4.4,0,2.58,2.265,4.027,7.612,6.166,7.047,2.643,10.192,6.04,10.192,11.639,0,5.348-3.712,10.066-10.633,11.2v6.481Z" transform="translate(-6478.561 -443.806)" fill="#c4badc"/></g></svg>