<svg xmlns="http://www.w3.org/2000/svg" width="650.688" height="332.355" viewBox="0 0 650.688 332.355"><g transform="translate(0.753 0.751)"><g transform="translate(433.478 61.218)"><g transform="translate(0 26.064)"><path d="M7948.736,1135.7s5.492,12.907,31.775,12.954" transform="translate(-7946.57 -1120.051)" fill="none" stroke="#fff" stroke-linecap="round" stroke-linejoin="round" stroke-width="2" stroke-dasharray="1 5"/><path d="M7966.571,1179.218v3.8s.838,10.649,19.375,10.649" transform="translate(-7951.759 -1132.713)" fill="none" stroke="#fff" stroke-linecap="round" stroke-linejoin="round" stroke-width="2" stroke-dasharray="1 5"/><ellipse cx="12.677" cy="5.477" rx="12.677" ry="5.477" transform="translate(21.264 8.824)" fill="none" stroke-dasharray="1 5" stroke-linecap="round" stroke-linejoin="round" stroke-width="2" stroke="#fff"/><path d="M7979.375,1162.6c30.271,0,32-15.431,32-15.431l2.16-19.944a5.361,5.361,0,0,0-.855-3.543c-2.363-3.564-9.95-10.4-33.3-10.038,0,0-26.179-.014-32.808,10.038a5.377,5.377,0,0,0-.855,3.543l2.159,19.944s1.726,15.431,32,15.431" transform="translate(-7945.68 -1113.631)" fill="none" stroke="#fff" stroke-linecap="round" stroke-linejoin="round" stroke-width="2" stroke-dasharray="1 5"/><path d="M8025.322,1135.7s-5.49,12.907-31.773,12.954" transform="translate(-7959.607 -1120.051)" fill="none" stroke="#fff" stroke-linecap="round" stroke-linejoin="round" stroke-width="2" stroke-dasharray="1 5"/><path d="M8012.577,1179.218v3.8s-.838,10.649-19.376,10.649" transform="translate(-7959.506 -1132.713)" fill="none" stroke="#fff" stroke-linecap="round" stroke-linejoin="round" stroke-width="2" stroke-dasharray="1 5"/><g transform="translate(3.437 28.519)"><path d="M7950.527,1153.852s10.566,9.426,30.751,9.426" transform="translate(-7950.527 -1153.852)" fill="none" stroke="#fff" stroke-linecap="round" stroke-linejoin="round" stroke-width="2" stroke-dasharray="1 5"/><path d="M8024.647,1153.852s-10.565,9.426-30.751,9.426" transform="translate(-7963.146 -1153.852)" fill="none" stroke="#fff" stroke-linecap="round" stroke-linejoin="round" stroke-width="2" stroke-dasharray="1 5"/></g><path d="M7984.2,1138.212c24.9-.406,22.741-9.718,22.741-9.718s-.95-6.459-22.741-6.417c-21.653.042-22.741,6.417-22.741,6.417s-2.156,9.312,22.741,9.718" transform="translate(-7950.257 -1116.088)" fill="none" stroke="#fff" stroke-linecap="round" stroke-linejoin="round" stroke-width="2" stroke-dasharray="1 5"/></g><g transform="translate(73.786 52.127)"><path d="M8052.8,1172.454s5.491,12.907,31.775,12.954" transform="translate(-8050.63 -1156.808)" fill="none" stroke="#fff" stroke-linecap="round" stroke-linejoin="round" stroke-width="2" stroke-dasharray="1 5"/><path d="M8070.631,1215.975v3.8s.838,10.649,19.376,10.649" transform="translate(-8055.819 -1169.469)" fill="none" stroke="#fff" stroke-linecap="round" stroke-linejoin="round" stroke-width="2" stroke-dasharray="1 5"/><ellipse cx="12.677" cy="5.477" rx="12.677" ry="5.477" transform="translate(21.264 8.824)" fill="none" stroke-dasharray="1 5" stroke-linecap="round" stroke-linejoin="round" stroke-width="2" stroke="#fff"/><path d="M8083.438,1199.359c30.271,0,32-15.431,32-15.431l2.158-19.944a5.361,5.361,0,0,0-.854-3.543c-2.364-3.564-9.95-10.4-33.3-10.038,0,0-26.18-.014-32.809,10.038a5.387,5.387,0,0,0-.856,3.543l2.16,19.944s1.727,15.431,32,15.431" transform="translate(-8049.741 -1150.388)" fill="none" stroke="#fff" stroke-linecap="round" stroke-linejoin="round" stroke-width="2" stroke-dasharray="1 5"/><path d="M8129.385,1172.454s-5.492,12.907-31.775,12.954" transform="translate(-8063.668 -1156.808)" fill="none" stroke="#fff" stroke-linecap="round" stroke-linejoin="round" stroke-width="2" stroke-dasharray="1 5"/><path d="M8116.638,1215.975v3.8s-.838,10.649-19.376,10.649" transform="translate(-8063.567 -1169.469)" fill="none" stroke="#fff" stroke-linecap="round" stroke-linejoin="round" stroke-width="2" stroke-dasharray="1 5"/><g transform="translate(3.437 28.519)"><path d="M8054.588,1190.609s10.567,9.425,30.752,9.425" transform="translate(-8054.588 -1190.609)" fill="none" stroke="#fff" stroke-linecap="round" stroke-linejoin="round" stroke-width="2" stroke-dasharray="1 5"/><path d="M8128.708,1190.609s-10.566,9.425-30.751,9.425" transform="translate(-8067.207 -1190.609)" fill="none" stroke="#fff" stroke-linecap="round" stroke-linejoin="round" stroke-width="2" stroke-dasharray="1 5"/></g><path d="M8088.26,1174.969c24.9-.406,22.741-9.718,22.741-9.718s-.95-6.46-22.741-6.417c-21.653.042-22.74,6.417-22.74,6.417s-2.157,9.312,22.74,9.718" transform="translate(-8054.319 -1152.845)" fill="none" stroke="#fff" stroke-linecap="round" stroke-linejoin="round" stroke-width="2" stroke-dasharray="1 5"/></g><g transform="translate(0 97.392)"><path d="M7948.736,1236.293s5.492,12.907,31.775,12.954" transform="translate(-7946.57 -1220.647)" fill="none" stroke="#fff" stroke-linecap="round" stroke-linejoin="round" stroke-width="2" stroke-dasharray="1 5"/><path d="M7966.571,1279.814v3.8s.838,10.649,19.375,10.649" transform="translate(-7951.759 -1233.309)" fill="none" stroke="#fff" stroke-linecap="round" stroke-linejoin="round" stroke-width="2" stroke-dasharray="1 5"/><ellipse cx="12.677" cy="5.477" rx="12.677" ry="5.477" transform="translate(21.264 8.824)" fill="none" stroke-dasharray="1 5" stroke-linecap="round" stroke-linejoin="round" stroke-width="2" stroke="#fff"/><path d="M7979.375,1263.2c30.271,0,32-15.431,32-15.431l2.16-19.944a5.36,5.36,0,0,0-.855-3.542c-2.363-3.565-9.95-10.4-33.3-10.038,0,0-26.179-.014-32.808,10.038a5.376,5.376,0,0,0-.855,3.542l2.159,19.944s1.726,15.431,32,15.431" transform="translate(-7945.68 -1214.227)" fill="none" stroke="#fff" stroke-linecap="round" stroke-linejoin="round" stroke-width="2" stroke-dasharray="1 5"/><path d="M8025.322,1236.293s-5.49,12.907-31.773,12.954" transform="translate(-7959.607 -1220.647)" fill="none" stroke="#fff" stroke-linecap="round" stroke-linejoin="round" stroke-width="2" stroke-dasharray="1 5"/><path d="M8012.577,1279.814v3.8s-.838,10.649-19.376,10.649" transform="translate(-7959.506 -1233.309)" fill="none" stroke="#fff" stroke-linecap="round" stroke-linejoin="round" stroke-width="2" stroke-dasharray="1 5"/><g transform="translate(3.437 28.519)"><path d="M7950.527,1254.448s10.566,9.426,30.751,9.426" transform="translate(-7950.527 -1254.448)" fill="none" stroke="#fff" stroke-linecap="round" stroke-linejoin="round" stroke-width="2" stroke-dasharray="1 5"/><path d="M8024.647,1254.448s-10.565,9.426-30.751,9.426" transform="translate(-7963.146 -1254.448)" fill="none" stroke="#fff" stroke-linecap="round" stroke-linejoin="round" stroke-width="2" stroke-dasharray="1 5"/></g><path d="M7984.2,1238.807c24.9-.406,22.741-9.718,22.741-9.718s-.95-6.46-22.741-6.417c-21.653.042-22.741,6.417-22.741,6.417s-2.156,9.312,22.741,9.718" transform="translate(-7950.257 -1216.684)" fill="none" stroke="#fff" stroke-linecap="round" stroke-linejoin="round" stroke-width="2" stroke-dasharray="1 5"/></g><g transform="translate(73.786 127.868)"><path d="M8052.8,1279.273s5.491,12.907,31.775,12.954" transform="translate(-8050.63 -1263.627)" fill="none" stroke="#fff" stroke-linecap="round" stroke-linejoin="round" stroke-width="2" stroke-dasharray="1 5"/><path d="M8070.631,1322.794v3.8s.838,10.649,19.376,10.649" transform="translate(-8055.819 -1276.289)" fill="none" stroke="#fff" stroke-linecap="round" stroke-linejoin="round" stroke-width="2" stroke-dasharray="1 5"/><ellipse cx="12.677" cy="5.477" rx="12.677" ry="5.477" transform="translate(21.264 8.824)" fill="none" stroke-dasharray="1 5" stroke-linecap="round" stroke-linejoin="round" stroke-width="2" stroke="#fff"/><path d="M8083.438,1306.177c30.271,0,32-15.431,32-15.431l2.158-19.945a5.36,5.36,0,0,0-.854-3.542c-2.364-3.564-9.95-10.4-33.3-10.038,0,0-26.18-.014-32.809,10.038a5.386,5.386,0,0,0-.856,3.542l2.16,19.945s1.727,15.431,32,15.431" transform="translate(-8049.741 -1257.207)" fill="none" stroke="#fff" stroke-linecap="round" stroke-linejoin="round" stroke-width="2" stroke-dasharray="1 5"/><path d="M8129.385,1279.273s-5.492,12.907-31.775,12.954" transform="translate(-8063.668 -1263.627)" fill="none" stroke="#fff" stroke-linecap="round" stroke-linejoin="round" stroke-width="2" stroke-dasharray="1 5"/><path d="M8116.638,1322.794v3.8s-.838,10.649-19.376,10.649" transform="translate(-8063.567 -1276.289)" fill="none" stroke="#fff" stroke-linecap="round" stroke-linejoin="round" stroke-width="2" stroke-dasharray="1 5"/><g transform="translate(3.437 28.519)"><path d="M8054.588,1297.428s10.567,9.426,30.752,9.426" transform="translate(-8054.588 -1297.428)" fill="none" stroke="#fff" stroke-linecap="round" stroke-linejoin="round" stroke-width="2" stroke-dasharray="1 5"/><path d="M8128.708,1297.428s-10.566,9.426-30.751,9.426" transform="translate(-8067.207 -1297.428)" fill="none" stroke="#fff" stroke-linecap="round" stroke-linejoin="round" stroke-width="2" stroke-dasharray="1 5"/></g><path d="M8088.26,1281.788c24.9-.406,22.741-9.718,22.741-9.718s-.95-6.459-22.741-6.417c-21.653.042-22.74,6.417-22.74,6.417s-2.157,9.312,22.74,9.718" transform="translate(-8054.319 -1259.664)" fill="none" stroke="#fff" stroke-linecap="round" stroke-linejoin="round" stroke-width="2" stroke-dasharray="1 5"/></g><g transform="translate(147.572)"><path d="M8156.859,1098.94s5.491,12.907,31.774,12.954" transform="translate(-8154.692 -1083.293)" fill="none" stroke="#fff" stroke-linecap="round" stroke-linejoin="round" stroke-width="2" stroke-dasharray="1 5"/><path d="M8174.694,1142.461v3.8s.838,10.649,19.375,10.649" transform="translate(-8159.882 -1095.955)" fill="none" stroke="#fff" stroke-linecap="round" stroke-linejoin="round" stroke-width="2" stroke-dasharray="1 5"/><ellipse cx="12.677" cy="5.477" rx="12.677" ry="5.477" transform="translate(21.264 8.825)" fill="none" stroke-dasharray="1 5" stroke-linecap="round" stroke-linejoin="round" stroke-width="2" stroke="#fff"/><path d="M8187.5,1125.844c30.271,0,32-15.431,32-15.431l2.159-19.944a5.371,5.371,0,0,0-.855-3.542c-2.363-3.564-9.948-10.4-33.3-10.039,0,0-26.181-.013-32.808,10.039a5.38,5.38,0,0,0-.856,3.542l2.16,19.944s1.725,15.431,32,15.431" transform="translate(-8153.804 -1076.873)" fill="none" stroke="#fff" stroke-linecap="round" stroke-linejoin="round" stroke-width="2" stroke-dasharray="1 5"/><path d="M8233.446,1098.94s-5.491,12.907-31.776,12.954" transform="translate(-8167.729 -1083.293)" fill="none" stroke="#fff" stroke-linecap="round" stroke-linejoin="round" stroke-width="2" stroke-dasharray="1 5"/><path d="M8220.7,1142.461v3.8s-.839,10.649-19.374,10.649" transform="translate(-8167.629 -1095.955)" fill="none" stroke="#fff" stroke-linecap="round" stroke-linejoin="round" stroke-width="2" stroke-dasharray="1 5"/><g transform="translate(3.437 28.519)"><path d="M8158.65,1117.094s10.567,9.426,30.751,9.426" transform="translate(-8158.65 -1117.094)" fill="none" stroke="#fff" stroke-linecap="round" stroke-linejoin="round" stroke-width="2" stroke-dasharray="1 5"/><path d="M8232.77,1117.094s-10.564,9.426-30.751,9.426" transform="translate(-8171.269 -1117.094)" fill="none" stroke="#fff" stroke-linecap="round" stroke-linejoin="round" stroke-width="2" stroke-dasharray="1 5"/></g><path d="M8192.321,1101.453c24.9-.406,22.741-9.718,22.741-9.718s-.95-6.459-22.741-6.417c-21.654.043-22.741,6.417-22.741,6.417s-2.157,9.312,22.741,9.718" transform="translate(-8158.38 -1079.33)" fill="none" stroke="#fff" stroke-linecap="round" stroke-linejoin="round" stroke-width="2" stroke-dasharray="1 5"/></g><g transform="translate(147.572 75.741)"><path d="M8156.859,1205.759s5.491,12.907,31.774,12.954" transform="translate(-8154.692 -1190.112)" fill="none" stroke="#fff" stroke-linecap="round" stroke-linejoin="round" stroke-width="2" stroke-dasharray="1 5"/><path d="M8174.694,1249.28v3.8s.838,10.649,19.375,10.649" transform="translate(-8159.882 -1202.774)" fill="none" stroke="#fff" stroke-linecap="round" stroke-linejoin="round" stroke-width="2" stroke-dasharray="1 5"/><ellipse cx="12.677" cy="5.477" rx="12.677" ry="5.477" transform="translate(21.264 8.825)" fill="none" stroke-dasharray="1 5" stroke-linecap="round" stroke-linejoin="round" stroke-width="2" stroke="#fff"/><path d="M8187.5,1232.662c30.271,0,32-15.431,32-15.431l2.159-19.944a5.371,5.371,0,0,0-.855-3.542c-2.363-3.564-9.948-10.4-33.3-10.039,0,0-26.181-.014-32.808,10.039a5.379,5.379,0,0,0-.856,3.542l2.16,19.944s1.725,15.431,32,15.431" transform="translate(-8153.804 -1183.692)" fill="none" stroke="#fff" stroke-linecap="round" stroke-linejoin="round" stroke-width="2" stroke-dasharray="1 5"/><path d="M8233.446,1205.759s-5.491,12.907-31.776,12.954" transform="translate(-8167.729 -1190.112)" fill="none" stroke="#fff" stroke-linecap="round" stroke-linejoin="round" stroke-width="2" stroke-dasharray="1 5"/><path d="M8220.7,1249.28v3.8s-.839,10.649-19.374,10.649" transform="translate(-8167.629 -1202.774)" fill="none" stroke="#fff" stroke-linecap="round" stroke-linejoin="round" stroke-width="2" stroke-dasharray="1 5"/><g transform="translate(3.437 28.519)"><path d="M8158.65,1223.913s10.567,9.426,30.751,9.426" transform="translate(-8158.65 -1223.913)" fill="none" stroke="#fff" stroke-linecap="round" stroke-linejoin="round" stroke-width="2" stroke-dasharray="1 5"/><path d="M8232.77,1223.913s-10.564,9.426-30.751,9.426" transform="translate(-8171.269 -1223.913)" fill="none" stroke="#fff" stroke-linecap="round" stroke-linejoin="round" stroke-width="2" stroke-dasharray="1 5"/></g><path d="M8192.321,1208.273c24.9-.406,22.741-9.718,22.741-9.718s-.95-6.459-22.741-6.417c-21.654.042-22.741,6.417-22.741,6.417s-2.157,9.312,22.741,9.718" transform="translate(-8158.38 -1186.149)" fill="none" stroke="#fff" stroke-linecap="round" stroke-linejoin="round" stroke-width="2" stroke-dasharray="1 5"/></g><g transform="translate(0 170.335)"><path d="M7948.736,1339.166s5.492,12.907,31.775,12.954" transform="translate(-7946.57 -1323.519)" fill="none" stroke="#fff" stroke-linecap="round" stroke-linejoin="round" stroke-width="2" stroke-dasharray="1 5"/><path d="M7966.571,1382.687v3.8s.838,10.649,19.375,10.649" transform="translate(-7951.759 -1336.181)" fill="none" stroke="#fff" stroke-linecap="round" stroke-linejoin="round" stroke-width="2" stroke-dasharray="1 5"/><ellipse cx="12.677" cy="5.477" rx="12.677" ry="5.477" transform="translate(21.264 8.825)" fill="none" stroke-dasharray="1 5" stroke-linecap="round" stroke-linejoin="round" stroke-width="2" stroke="#fff"/><path d="M7979.375,1366.07c30.271,0,32-15.432,32-15.432l2.16-19.944a5.36,5.36,0,0,0-.855-3.542c-2.363-3.564-9.95-10.4-33.3-10.039,0,0-26.179-.014-32.808,10.039a5.375,5.375,0,0,0-.855,3.542l2.159,19.944s1.726,15.432,32,15.432" transform="translate(-7945.68 -1317.099)" fill="none" stroke="#fff" stroke-linecap="round" stroke-linejoin="round" stroke-width="2" stroke-dasharray="1 5"/><path d="M8025.322,1339.166s-5.49,12.907-31.773,12.954" transform="translate(-7959.607 -1323.519)" fill="none" stroke="#fff" stroke-linecap="round" stroke-linejoin="round" stroke-width="2" stroke-dasharray="1 5"/><path d="M8012.577,1382.687v3.8s-.838,10.649-19.376,10.649" transform="translate(-7959.506 -1336.181)" fill="none" stroke="#fff" stroke-linecap="round" stroke-linejoin="round" stroke-width="2" stroke-dasharray="1 5"/><g transform="translate(3.437 28.519)"><path d="M7950.527,1357.32s10.566,9.426,30.751,9.426" transform="translate(-7950.527 -1357.32)" fill="none" stroke="#fff" stroke-linecap="round" stroke-linejoin="round" stroke-width="2" stroke-dasharray="1 5"/><path d="M8024.647,1357.32s-10.565,9.426-30.751,9.426" transform="translate(-7963.146 -1357.32)" fill="none" stroke="#fff" stroke-linecap="round" stroke-linejoin="round" stroke-width="2" stroke-dasharray="1 5"/></g><path d="M7984.2,1341.68c24.9-.406,22.741-9.718,22.741-9.718s-.95-6.459-22.741-6.417c-21.653.043-22.741,6.417-22.741,6.417s-2.156,9.312,22.741,9.718" transform="translate(-7950.257 -1319.556)" fill="none" stroke="#fff" stroke-linecap="round" stroke-linejoin="round" stroke-width="2" stroke-dasharray="1 5"/></g><g transform="translate(73.786 200.811)"><path d="M8052.8,1382.146s5.491,12.907,31.775,12.954" transform="translate(-8050.63 -1366.499)" fill="none" stroke="#fff" stroke-linecap="round" stroke-linejoin="round" stroke-width="2" stroke-dasharray="1 5"/><path d="M8070.631,1425.667v3.8s.838,10.649,19.376,10.649" transform="translate(-8055.819 -1379.161)" fill="none" stroke="#fff" stroke-linecap="round" stroke-linejoin="round" stroke-width="2" stroke-dasharray="1 5"/><ellipse cx="12.677" cy="5.477" rx="12.677" ry="5.477" transform="translate(21.264 8.825)" fill="none" stroke-dasharray="1 5" stroke-linecap="round" stroke-linejoin="round" stroke-width="2" stroke="#fff"/><path d="M8083.438,1409.05c30.271,0,32-15.431,32-15.431l2.158-19.944a5.359,5.359,0,0,0-.854-3.542c-2.364-3.564-9.95-10.4-33.3-10.039,0,0-26.18-.014-32.809,10.039a5.385,5.385,0,0,0-.856,3.542l2.16,19.944s1.727,15.431,32,15.431" transform="translate(-8049.741 -1360.079)" fill="none" stroke="#fff" stroke-linecap="round" stroke-linejoin="round" stroke-width="2" stroke-dasharray="1 5"/><path d="M8129.385,1382.146s-5.492,12.907-31.775,12.954" transform="translate(-8063.668 -1366.499)" fill="none" stroke="#fff" stroke-linecap="round" stroke-linejoin="round" stroke-width="2" stroke-dasharray="1 5"/><path d="M8116.638,1425.667v3.8s-.838,10.649-19.376,10.649" transform="translate(-8063.567 -1379.161)" fill="none" stroke="#fff" stroke-linecap="round" stroke-linejoin="round" stroke-width="2" stroke-dasharray="1 5"/><g transform="translate(3.437 28.519)"><path d="M8054.588,1400.3s10.567,9.426,30.752,9.426" transform="translate(-8054.588 -1400.3)" fill="none" stroke="#fff" stroke-linecap="round" stroke-linejoin="round" stroke-width="2" stroke-dasharray="1 5"/><path d="M8128.708,1400.3s-10.566,9.426-30.751,9.426" transform="translate(-8067.207 -1400.3)" fill="none" stroke="#fff" stroke-linecap="round" stroke-linejoin="round" stroke-width="2" stroke-dasharray="1 5"/></g><path d="M8088.26,1384.66c24.9-.406,22.741-9.718,22.741-9.718s-.95-6.459-22.741-6.417c-21.653.043-22.74,6.417-22.74,6.417s-2.157,9.312,22.74,9.718" transform="translate(-8054.319 -1362.536)" fill="none" stroke="#fff" stroke-linecap="round" stroke-linejoin="round" stroke-width="2" stroke-dasharray="1 5"/></g></g><g transform="translate(73.786 52.126)"><path d="M7441.458,1039.577s5.492,12.907,31.775,12.954" transform="translate(-7439.291 -1023.93)" fill="none" stroke="#fff" stroke-linecap="round" stroke-linejoin="round" stroke-width="1.5"/><path d="M7459.293,1083.1v3.8s.838,10.649,19.375,10.649" transform="translate(-7444.48 -1036.592)" fill="none" stroke="#fff" stroke-linecap="round" stroke-linejoin="round" stroke-width="1.5"/><ellipse cx="12.677" cy="5.477" rx="12.677" ry="5.477" transform="translate(21.264 8.825)" stroke-width="1.5" stroke="#fff" stroke-linecap="round" stroke-linejoin="round" fill="none"/><path d="M7472.1,1066.481c30.271,0,32-15.431,32-15.431l2.16-19.944a5.359,5.359,0,0,0-.856-3.542c-2.362-3.564-9.95-10.4-33.3-10.039,0,0-26.179-.014-32.807,10.039a5.382,5.382,0,0,0-.856,3.542l2.161,19.944s1.725,15.431,32,15.431" transform="translate(-7438.402 -1017.51)" fill="none" stroke="#fff" stroke-linecap="round" stroke-linejoin="round" stroke-width="1.5"/><path d="M7518.045,1039.577s-5.491,12.907-31.774,12.954" transform="translate(-7452.33 -1023.93)" fill="none" stroke="#fff" stroke-linecap="round" stroke-linejoin="round" stroke-width="1.5"/><path d="M7505.3,1083.1v3.8s-.838,10.649-19.375,10.649" transform="translate(-7452.228 -1036.592)" fill="none" stroke="#fff" stroke-linecap="round" stroke-linejoin="round" stroke-width="1.5"/><g transform="translate(3.437 28.519)"><path d="M7443.25,1057.731s10.566,9.426,30.751,9.426" transform="translate(-7443.25 -1057.731)" fill="none" stroke="#fff" stroke-linecap="round" stroke-linejoin="round" stroke-width="1.5"/><path d="M7517.369,1057.731s-10.566,9.426-30.751,9.426" transform="translate(-7455.868 -1057.731)" fill="none" stroke="#fff" stroke-linecap="round" stroke-linejoin="round" stroke-width="1.5"/></g><path d="M7476.92,1042.091c24.9-.406,22.741-9.718,22.741-9.718s-.95-6.46-22.741-6.417c-21.654.042-22.74,6.417-22.74,6.417s-2.157,9.312,22.74,9.718" transform="translate(-7442.979 -1019.967)" fill="none" stroke="#fff" stroke-linecap="round" stroke-linejoin="round" stroke-width="1.5"/></g><g transform="translate(73.786 117.054)"><path d="M7441.458,1131.146s5.492,12.907,31.775,12.954" transform="translate(-7439.291 -1115.499)" fill="none" stroke="#fff" stroke-linecap="round" stroke-linejoin="round" stroke-width="1.5"/><path d="M7459.293,1174.667v3.8s.838,10.649,19.375,10.649" transform="translate(-7444.48 -1128.161)" fill="none" stroke="#fff" stroke-linecap="round" stroke-linejoin="round" stroke-width="1.5"/><ellipse cx="12.677" cy="5.477" rx="12.677" ry="5.477" transform="translate(21.264 8.825)" stroke-width="1.5" stroke="#fff" stroke-linecap="round" stroke-linejoin="round" fill="none"/><path d="M7472.1,1158.05c30.271,0,32-15.431,32-15.431l2.16-19.944a5.359,5.359,0,0,0-.856-3.543c-2.362-3.564-9.95-10.4-33.3-10.039,0,0-26.179-.014-32.807,10.039a5.382,5.382,0,0,0-.856,3.543l2.161,19.944s1.725,15.431,32,15.431" transform="translate(-7438.402 -1109.079)" fill="none" stroke="#fff" stroke-linecap="round" stroke-linejoin="round" stroke-width="1.5"/><path d="M7518.045,1131.146s-5.491,12.907-31.774,12.954" transform="translate(-7452.33 -1115.499)" fill="none" stroke="#fff" stroke-linecap="round" stroke-linejoin="round" stroke-width="1.5"/><path d="M7505.3,1174.667v3.8s-.838,10.649-19.375,10.649" transform="translate(-7452.228 -1128.161)" fill="none" stroke="#fff" stroke-linecap="round" stroke-linejoin="round" stroke-width="1.5"/><g transform="translate(3.437 28.519)"><path d="M7443.25,1149.3s10.566,9.426,30.751,9.426" transform="translate(-7443.25 -1149.3)" fill="none" stroke="#fff" stroke-linecap="round" stroke-linejoin="round" stroke-width="1.5"/><path d="M7517.369,1149.3s-10.566,9.426-30.751,9.426" transform="translate(-7455.868 -1149.3)" fill="none" stroke="#fff" stroke-linecap="round" stroke-linejoin="round" stroke-width="1.5"/></g><path d="M7476.92,1133.66c24.9-.406,22.741-9.718,22.741-9.718s-.95-6.459-22.741-6.417c-21.654.043-22.74,6.417-22.74,6.417s-2.157,9.312,22.74,9.718" transform="translate(-7442.979 -1111.536)" fill="none" stroke="#fff" stroke-linecap="round" stroke-linejoin="round" stroke-width="1.5"/></g><g transform="translate(147.572)"><path d="M7545.519,966.062s5.491,12.907,31.775,12.954" transform="translate(-7543.352 -950.416)" fill="none" stroke="#fff" stroke-linecap="round" stroke-linejoin="round" stroke-width="1.5"/><path d="M7563.354,1009.583v3.8s.838,10.65,19.376,10.65" transform="translate(-7548.542 -963.078)" fill="none" stroke="#fff" stroke-linecap="round" stroke-linejoin="round" stroke-width="1.5"/><ellipse cx="12.677" cy="5.477" rx="12.677" ry="5.477" transform="translate(21.265 8.824)" stroke-width="1.5" stroke="#fff" stroke-linecap="round" stroke-linejoin="round" fill="none"/><path d="M7576.158,992.967c30.271,0,32-15.431,32-15.431l2.16-19.945a5.372,5.372,0,0,0-.855-3.543c-2.364-3.564-9.95-10.4-33.3-10.038,0,0-26.179-.014-32.808,10.038a5.377,5.377,0,0,0-.856,3.543l2.16,19.945s1.725,15.431,32,15.431" transform="translate(-7542.463 -943.996)" fill="none" stroke="#fff" stroke-linecap="round" stroke-linejoin="round" stroke-width="1.5"/><path d="M7622.106,966.062s-5.492,12.907-31.775,12.954" transform="translate(-7556.39 -950.416)" fill="none" stroke="#fff" stroke-linecap="round" stroke-linejoin="round" stroke-width="1.5"/><path d="M7609.36,1009.583v3.8s-.838,10.65-19.376,10.65" transform="translate(-7556.289 -963.078)" fill="none" stroke="#fff" stroke-linecap="round" stroke-linejoin="round" stroke-width="1.5"/><g transform="translate(3.437 28.519)"><path d="M7547.31,984.217s10.567,9.426,30.751,9.426" transform="translate(-7547.31 -984.217)" fill="none" stroke="#fff" stroke-linecap="round" stroke-linejoin="round" stroke-width="1.5"/><path d="M7621.431,984.217s-10.566,9.426-30.75,9.426" transform="translate(-7559.929 -984.217)" fill="none" stroke="#fff" stroke-linecap="round" stroke-linejoin="round" stroke-width="1.5"/></g><path d="M7580.982,968.577c24.9-.406,22.74-9.718,22.74-9.718s-.949-6.46-22.74-6.417c-21.654.042-22.74,6.417-22.74,6.417s-2.157,9.312,22.74,9.718" transform="translate(-7547.041 -946.453)" fill="none" stroke="#fff" stroke-linecap="round" stroke-linejoin="round" stroke-width="1.5"/></g><g transform="translate(147.572 64.928)"><path d="M7545.519,1057.631s5.491,12.907,31.775,12.954" transform="translate(-7543.352 -1041.985)" fill="none" stroke="#fff" stroke-linecap="round" stroke-linejoin="round" stroke-width="1.5"/><path d="M7563.354,1101.152v3.8s.838,10.65,19.376,10.65" transform="translate(-7548.542 -1054.647)" fill="none" stroke="#fff" stroke-linecap="round" stroke-linejoin="round" stroke-width="1.5"/><ellipse cx="12.677" cy="5.477" rx="12.677" ry="5.477" transform="translate(21.265 8.824)" stroke-width="1.5" stroke="#fff" stroke-linecap="round" stroke-linejoin="round" fill="none"/><path d="M7576.158,1084.536c30.271,0,32-15.431,32-15.431l2.16-19.944a5.373,5.373,0,0,0-.855-3.543c-2.364-3.564-9.95-10.4-33.3-10.038,0,0-26.179-.014-32.808,10.038a5.378,5.378,0,0,0-.856,3.543l2.16,19.944s1.725,15.431,32,15.431" transform="translate(-7542.463 -1035.565)" fill="none" stroke="#fff" stroke-linecap="round" stroke-linejoin="round" stroke-width="1.5"/><path d="M7622.106,1057.631s-5.492,12.907-31.775,12.954" transform="translate(-7556.39 -1041.985)" fill="none" stroke="#fff" stroke-linecap="round" stroke-linejoin="round" stroke-width="1.5"/><path d="M7609.36,1101.152v3.8s-.838,10.65-19.376,10.65" transform="translate(-7556.289 -1054.647)" fill="none" stroke="#fff" stroke-linecap="round" stroke-linejoin="round" stroke-width="1.5"/><g transform="translate(3.437 28.519)"><path d="M7547.31,1075.786s10.567,9.426,30.751,9.426" transform="translate(-7547.31 -1075.786)" fill="none" stroke="#fff" stroke-linecap="round" stroke-linejoin="round" stroke-width="1.5"/><path d="M7621.431,1075.786s-10.566,9.426-30.75,9.426" transform="translate(-7559.929 -1075.786)" fill="none" stroke="#fff" stroke-linecap="round" stroke-linejoin="round" stroke-width="1.5"/></g><path d="M7580.982,1060.146c24.9-.406,22.74-9.718,22.74-9.718s-.949-6.459-22.74-6.417c-21.654.042-22.74,6.417-22.74,6.417s-2.157,9.312,22.74,9.718" transform="translate(-7547.041 -1038.022)" fill="none" stroke="#fff" stroke-linecap="round" stroke-linejoin="round" stroke-width="1.5"/></g><g transform="translate(0 151.507)"><path d="M7337.4,1179.735s5.491,12.907,31.774,12.954" transform="translate(-7335.229 -1164.088)" fill="none" stroke="#fff" stroke-linecap="round" stroke-linejoin="round" stroke-width="1.5"/><path d="M7355.23,1223.256v3.8s.838,10.649,19.376,10.649" transform="translate(-7340.418 -1176.75)" fill="none" stroke="#fff" stroke-linecap="round" stroke-linejoin="round" stroke-width="1.5"/><ellipse cx="12.677" cy="5.477" rx="12.677" ry="5.477" transform="translate(21.265 8.825)" stroke-width="1.5" stroke="#fff" stroke-linecap="round" stroke-linejoin="round" fill="none"/><path d="M7368.035,1206.639c30.271,0,32-15.431,32-15.431l2.16-19.944a5.362,5.362,0,0,0-.855-3.542c-2.363-3.564-9.95-10.4-33.3-10.039,0,0-26.178-.014-32.808,10.039a5.382,5.382,0,0,0-.856,3.542l2.16,19.944s1.727,15.431,32,15.431" transform="translate(-7334.34 -1157.668)" fill="none" stroke="#fff" stroke-linecap="round" stroke-linejoin="round" stroke-width="1.5"/><path d="M7413.983,1179.735s-5.492,12.907-31.775,12.954" transform="translate(-7348.267 -1164.088)" fill="none" stroke="#fff" stroke-linecap="round" stroke-linejoin="round" stroke-width="1.5"/><path d="M7401.237,1223.256v3.8s-.838,10.649-19.376,10.649" transform="translate(-7348.165 -1176.75)" fill="none" stroke="#fff" stroke-linecap="round" stroke-linejoin="round" stroke-width="1.5"/><g transform="translate(3.437 28.519)"><path d="M7339.188,1197.889s10.567,9.426,30.752,9.426" transform="translate(-7339.188 -1197.889)" fill="none" stroke="#fff" stroke-linecap="round" stroke-linejoin="round" stroke-width="1.5"/><path d="M7413.307,1197.889s-10.566,9.426-30.75,9.426" transform="translate(-7351.806 -1197.889)" fill="none" stroke="#fff" stroke-linecap="round" stroke-linejoin="round" stroke-width="1.5"/></g><path d="M7372.859,1182.249c24.9-.406,22.74-9.718,22.74-9.718s-.949-6.46-22.74-6.417c-21.654.042-22.741,6.417-22.741,6.417s-2.157,9.312,22.741,9.718" transform="translate(-7338.917 -1160.125)" fill="none" stroke="#fff" stroke-linecap="round" stroke-linejoin="round" stroke-width="1.5"/></g><g transform="translate(73.786 181.982)"><path d="M7441.458,1222.715s5.492,12.907,31.775,12.954" transform="translate(-7439.291 -1207.068)" fill="none" stroke="#fff" stroke-linecap="round" stroke-linejoin="round" stroke-width="1.5"/><path d="M7459.293,1266.236v3.8s.838,10.649,19.375,10.649" transform="translate(-7444.48 -1219.73)" fill="none" stroke="#fff" stroke-linecap="round" stroke-linejoin="round" stroke-width="1.5"/><ellipse cx="12.677" cy="5.477" rx="12.677" ry="5.477" transform="translate(21.264 8.825)" stroke-width="1.5" stroke="#fff" stroke-linecap="round" stroke-linejoin="round" fill="none"/><path d="M7472.1,1249.619c30.271,0,32-15.431,32-15.431l2.16-19.944a5.362,5.362,0,0,0-.856-3.543c-2.362-3.564-9.95-10.4-33.3-10.038,0,0-26.179-.014-32.807,10.038a5.386,5.386,0,0,0-.856,3.543l2.161,19.944s1.725,15.431,32,15.431" transform="translate(-7438.402 -1200.648)" fill="none" stroke="#fff" stroke-linecap="round" stroke-linejoin="round" stroke-width="1.5"/><path d="M7518.045,1222.715s-5.491,12.907-31.774,12.954" transform="translate(-7452.33 -1207.068)" fill="none" stroke="#fff" stroke-linecap="round" stroke-linejoin="round" stroke-width="1.5"/><path d="M7505.3,1266.236v3.8s-.838,10.649-19.375,10.649" transform="translate(-7452.228 -1219.73)" fill="none" stroke="#fff" stroke-linecap="round" stroke-linejoin="round" stroke-width="1.5"/><g transform="translate(3.437 28.519)"><path d="M7443.25,1240.869s10.566,9.426,30.751,9.426" transform="translate(-7443.25 -1240.869)" fill="none" stroke="#fff" stroke-linecap="round" stroke-linejoin="round" stroke-width="1.5"/><path d="M7517.369,1240.869s-10.566,9.426-30.751,9.426" transform="translate(-7455.868 -1240.869)" fill="none" stroke="#fff" stroke-linecap="round" stroke-linejoin="round" stroke-width="1.5"/></g><path d="M7476.92,1225.229c24.9-.406,22.741-9.718,22.741-9.718s-.95-6.459-22.741-6.417c-21.654.042-22.74,6.417-22.74,6.417s-2.157,9.312,22.74,9.718" transform="translate(-7442.979 -1203.105)" fill="none" stroke="#fff" stroke-linecap="round" stroke-linejoin="round" stroke-width="1.5"/></g><g transform="translate(170.866 77.381)"><path d="M7732.72,1323.634l47.236-46.713a11.25,11.25,0,0,1,.091,1.191c.011,6.071.053,12.143-.015,18.213-.017,1.575.458,2.145,2.084,2.14,16.754-.05,33.509.032,50.263-.079,6.688-.044,13.263-.989,19.19-4.447,7.071-4.124,11.392-10.45,14.647-17.914-.444,3.933-.553,7.938-1.389,11.785-5.017,23.064-16.925,41.327-37.9,52.949a65.218,65.218,0,0,1-32.313,8.219c-4.027-.016-8.056,0-12.084,0-2.086,0-2.254.155-2.259,2.313-.015,6.013-.007,12.026-.008,18.039v1.675l-.416.191Z" transform="translate(-7621.11 -1117.977)" fill="#c4badc" stroke="#fff" stroke-linecap="round" stroke-linejoin="round" stroke-width="2" stroke-dasharray="1 5"/><path d="M7575.315,1185.838l64.593-17.276c5.755,21.749,11.454,43.285,17.154,64.821l-.344.286-18.789-10.994c-1.039,1.742-2.058,3.417-3.044,5.111q-11.171,19.18-22.322,38.37c-3.537,6.108-6.251,12.521-6.4,19.72a30.5,30.5,0,0,0,7.413,20.753,2.939,2.939,0,0,1,.73,1.308c-.51-.308-1.03-.6-1.529-.925a74.552,74.552,0,0,1-26.239-29.421c-5.276-10.453-8.591-21.5-8.636-33.345a65.165,65.165,0,0,1,8.751-33.744c2.261-3.876,4.48-7.778,6.84-11.593.84-1.359.713-1.991-.716-2.792-5.337-2.986-10.6-6.108-15.883-9.188C7576.453,1186.673,7576.053,1186.352,7575.315,1185.838Z" transform="translate(-7575.315 -1086.712)" fill="#c4badc" stroke="#fff" stroke-linecap="round" stroke-linejoin="round" stroke-width="2"/><path d="M7742.944,1137.009c.777-.5,1.233-.824,1.714-1.106,5.225-3.064,10.418-6.187,15.707-9.138,1.5-.837,1.5-1.59.76-2.879-2.819-4.9-5.593-9.822-8.372-14.743-5.329-9.436-10.6-18.9-15.991-28.306-3.279-5.724-7.283-10.873-13.017-14.375-7.385-4.512-15.363-5.446-23.739-3.649a4.774,4.774,0,0,1-.5.054l-.19-.42c3.408-1.559,6.758-3.263,10.235-4.65,9.579-3.82,19.6-4.713,29.837-4.667a68.187,68.187,0,0,1,30.455,7.3,64.74,64.74,0,0,1,29.344,28.762c1.558,3,3.335,5.88,4.911,8.869.814,1.542,1.681,1.743,3.188.863,5.128-3,10.32-5.885,15.489-8.812.454-.257.92-.49,1.686-.9-5.83,21.67-11.59,43.075-17.435,64.8Z" transform="translate(-7611.39 -1053.128)" fill="#c4badc" stroke="#fff" stroke-linecap="round" stroke-linejoin="round" stroke-width="2"/><path d="M7846.686,1266.416c1.188-4.168,1.63-8.159.29-12.1a32.537,32.537,0,0,0-2.631-5.479q-6.82-12-13.762-23.935c-.847-1.452-.592-2.161.848-2.982q20.191-11.512,40.3-23.165c1.4-.811,2.079-.66,2.838.776,3.889,7.35,8.658,14.235,11.551,22.109,3.255,8.865,4.313,17.793,1.4,27.012-2.969,9.387-9.362,14.707-18.849,16.638C7861.458,1266.759,7854.171,1266.461,7846.686,1266.416Z" transform="translate(-7649.441 -1095.354)" fill="#c4badc" stroke="#fff" stroke-linecap="round" stroke-linejoin="round" stroke-width="2" stroke-dasharray="1 5"/><path d="M7720.159,1103.866c-4.413,1.162-8.294,2.976-11.023,6.407a69.939,69.939,0,0,0-5.288,8.214q-5.936,10.094-11.712,20.282c-.637,1.121-1.1,1.312-2.272.635q-20.187-11.694-40.449-23.256c-1.551-.884-1.707-1.676-.849-3.176,4.487-7.839,8.66-15.875,14.774-22.652,5.625-6.236,12.159-10.951,20.542-12.842,9.885-2.228,18.033.462,24.655,8.088C7713.283,1091.032,7716.672,1097.338,7720.159,1103.866Z" transform="translate(-7596.475 -1059.992)" fill="#c4badc" stroke="#fff" stroke-linecap="round" stroke-linejoin="round" stroke-width="2"/><path d="M7643.546,1297.47c4.743,5.135,10.305,7.081,16.878,6.935,8.924-.2,17.857-.021,26.786-.08,1.5-.01,2.029.38,2.023,1.958q-.078,23.372-.015,46.745c0,1.228-.165,1.982-1.667,1.94-7.345-.2-14.719.01-22.029-.589-9.346-.765-18.043-3.667-24.986-10.378-5.768-5.576-9.508-12.089-8.485-20.506a43.123,43.123,0,0,1,5.5-15.536C7639.454,1304.508,7641.46,1301.115,7643.546,1297.47Z" transform="translate(-7591.771 -1124.216)" fill="#c4badc" stroke="#fff" stroke-linecap="round" stroke-linejoin="round" stroke-width="2"/></g></g></svg>