<svg id="Layer_1" data-name="Layer 1" xmlns="http://www.w3.org/2000/svg" viewBox="0 0 49 49"><defs><style>.cls-1{stroke:#000;stroke-miterlimit:10;}</style></defs><title>Untitled-1</title><path class="cls-1" d="M48,.9H33.2a.94.94,0,0,0-1,1V7a.94.94,0,0,0,1,1h1.2V30.5L33,29.1a10.22,10.22,0,0,1-3-7.2V16.3h1.2a.94.94,0,0,0,1-1V10.8a.94.94,0,0,0-1-1H18.7a.94.94,0,0,0-1,1v4.6a.94.94,0,0,0,1,1h1.8V22a10.22,10.22,0,0,1-3,7.2l-1.9,1.9V8h1.2a.94.94,0,0,0,1-1V1.9a.94.94,0,0,0-1-1H2a1,1,0,0,0-1,1V7A.94.94,0,0,0,2,8H3.2V37.3a6.22,6.22,0,0,0,5.1,6.1,9.52,9.52,0,0,0,1.8,5,1,1,0,0,0,.8.5H39.6a1,1,0,0,0,.9-.6,11.7,11.7,0,0,0,1.1-4.9,6.22,6.22,0,0,0,5.1-6.1V8H48a.94.94,0,0,0,1-1V1.9A1,1,0,0,0,48,.9ZM19.7,14.4V11.8H30.4v2.6ZM3,6V2.9H15.8V6ZM8.4,41.4a4.29,4.29,0,0,1-3.2-4.1V8h8.4V33.1C11,35,8,39.8,8.4,41.4ZM39,46.9H11.5c-3.9-7.2,3.8-12.6,3.8-12.6h0l3.6-3.6a12,12,0,0,0,3.6-8.6V16.5h5.6v5.6a12.2,12.2,0,0,0,3.6,8.6s6.5,6.1,6.9,7.5v.1A11.18,11.18,0,0,1,39,46.9Zm5.8-9.5a4.29,4.29,0,0,1-3.2,4.1,12.4,12.4,0,0,0-3.3-7l-1.9-1.9V8h8.4ZM47,6H34.2V2.9H47Z" transform="translate(-0.5 -0.4)"/></svg>