<?xml version="1.0" encoding="utf-8"?>
<!-- Generator: Adobe Illustrator 22.1.0, SVG Export Plug-In . SVG Version: 6.00 Build 0)  -->
<svg version="1.1" id="Layer_1" xmlns="http://www.w3.org/2000/svg" xmlns:xlink="http://www.w3.org/1999/xlink" x="0px" y="0px"
	 viewBox="0 0 50 50" style="enable-background:new 0 0 50 50;" xml:space="preserve">
<style type="text/css">
	.st0{clip-path:url(#SVGID_2_);fill:#FFFFFF;}
</style>
<g>
	<defs>
		<rect id="SVGID_1_" width="50" height="50.1"/>
	</defs>
	<clipPath id="SVGID_2_">
		<use xlink:href="#SVGID_1_"  style="overflow:visible;"/>
	</clipPath>
	<path class="st0" d="M18.1,39c-3.1,0-5.6,2.5-5.6,5.6c0,3.1,2.5,5.6,5.6,5.6s5.6-2.5,5.6-5.6C23.7,41.5,21.2,39,18.1,39"/>
	<path class="st0" d="M39,39c-3.1,0-5.6,2.5-5.6,5.6c0,3.1,2.5,5.6,5.6,5.6c3.1,0,5.6-2.5,5.6-5.6C44.6,41.5,42.1,39,39,39"/>
	<path class="st0" d="M41.6,26l8.1-16.1c0.5-1,0.4-2-0.1-2.9C49,6.1,48,5.6,47,5.6H12.2l-0.7-2.3C10.8,1.4,8.9,0,7,0H0v5.6h6.3
		L15,32.9c0.6,1.9,2.5,3.3,4.5,3.3h25.1v-5.6H20.1l-0.9-2.8h19.4C39.9,27.8,41.1,27.1,41.6,26"/>
</g>
</svg>
