<?xml version="1.0" encoding="utf-8"?>
<!-- Generator: Adobe Illustrator 22.1.0, SVG Export Plug-In . SVG Version: 6.00 Build 0)  -->
<svg version="1.1" id="Layer_1" xmlns="http://www.w3.org/2000/svg" xmlns:xlink="http://www.w3.org/1999/xlink" x="0px" y="0px"
	 viewBox="0 0 50 50" style="enable-background:new 0 0 50 50;" xml:space="preserve">
<style type="text/css">
	.st0{enable-background:new    ;}
	.st1{fill:#FFFFFF;}
</style>
<g class="st0">
	<path class="st1" d="M45.5,10.5c1.1,0,2,0.4,2.8,1.1s1.1,1.7,1.1,2.7v23.4c0,1.1-0.4,2-1.1,2.8s-1.7,1.1-2.8,1.1H3.9
		c-1.1,0-2-0.4-2.8-1.1S0,38.9,0,37.8V14.4c0-1.1,0.4-2,1.1-2.7s1.7-1.1,2.8-1.1H45.5z M45.5,39.1c0.4,0,0.7-0.1,0.9-0.4
		s0.4-0.6,0.4-0.9V15.6L27.6,28.4c-0.4,0.3-0.8,0.5-1.3,0.6s-1,0.2-1.5,0.2c-0.5,0-1-0.1-1.5-0.2c-0.5-0.1-1-0.3-1.4-0.6L2.6,15.6
		v22.3c0,0.4,0.1,0.7,0.4,0.9s0.6,0.4,0.9,0.4H45.5z M45.5,13.1H3.9c-0.1,0-0.1,0-0.1,0c0,0-0.1,0-0.1,0l19.6,13.1
		c0.4,0.3,0.9,0.4,1.4,0.4s1.1-0.1,1.5-0.4l19.6-13.1c0,0-0.1,0-0.1,0C45.6,13.1,45.5,13.1,45.5,13.1z"/>
</g>
</svg>
