<svg id="Layer_1" data-name="Layer 1" xmlns="http://www.w3.org/2000/svg" xmlns:xlink="http://www.w3.org/1999/xlink" viewBox="0 0 144.57 32.02"><defs><style>.cls-1{fill:none;}.cls-2{clip-path:url(#clip-path);}.cls-3{fill:#f4e6da;}</style><clipPath id="clip-path" transform="translate(0 0)"><rect class="cls-1" width="144.57" height="32.02"/></clipPath></defs><title>entreervas-logo</title><g class="cls-2"><path class="cls-3" d="M55.61,9.18H56a2.7,2.7,0,0,0,2.7-2.7V.87h5.94c.44.12,4.19,1.24,4.19,4.53v.54h.88V0H53.29V.87h2.32Zm2.26-2.7a1.84,1.84,0,0,1-1.39,1.77V.87h1.39Zm11-3.82a6.44,6.44,0,0,0-2-1.79h2Z" transform="translate(0 0)"/><path class="cls-3" d="M88.42,15.84v-.55h-.88v.56c0,3.2-3.55,4.34-4.14,4.51h-6V14.75a2.7,2.7,0,0,0-2.69-2.7h-.44v8.31H72v.87H88.42V15.85ZM75.15,13a1.81,1.81,0,0,1,1.39,1.77v5.61H75.15Zm12.39,7.38h-2a6.43,6.43,0,0,0,2-1.77Z" transform="translate(0 0)"/><path class="cls-3" d="M68.87,15.84c0,3.21-3.55,4.35-4.14,4.52h-6V14.75a2.7,2.7,0,0,0-2.7-2.7h-.43v8.31H53.29v.87H69.75V15.29h-.88ZM56.48,13a1.82,1.82,0,0,1,1.39,1.77v5.61H56.48Zm12.39,7.38h-2a6.43,6.43,0,0,0,2-1.77Z" transform="translate(0 0)"/><path class="cls-3" d="M72,0V.87h2.32V9.18h.44a2.7,2.7,0,0,0,2.69-2.7V.87h6c.43.12,4.18,1.24,4.18,4.53v.54h.88V0Zm4.58,6.48a1.83,1.83,0,0,1-1.39,1.77V.87h1.39Zm9-5.61h2V2.66a6.33,6.33,0,0,0-2-1.79" transform="translate(0 0)"/><path class="cls-3" d="M85.27,8.68l.3-.4-.49-.12a4.76,4.76,0,0,0-3.41.44,2.28,2.28,0,0,0-.88,1.55H65.43a4.91,4.91,0,0,0,1.48-1.61l.21-.33-.38-.05a3.62,3.62,0,0,0-2.55.57,1.8,1.8,0,0,0-.55,1.42H55.57V11h6.56A2.74,2.74,0,0,0,64.7,13.2l.37,0v-.37A2.92,2.92,0,0,0,64.32,11H80.8a2.74,2.74,0,0,0,2.57,2.18l.37,0v-.37A2.87,2.87,0,0,0,83,11l-.26-.2a5.88,5.88,0,0,0,2.56-2.11M64.53,9.1a2.61,2.61,0,0,1,1.73-.48c-1,1.39-1.81,1.44-2.13,1.39a1.25,1.25,0,0,1,.4-.91m-.7,2.36a2,2,0,0,1,.53,1A2,2,0,0,1,62.8,11h.14a1.71,1.71,0,0,1,.89.44m19.2,1A2,2,0,0,1,81.46,11a1.83,1.83,0,0,1,1.05.48,2,2,0,0,1,.52,1m-1.61-2.2a1.61,1.61,0,0,1,.64-1.14,3.5,3.5,0,0,1,2.34-.42c-1.46,1.7-2.55,1.67-3,1.56" transform="translate(0 0)"/><path class="cls-3" d="M29.21,31.67V28.08a.26.26,0,0,1,.29-.29h.83c1.37,0,2,.38,2,1.47s-.59,1.46-1.95,1.46h-.47v1a.25.25,0,0,1-.28.28H29.5a.26.26,0,0,1-.29-.28m1.22-1.55c.79,0,1.18-.19,1.18-.87s-.39-.86-1.18-.86h-.56v1.73Z" transform="translate(0 0)"/><path class="cls-3" d="M37.27,31.6c.15.23.1.35-.19.35H37a.38.38,0,0,1-.34-.19l-.79-1.2H35v1.11a.26.26,0,0,1-.29.28h-.1a.25.25,0,0,1-.28-.28V28.08a.26.26,0,0,1,.28-.29h1c1.3,0,1.84.38,1.84,1.38a1.2,1.2,0,0,1-.94,1.29Zm-.51-2.4c0-.67-.4-.83-1.18-.83H35V30h.61c.78,0,1.18-.15,1.18-.81" transform="translate(0 0)"/><path class="cls-3" d="M39.41,29.88a2,2,0,1,1,3.93,0,2,2,0,1,1-3.93,0m3.26,0c0-1-.5-1.53-1.29-1.53s-1.31.56-1.31,1.53.49,1.53,1.3,1.53,1.3-.55,1.3-1.53" transform="translate(0 0)"/><path class="cls-3" d="M45.46,31.67V28.08a.26.26,0,0,1,.29-.29h.81c1.69,0,2.37.68,2.37,2.08S48.25,32,46.56,32h-.81a.26.26,0,0,1-.29-.28m1.12-.32c1.21,0,1.67-.45,1.67-1.48s-.46-1.48-1.67-1.48h-.45v3Z" transform="translate(0 0)"/><path class="cls-3" d="M51,30V28.08a.26.26,0,0,1,.29-.29h.09a.27.27,0,0,1,.29.29V30c0,1,.33,1.39,1.06,1.39S53.78,31,53.78,30V28.08a.27.27,0,0,1,.29-.29h.09a.27.27,0,0,1,.29.29V30c0,1.36-.59,2-1.73,2S51,31.38,51,30" transform="translate(0 0)"/><path class="cls-3" d="M57.51,31.67V28.4h-.84a.26.26,0,0,1-.28-.29v0a.26.26,0,0,1,.28-.29H59a.26.26,0,0,1,.29.29v0a.26.26,0,0,1-.29.29h-.83v3.27a.26.26,0,0,1-.29.28H57.8a.26.26,0,0,1-.29-.28" transform="translate(0 0)"/><path class="cls-3" d="M60.86,29.88a2,2,0,1,1,3.92,0,2,2,0,1,1-3.92,0m3.25,0c0-1-.5-1.53-1.29-1.53s-1.31.56-1.31,1.53.49,1.53,1.3,1.53,1.3-.55,1.3-1.53" transform="translate(0 0)"/><path class="cls-3" d="M66.72,31.18c-.1-.16,0-.26.15-.34l.07,0c.15-.06.22,0,.39.17a1.37,1.37,0,0,0,1,.45c.56,0,.88-.23.88-.63,0-1-2.42-.29-2.42-1.9,0-.69.59-1.17,1.42-1.17a1.75,1.75,0,0,1,1.48.73c.1.16,0,.27-.14.33l-.09,0c-.15,0-.21,0-.38-.16a1.16,1.16,0,0,0-.84-.34c-.5,0-.8.22-.8.58,0,1,2.43.28,2.43,1.9,0,.73-.62,1.21-1.53,1.21a1.92,1.92,0,0,1-1.65-.83" transform="translate(0 0)"/><path class="cls-3" d="M74.28,31.67V28.08a.26.26,0,0,1,.29-.29h.16a.4.4,0,0,1,.35.19l2,2.95V28.08a.27.27,0,0,1,.29-.29h.09a.26.26,0,0,1,.29.29v3.59a.26.26,0,0,1-.29.28h-.15a.39.39,0,0,1-.35-.18l-2-3v2.87a.25.25,0,0,1-.28.28h-.09a.26.26,0,0,1-.29-.28" transform="translate(0 0)"/><path class="cls-3" d="M83.32,32H83.2a.32.32,0,0,1-.33-.22l-.24-.59H80.56l-.24.59A.32.32,0,0,1,80,32h-.1c-.21,0-.31-.13-.23-.33L81.17,28a.32.32,0,0,1,.33-.23h.19A.32.32,0,0,1,82,28l1.51,3.6c.08.2,0,.33-.21.33m-.9-1.35-.82-2.07-.83,2.07Z" transform="translate(0 0)"/><path class="cls-3" d="M85.81,31.67V28.4H85a.27.27,0,0,1-.29-.29v0a.27.27,0,0,1,.29-.29h2.34a.26.26,0,0,1,.28.29v0a.26.26,0,0,1-.28.29h-.84v3.27a.25.25,0,0,1-.28.28h-.1a.25.25,0,0,1-.28-.28" transform="translate(0 0)"/><path class="cls-3" d="M89.53,30V28.08a.26.26,0,0,1,.28-.29h.09a.26.26,0,0,1,.29.29V30c0,1,.34,1.39,1.06,1.39S92.32,31,92.32,30V28.08a.26.26,0,0,1,.29-.29h.09a.26.26,0,0,1,.28.29V30c0,1.36-.58,2-1.73,2s-1.72-.63-1.72-2" transform="translate(0 0)"/><path class="cls-3" d="M98.15,31.6c.15.23.1.35-.19.35h-.12a.39.39,0,0,1-.35-.19l-.79-1.2h-.84v1.11a.26.26,0,0,1-.29.28h-.1a.25.25,0,0,1-.28-.28V28.08a.26.26,0,0,1,.28-.29h1c1.3,0,1.84.38,1.84,1.38a1.19,1.19,0,0,1-.94,1.29Zm-.51-2.4c0-.67-.4-.83-1.18-.83h-.61V30h.61c.78,0,1.18-.15,1.18-.81" transform="translate(0 0)"/><path class="cls-3" d="M103.58,32h-.11a.35.35,0,0,1-.34-.22l-.23-.59h-2.08l-.23.59a.33.33,0,0,1-.34.22h-.1c-.21,0-.3-.13-.22-.33l1.5-3.6a.34.34,0,0,1,.34-.23H102a.32.32,0,0,1,.33.23l1.51,3.6c.08.2,0,.33-.21.33m-.89-1.35-.83-2.07L101,30.6Z" transform="translate(0 0)"/><path class="cls-3" d="M105.69,31.67V28.08a.27.27,0,0,1,.29-.29h.09a.27.27,0,0,1,.29.29v3.59a.26.26,0,0,1-.29.28H106a.26.26,0,0,1-.29-.28" transform="translate(0 0)"/><path class="cls-3" d="M108.43,31.18c-.09-.16,0-.26.16-.34l.06,0c.15-.06.22,0,.39.17a1.41,1.41,0,0,0,1,.45c.55,0,.88-.23.88-.63,0-1-2.42-.29-2.42-1.9A1.25,1.25,0,0,1,110,27.73a1.77,1.77,0,0,1,1.49.73c.09.16,0,.27-.14.33l-.1,0c-.14,0-.21,0-.38-.16a1.14,1.14,0,0,0-.83-.34c-.5,0-.81.22-.81.58,0,1,2.43.28,2.43,1.9,0,.73-.61,1.21-1.53,1.21a1.92,1.92,0,0,1-1.65-.83" transform="translate(0 0)"/><path class="cls-3" d="M0,14.12v-7a.51.51,0,0,1,.56-.57H4.74a.52.52,0,0,1,.57.57v0a.52.52,0,0,1-.57.57H1.3V10H4.54a.51.51,0,0,1,.56.56h0a.5.5,0,0,1-.56.55H1.3V13.5H4.74a.52.52,0,0,1,.57.57v0a.52.52,0,0,1-.57.57H.56A.51.51,0,0,1,0,14.12" transform="translate(0 0)"/><path class="cls-3" d="M9.65,14.12v-7a.52.52,0,0,1,.57-.57h.31a.75.75,0,0,1,.69.36l3.94,5.78V7.11a.52.52,0,0,1,.57-.57h.18a.52.52,0,0,1,.56.57v7a.52.52,0,0,1-.56.57h-.3a.75.75,0,0,1-.68-.36L11,8.51v5.61a.52.52,0,0,1-.57.57h-.17a.52.52,0,0,1-.57-.57" transform="translate(0 0)"/><path class="cls-3" d="M22.8,14.12V7.73H21.16a.51.51,0,0,1-.56-.57v0a.51.51,0,0,1,.56-.57h4.58a.51.51,0,0,1,.56.57v0a.51.51,0,0,1-.56.57H24.11v6.39a.52.52,0,0,1-.57.57h-.17a.52.52,0,0,1-.57-.57" transform="translate(0 0)"/><path class="cls-3" d="M36.21,14c.31.45.2.68-.36.68h-.24a.75.75,0,0,1-.68-.37L33.38,12H31.74v2.16a.51.51,0,0,1-.57.56H31a.51.51,0,0,1-.56-.56v-7A.51.51,0,0,1,31,6.54h2c2.53,0,3.6.73,3.6,2.69a2.34,2.34,0,0,1-1.85,2.53Zm-1-4.71c0-1.31-.77-1.62-2.31-1.62H31.72v3.2h1.19c1.54,0,2.31-.28,2.31-1.58" transform="translate(0 0)"/><path class="cls-3" d="M40.91,14.12v-7a.51.51,0,0,1,.56-.57h4.18a.51.51,0,0,1,.56.57v0a.51.51,0,0,1-.56.57H42.21V10h3.24a.51.51,0,0,1,.56.56h0a.5.5,0,0,1-.56.55H42.21V13.5h3.44a.51.51,0,0,1,.56.57v0a.51.51,0,0,1-.56.57H41.47a.51.51,0,0,1-.56-.57" transform="translate(0 0)"/><path class="cls-3" d="M97.78,14.13v-7a.51.51,0,0,1,.56-.56h4.18a.51.51,0,0,1,.57.56v.06a.51.51,0,0,1-.57.56H99.08V10h3.24a.51.51,0,0,1,.56.56v0a.5.5,0,0,1-.56.55H99.08v2.38h3.44a.51.51,0,0,1,.57.56v.06a.51.51,0,0,1-.57.56H98.34a.51.51,0,0,1-.56-.56" transform="translate(0 0)"/><path class="cls-3" d="M113.22,14c.31.45.21.69-.36.69h-.24a.75.75,0,0,1-.68-.37L110.39,12h-1.64v2.16a.51.51,0,0,1-.56.56H108a.51.51,0,0,1-.57-.56v-7a.51.51,0,0,1,.57-.56h2c2.53,0,3.6.73,3.6,2.69a2.33,2.33,0,0,1-1.84,2.52Zm-1-4.71c0-1.3-.77-1.62-2.31-1.62h-1.18v3.21h1.18c1.54,0,2.31-.28,2.31-1.59" transform="translate(0 0)"/><path class="cls-3" d="M120.17,14.25l-2.87-7c-.16-.38,0-.65.44-.65H118a.63.63,0,0,1,.64.44L121,13.17,123.46,7a.63.63,0,0,1,.64-.44h.25c.42,0,.6.27.44.65l-2.88,7.05a.66.66,0,0,1-.65.44h-.44a.65.65,0,0,1-.65-.44" transform="translate(0 0)"/><path class="cls-3" d="M134.35,14.69h-.22a.67.67,0,0,1-.66-.44L133,13.09H129l-.46,1.16a.64.64,0,0,1-.65.44h-.2c-.42,0-.6-.27-.44-.65l3-7a.63.63,0,0,1,.65-.44h.36a.63.63,0,0,1,.65.44l3,7c.15.38,0,.65-.42.65m-1.75-2.64L131,8l-1.61,4.06Z" transform="translate(0 0)"/><path class="cls-3" d="M138.35,13.17c-.19-.31-.09-.5.3-.66l.13,0c.29-.12.42,0,.76.33a2.72,2.72,0,0,0,2,.88c1.08,0,1.72-.46,1.72-1.23,0-1.91-4.74-.58-4.74-3.72,0-1.35,1.14-2.29,2.77-2.29a3.48,3.48,0,0,1,2.91,1.42c.18.32.09.54-.27.65l-.19.06c-.29.08-.42,0-.75-.32a2.24,2.24,0,0,0-1.64-.66c-1,0-1.57.43-1.57,1.14,0,2,4.76.54,4.76,3.72,0,1.42-1.2,2.36-3,2.36a3.76,3.76,0,0,1-3.23-1.63" transform="translate(0 0)"/></g></svg>