<svg xmlns="http://www.w3.org/2000/svg" width="72" height="21.818" viewBox="0 0 72 21.818">
  <path id="LOGO_DOMA" data-name="LOGO DOMA" d="M68.214,30.924c-.767,0-1.165-.656-1.165-1.87,0-3.23,2.836-7.057,5.069-7.057a.794.794,0,0,1,.908.912c0,1.847-2.482,8.014-4.812,8.014m-36.74.377c-2.4,0-3.585-2.06-3.585-5.2a11.318,11.318,0,0,1,1.2-5.02A9.255,9.255,0,0,0,37,25.829c-1.083,3.278-3.06,5.472-5.523,5.472m3.368-17.565c1.688,0,3.062,1.449,3.062,6.029a20.851,20.851,0,0,1-.431,4.291c-3.357-.165-5.6-3.318-5.6-6.319,0-1.976.975-4,2.969-4M16.81,26.357c-.842,2.6-2.442,4.567-3.66,4.567-.784,0-1.223-.811-1.223-2.237,0-3.331,2.393-6.862,5.123-6.862a2.8,2.8,0,0,1,1.123.227Zm62.814.106c-.235,0-.346.075-.554.6-.9,2.251-2.194,3.863-3.319,3.863-.487,0-.793-.306-.793-1.05,0-1.626,1.467-4.838,1.467-7.053,0-1.967-1.055-2.928-3.474-2.928-4.165,0-7.157,2.76-8.783,6.605-.793,1.878-1.44,4.426-2.836,4.426-.439,0-.647-.248-.647-.811,0-1.643,1.817-5.6,1.817-7.726a2.327,2.327,0,0,0-2.473-2.494c-1.68,0-3.615,1.305-4.873,3.1.143-1.792-.9-3.1-2.509-3.1-1.572,0-3.417,1.252-4.58,2.958a2.665,2.665,0,0,0-2.581-2.958c-1.17,0-2.025.806-3.168,1.909-.262.254-.549.53-.869.8a18.04,18.04,0,0,0,.244-2.97c0-6.007-2.938-8.023-6.386-8.023-4.05,0-7,2.778-7,6.353A6.536,6.536,0,0,0,28.4,19.03a3.179,3.179,0,0,0-1.015-.152c-.536,0-.811.106-1.338,1.13a16.066,16.066,0,0,0-1.377,4.22,10.033,10.033,0,0,1-.75,3.074c-1.032,2.284-2.186,3.622-3.115,3.622-.6,0-.869-.563-.869-1.511a28.575,28.575,0,0,1,1.533-7c1.187-3.854,2.73-7.549,2.73-8.165,0-.439-.815-.687-1.852-.687-.855,0-1.538.168-1.75.837l-1.8,5.689a6.749,6.749,0,0,0-1.673-.2,8.76,8.76,0,0,0-8.646,8.833c0,2.875,1.418,4.59,3.412,4.59,1.841,0,3.638-1.472,4.773-3.474.019,2.071,1.038,3.341,2.738,3.341,1.935,0,4.014-1.743,5.3-4.287a6.272,6.272,0,0,0,6.376,4.531c4.591,0,8.359-3.655,9.884-8.734a11.3,11.3,0,0,0,1.5-1.221c.62-.576,1.046-.966,1.467-.966.386,0,.612.328.612.762,0,1.4-2.353,8.178-2.353,9.228,0,.452.434.753,1.6.753,1.117,0,1.808-.275,1.919-.882.058-.315,1.006-4.421,1.578-5.958.793-2.126,2.521-3.9,3.691-3.9a.722.722,0,0,1,.758.815c0,1.462-2.309,8.072-2.309,9.108,0,.452.434.753,1.6.753,1.117,0,1.808-.275,1.919-.882.058-.319,1.015-4.421,1.617-6.038.762-2.047,2.358-3.823,3.527-3.823.5,0,.758.328.758.851,0,1.351-1.737,5.285-1.737,7.363a2.506,2.506,0,0,0,2.619,2.663c1.53,0,2.921-1.079,4.01-2.745a3.264,3.264,0,0,0,3.231,2.745c1.9,0,3.684-1.472,4.818-3.474.019,2.071,1.035,3.341,2.7,3.341,2.34,0,4.861-2.556,5.9-5.83a1.756,1.756,0,0,0,.093-.408c0-.292-.448-.492-.851-.483" transform="translate(-8.475 -11.609)" fill="#bcbcbc"/>
</svg>
