<?xml version="1.0" encoding="utf-8"?>
<!-- Generator: Adobe Illustrator 22.1.0, SVG Export Plug-In . SVG Version: 6.00 Build 0)  -->
<svg version="1.1" id="Layer_1" xmlns="http://www.w3.org/2000/svg" xmlns:xlink="http://www.w3.org/1999/xlink" x="0px" y="0px"
	 viewBox="0 0 50 50" style="enable-background:new 0 0 50 50;" xml:space="preserve">
<style type="text/css">
	.st0{enable-background:new    ;}
	.st1{fill:#FFFFFF;}
</style>
<g class="st0">
	<path class="st1" d="M24.5,49.9c-0.2-0.1-0.3-0.2-0.4-0.3c0,0-0.3-0.3-0.7-0.9c-0.4-0.5-0.9-1.3-1.6-2.3c-0.7-1-1.4-2.1-2.2-3.4
		c-0.8-1.3-1.7-2.8-2.5-4.4c-0.5-0.9-1-1.9-1.4-2.8c-0.5-0.9-0.9-1.9-1.3-2.8c-0.4-0.9-0.8-1.8-1.1-2.7c-0.4-0.9-0.7-1.8-1-2.7
		c-0.4-1.1-0.7-2.2-1-3.3c-0.3-1.1-0.5-2.1-0.7-3.2c-0.2-1-0.3-2.1-0.4-3.1C10.1,17,10,16,10,15c0-2.1,0.4-4,1.2-5.8
		C12,7.4,13,5.8,14.4,4.4C15.8,3,17.3,2,19.2,1.2C21,0.4,22.9,0,25,0c2.1,0,4,0.4,5.8,1.2C32.7,2,34.2,3,35.6,4.4
		c1.4,1.4,2.4,3,3.2,4.8C39.6,11,40,12.9,40,15c0,1,0,1.9-0.1,2.9c-0.1,1-0.2,2-0.4,3.1c-0.2,1-0.4,2.1-0.7,3.2
		c-0.3,1.1-0.6,2.2-1,3.3c-0.3,0.9-0.6,1.8-1,2.7c-0.3,0.9-0.7,1.8-1.1,2.7c-0.4,0.9-0.8,1.9-1.3,2.8c-0.5,0.9-0.9,1.9-1.4,2.8
		c-0.9,1.6-1.7,3.1-2.5,4.4c-0.8,1.3-1.6,2.5-2.2,3.4c-0.7,1-1.2,1.7-1.6,2.3c-0.4,0.5-0.6,0.8-0.7,0.9c-0.1,0.1-0.3,0.3-0.4,0.3
		C25.4,50,25.2,50,25,50S24.6,50,24.5,49.9z M20.1,3.5c-1.5,0.7-2.8,1.5-4,2.7c-1.1,1.1-2,2.5-2.7,4c-0.7,1.5-1,3.1-1,4.9
		c0,2,0.2,4.1,0.6,6.1s0.9,4,1.6,6c0.7,1.9,1.4,3.8,2.2,5.5c0.8,1.7,1.6,3.3,2.4,4.7c0.6,1.1,1.1,2.1,1.7,3c0.6,0.9,1.1,1.8,1.6,2.6
		c0.5,0.8,1,1.5,1.4,2.1c0.4,0.6,0.8,1.2,1.1,1.6c0.3-0.4,0.7-1,1.1-1.6c0.4-0.6,0.9-1.3,1.4-2.1c0.5-0.8,1-1.7,1.6-2.6
		c0.6-0.9,1.1-1.9,1.7-3c0.8-1.4,1.5-3,2.3-4.8c0.8-1.7,1.5-3.6,2.2-5.5c0.6-1.9,1.2-3.9,1.6-6s0.6-4.1,0.6-6.1c0-1.7-0.3-3.3-1-4.9
		c-0.7-1.5-1.6-2.8-2.7-4c-1.1-1.1-2.5-2-4-2.7c-1.5-0.7-3.1-1-4.9-1C23.3,2.5,21.7,2.8,20.1,3.5z M22.1,21.9
		c-0.9-0.4-1.7-0.9-2.4-1.6s-1.2-1.5-1.6-2.4C17.7,17,17.5,16,17.5,15c0-1,0.2-2,0.6-2.9c0.4-0.9,0.9-1.7,1.6-2.4
		c0.7-0.7,1.5-1.2,2.4-1.6S24,7.5,25,7.5c1,0,2,0.2,2.9,0.6s1.7,0.9,2.4,1.6c0.7,0.7,1.2,1.5,1.6,2.4c0.4,0.9,0.6,1.9,0.6,2.9
		c0,1-0.2,2-0.6,2.9c-0.4,0.9-0.9,1.7-1.6,2.4s-1.5,1.2-2.4,1.6S26,22.5,25,22.5C24,22.5,23,22.3,22.1,21.9z M23.1,10.4
		c-0.6,0.3-1.1,0.6-1.6,1.1c-0.5,0.5-0.8,1-1.1,1.6c-0.3,0.6-0.4,1.3-0.4,2c0,0.7,0.1,1.3,0.4,1.9c0.3,0.6,0.6,1.1,1.1,1.6
		c0.5,0.4,1,0.8,1.6,1.1S24.3,20,25,20s1.3-0.1,1.9-0.4s1.1-0.6,1.6-1.1c0.5-0.4,0.8-1,1.1-1.6c0.3-0.6,0.4-1.3,0.4-1.9
		c0-0.7-0.1-1.4-0.4-2c-0.3-0.6-0.6-1.1-1.1-1.6c-0.5-0.5-1-0.8-1.6-1.1C26.3,10.1,25.7,10,25,10S23.7,10.1,23.1,10.4z"/>
</g>
</svg>
