<?xml version="1.0" encoding="utf-8"?>
<!-- Generator: Adobe Illustrator 22.1.0, SVG Export Plug-In . SVG Version: 6.00 Build 0)  -->
<svg version="1.1" id="Layer_1" xmlns="http://www.w3.org/2000/svg" xmlns:xlink="http://www.w3.org/1999/xlink" x="0px" y="0px"
	 viewBox="0 0 35.9 36" style="enable-background:new 0 0 35.9 36;" xml:space="preserve">
<style type="text/css">
	.st0{clip-path:url(#SVGID_2_);fill:#FFFFFF;}
</style>
<g>
	<defs>
		<rect id="SVGID_1_" width="35.9" height="36"/>
	</defs>
	<clipPath id="SVGID_2_">
		<use xlink:href="#SVGID_1_"  style="overflow:visible;"/>
	</clipPath>
	<path class="st0" d="M13,28c-2.2,0-4,1.8-4,4s1.8,4,4,4s4-1.8,4-4S15.2,28,13,28"/>
	<path class="st0" d="M28,28c-2.2,0-4,1.8-4,4s1.8,4,4,4s4-1.8,4-4S30.2,28,28,28"/>
	<path class="st0" d="M29.9,18.7l5.8-11.6C36,6.4,36,5.6,35.6,5c-0.4-0.6-1.1-1-1.8-1h-25L8.2,2.3C7.8,1,6.4,0,5,0H0v4h4.5l6.3,19.6
		C11.2,25,12.6,26,14,26h18v-4H14.5l-0.6-2h13.9C28.6,20,29.5,19.5,29.9,18.7"/>
</g>
</svg>
