<?xml version="1.0" encoding="utf-8"?>
<!-- Generator: Adobe Illustrator 22.1.0, SVG Export Plug-In . SVG Version: 6.00 Build 0)  -->
<svg version="1.1" id="Layer_1" xmlns="http://www.w3.org/2000/svg" xmlns:xlink="http://www.w3.org/1999/xlink" x="0px" y="0px"
	 viewBox="0 0 50 50" style="enable-background:new 0 0 50 50;" xml:space="preserve">
<style type="text/css">
	.st0{enable-background:new    ;}
	.st1{fill:#FFFFFF;}
</style>
<g class="st0">
	<path class="st1" d="M42.5,21.9c-0.9-0.1-1.7-0.3-2.6-0.5c-0.8-0.2-1.6-0.5-2.3-0.8c-0.7-0.3-1.3-0.6-1.6-1
		c-0.4-0.5-0.7-0.9-0.9-1.5c-0.2-0.5-0.3-1-0.4-1.5c-0.1-0.6-0.2-0.9-0.3-1.2s-0.3-0.4-0.5-0.5c-0.6-0.2-1.2-0.5-1.9-0.6
		c-0.7-0.2-1.4-0.3-2.1-0.5c-0.8-0.1-1.5-0.2-2.4-0.3c-0.8-0.1-1.7-0.1-2.5-0.1c-0.8,0-1.7,0-2.5,0.1c-0.8,0.1-1.6,0.2-2.3,0.3
		c-0.7,0.1-1.5,0.3-2.1,0.5c-0.7,0.2-1.3,0.4-1.9,0.6c-0.2,0.1-0.4,0.3-0.5,0.5c-0.1,0.2-0.2,0.6-0.3,1.2c-0.1,0.5-0.2,0.9-0.4,1.5
		c-0.2,0.5-0.5,1-0.9,1.5c-0.4,0.4-1,0.8-1.7,1c-0.7,0.3-1.4,0.5-2.1,0.7c-0.8,0.2-1.7,0.4-2.5,0.5c-0.9,0.1-1.6,0.2-2.4,0.2
		c-0.8,0-1.5-0.1-2.1-0.2c-0.6-0.2-1-0.4-1.3-0.7C1.4,20.6,1,20,0.7,19.4c-0.3-0.6-0.5-1.3-0.5-2c0-0.6,0-1.2,0.2-2
		c0.2-0.8,0.7-1.6,1.5-2.4c0.7-0.6,1.4-1.2,2.1-1.8c0.7-0.6,1.5-1.1,2.4-1.6c0.8-0.5,1.7-1,2.7-1.4c1-0.4,2-0.8,3-1.2
		c1-0.3,2-0.6,3-0.8c1-0.2,2.1-0.4,3.2-0.6c1.1-0.2,2.2-0.3,3.3-0.4c1.1-0.1,2.2-0.1,3.3-0.1c1.1,0,2.3,0,3.4,0.1
		c1.1,0.1,2.2,0.2,3.3,0.4c1.1,0.2,2.1,0.4,3.2,0.6c1,0.2,2.1,0.5,3,0.8c1.1,0.4,2.1,0.7,3.1,1.2c1,0.4,1.9,0.9,2.7,1.4
		c0.9,0.5,1.7,1,2.4,1.6c0.8,0.6,1.5,1.2,2.1,1.8c0.7,0.7,1.1,1.4,1.4,2.1c0.3,0.7,0.4,1.5,0.3,2.2c0,0.7-0.2,1.4-0.5,2.1
		c-0.3,0.7-0.7,1.2-1.2,1.7c-0.3,0.3-0.8,0.6-1.3,0.7c-0.6,0.2-1.2,0.2-2.1,0.2C44.1,22.1,43.3,22,42.5,21.9z M27.7,11.2
		c0.9,0.1,1.8,0.2,2.6,0.3s1.6,0.3,2.4,0.5c0.8,0.2,1.5,0.5,2.1,0.7c0.9,0.4,1.5,0.9,1.7,1.6c0.3,0.7,0.4,1.3,0.6,1.9
		c0.1,0.3,0.1,0.7,0.2,0.9c0.1,0.3,0.2,0.5,0.4,0.7c0.1,0.2,0.5,0.3,1,0.5c0.5,0.2,1.1,0.4,1.7,0.5c0.7,0.2,1.4,0.3,2.1,0.4
		c0.8,0.1,1.5,0.2,2.2,0.2c0.6,0,1,0,1.3-0.1c0.2-0.1,0.4-0.1,0.4-0.1c0.4-0.4,0.7-1,0.9-1.9c0.2-0.9-0.1-1.7-1-2.6
		c-1.1-1.1-2.5-2.1-4-3c-1.5-0.9-3.2-1.7-5.1-2.3c-1.8-0.6-3.8-1.1-5.9-1.4c-2.1-0.3-4.3-0.5-6.5-0.5c-2.2,0-4.3,0.2-6.4,0.5
		s-4,0.8-5.8,1.4c-1.8,0.6-3.5,1.4-5,2.2c-1.5,0.9-2.8,1.9-3.9,3c-0.4,0.4-0.6,0.7-0.8,1.2c-0.2,0.4-0.2,0.8-0.2,1.3
		c0,0.4,0.1,0.7,0.3,1.1c0.2,0.4,0.4,0.7,0.7,1c0,0,0.1,0.1,0.4,0.1c0.2,0.1,0.7,0.1,1.3,0.1c0.7,0,1.4-0.1,2.2-0.2
		c0.7-0.1,1.5-0.3,2.1-0.4s1.2-0.3,1.7-0.5c0.5-0.2,0.8-0.4,1-0.5c0.2-0.2,0.3-0.4,0.4-0.7c0.1-0.3,0.1-0.6,0.2-0.9
		c0.1-0.6,0.3-1.2,0.6-1.9c0.3-0.7,0.8-1.2,1.7-1.6c0.7-0.3,1.3-0.5,2.1-0.7c0.7-0.2,1.5-0.4,2.4-0.5s1.7-0.3,2.6-0.3
		c0.9-0.1,1.8-0.1,2.7-0.1C25.9,11.1,26.8,11.1,27.7,11.2z M8.7,44.9c-0.8,0-1.6-0.2-2.4-0.5c-0.7-0.3-1.4-0.8-2-1.4
		c-0.6-0.6-1-1.3-1.3-2.1c-0.3-0.8-0.4-1.6-0.3-2.4c0,0,0-0.3,0.1-0.9c0.1-0.5,0.2-1.3,0.4-2.1c0.2-0.9,0.5-1.9,1-3
		c0.4-1.1,1-2.2,1.7-3.4c0.4-0.7,0.9-1.3,1.4-1.9c0.5-0.6,1-1.2,1.6-1.7s1.2-1,1.8-1.5c0.6-0.5,1.3-0.9,2-1.3
		c0.8-0.5,1.7-0.9,2.7-1.3c0.9-0.4,1.9-0.7,3-0.9c1-0.2,2.1-0.4,3.2-0.5c1.1-0.1,2.3-0.2,3.5-0.2c1.2,0,2.3,0.1,3.5,0.2
		c1.1,0.1,2.2,0.3,3.2,0.5c1,0.2,2,0.5,3,0.9c0.9,0.4,1.8,0.8,2.7,1.3c0.7,0.4,1.3,0.8,2,1.3c0.6,0.5,1.2,1,1.8,1.5
		c0.6,0.5,1.1,1.1,1.6,1.7c0.5,0.6,1,1.3,1.4,1.9c0.7,1.2,1.3,2.3,1.7,3.4c0.4,1.1,0.7,2.1,1,3c0.2,0.9,0.4,1.6,0.4,2.1
		c0.1,0.5,0.1,0.8,0.1,0.9c0,0.8-0.1,1.7-0.3,2.4c-0.3,0.8-0.7,1.4-1.3,2.1c-0.6,0.6-1.2,1-2,1.4c-0.7,0.3-1.5,0.5-2.4,0.5H8.7z
		 M19.6,22.9c-1.7,0.3-3.2,0.9-4.6,1.5c-1.4,0.7-2.7,1.5-3.8,2.5c-1.1,1-2.1,2.2-3,3.5c-0.7,1-1.2,2-1.5,3c-0.4,1-0.7,1.9-0.9,2.6
		c-0.2,0.8-0.3,1.4-0.4,1.9c-0.1,0.5-0.1,0.7-0.1,0.7c0,0.5,0,1,0.2,1.4c0.2,0.4,0.4,0.8,0.7,1.2c0.3,0.3,0.7,0.6,1.1,0.8
		c0.4,0.2,0.9,0.3,1.4,0.3h32.5c0.5,0,1-0.1,1.4-0.3c0.4-0.2,0.8-0.5,1.1-0.8c0.3-0.3,0.6-0.7,0.7-1.2c0.2-0.4,0.2-0.9,0.2-1.4
		c0,0,0-0.3-0.1-0.7c-0.1-0.5-0.2-1.1-0.4-1.9c-0.2-0.8-0.5-1.7-0.9-2.6c-0.4-1-0.9-2-1.5-3c-0.8-1.3-1.8-2.5-3-3.5
		c-1.1-1-2.4-1.9-3.8-2.5c-1.4-0.7-3-1.2-4.6-1.5c-1.7-0.3-3.5-0.5-5.4-0.5S21.2,22.5,19.6,22.9z M22.1,39.3
		c-0.9-0.4-1.7-0.9-2.4-1.6c-0.7-0.7-1.2-1.5-1.6-2.4c-0.4-0.9-0.6-1.9-0.6-2.9c0-1,0.2-2,0.6-2.9c0.4-0.9,0.9-1.7,1.6-2.4
		c0.7-0.7,1.5-1.2,2.4-1.6c0.9-0.4,1.9-0.6,2.9-0.6c1,0,2,0.2,2.9,0.6c0.9,0.4,1.7,0.9,2.4,1.6c0.7,0.7,1.2,1.5,1.6,2.4
		c0.4,0.9,0.6,1.9,0.6,2.9c0,1-0.2,2-0.6,2.9c-0.4,0.9-0.9,1.7-1.6,2.4c-0.7,0.7-1.5,1.2-2.4,1.6C27,39.7,26,39.9,25,39.9
		C24,39.9,23,39.7,22.1,39.3z M23.1,27.8c-0.6,0.3-1.1,0.6-1.6,1.1c-0.5,0.5-0.8,1-1.1,1.6c-0.3,0.6-0.4,1.3-0.4,2
		c0,0.7,0.1,1.3,0.4,1.9c0.3,0.6,0.6,1.1,1.1,1.6c0.5,0.4,1,0.8,1.6,1.1c0.6,0.3,1.3,0.4,1.9,0.4s1.3-0.1,1.9-0.4
		c0.6-0.3,1.1-0.6,1.6-1.1c0.5-0.4,0.8-1,1.1-1.6c0.3-0.6,0.4-1.3,0.4-1.9c0-0.7-0.1-1.4-0.4-2c-0.3-0.6-0.6-1.1-1.1-1.6
		c-0.5-0.5-1-0.8-1.6-1.1c-0.6-0.3-1.3-0.4-1.9-0.4S23.7,27.5,23.1,27.8z"/>
</g>
</svg>
