<?xml version="1.0" encoding="utf-8"?>
<!-- Generator: Adobe Illustrator 22.1.0, SVG Export Plug-In . SVG Version: 6.00 Build 0)  -->
<svg version="1.1" id="Layer_1" xmlns="http://www.w3.org/2000/svg" xmlns:xlink="http://www.w3.org/1999/xlink" x="0px" y="0px"
	 viewBox="0 0 50 50" style="enable-background:new 0 0 50 50;" xml:space="preserve">
<style type="text/css">
	.st0{clip-path:url(#SVGID_2_);fill:#FFFFFF;}
</style>
<g>
	<defs>
		<rect id="SVGID_1_" x="2" y="0" width="46.4" height="50"/>
	</defs>
	<clipPath id="SVGID_2_">
		<use xlink:href="#SVGID_1_"  style="overflow:visible;"/>
	</clipPath>
	<path class="st0" d="M25.2,25c5.9,0,11.1-5.5,11.6-12.4c0.3-3.4-0.8-6.6-3-9C31.6,1.3,28.6,0,25.2,0c-3.4,0-6.4,1.3-8.6,3.6
		c-2.2,2.4-3.3,5.6-3,9C14.1,19.5,19.3,25,25.2,25"/>
	<path class="st0" d="M48.4,45.5c-0.9-5.2-3.9-9.6-8.5-12.7c-4.1-2.7-9.3-4.2-14.6-4.2s-10.5,1.5-14.6,4.2C6,35.9,3,40.3,2.1,45.5
		c-0.2,1.2,0.1,2.4,0.8,3.2C3.5,49.6,4.5,50,5.6,50h39.3c1,0,2-0.4,2.7-1.2C48.3,47.9,48.6,46.7,48.4,45.5"/>
</g>
</svg>
