<svg id="Layer_1" data-name="Layer 1" xmlns="http://www.w3.org/2000/svg" xmlns:xlink="http://www.w3.org/1999/xlink" viewBox="0 0 211.41 16.77"><defs><style>.cls-1,.cls-4{fill:none;}.cls-2{opacity:0.3;}.cls-3{clip-path:url(#clip-path);}.cls-4{stroke:#8ba09a;stroke-linecap:square;stroke-linejoin:round;stroke-width:2.64px;}.cls-5{fill:#8ba09a;}</style><clipPath id="clip-path" transform="translate(0 0)"><rect class="cls-1" width="211.41" height="16.77"/></clipPath></defs><title>vara</title><g class="cls-2"><g class="cls-3"><line class="cls-4" x1="1.32" y1="8.21" x2="210.09" y2="8.21"/><path class="cls-5" d="M169.42,9.45a5.92,5.92,0,0,1-2.8-.61l-.56-.32,0-.65a7.63,7.63,0,0,1,3-6c4-3,10.7-1.48,11-1.42l1.58.38-1,1.29c-4.66,6.09-8.68,7.34-11.2,7.34m-1.15-2.22c1.36.33,4.87.44,9.56-5-2-.22-5.36-.28-7.52,1.33a5.26,5.26,0,0,0-2,3.68" transform="translate(0 0)"/><path class="cls-5" d="M37,8a4.21,4.21,0,0,1-1.63-.29L35,7.51,35,7a5.76,5.76,0,0,1,1.8-4.74C39.59-.28,44.71.4,44.93.44l1.22.17-.66,1C42.11,7,38.9,8,37,8m-.5-1.62c1,.15,3.7,0,6.85-4.45-1.53,0-4.06.16-5.57,1.54a4,4,0,0,0-1.28,2.91" transform="translate(0 0)"/><path class="cls-5" d="M106.86,16.77l-1.19-.15c-8.25-1-8.43-8.14-8.43-8.21l0-1h1.06a8.42,8.42,0,0,1,6.11,2.2,9.28,9.28,0,0,1,2.47,6ZM99.52,9.51a6.54,6.54,0,0,0,5.06,4.77A6.57,6.57,0,0,0,102.9,11a5.73,5.73,0,0,0-3.38-1.52" transform="translate(0 0)"/><path class="cls-5" d="M197.15,12.06,196,11.91c-8.25-1-8.44-8.14-8.44-8.21V2.64h1.05a8.44,8.44,0,0,1,6.11,2.21,9.21,9.21,0,0,1,2.47,6ZM189.81,4.8a6.53,6.53,0,0,0,5.06,4.77,6.53,6.53,0,0,0-1.68-3.25,5.73,5.73,0,0,0-3.38-1.52" transform="translate(0 0)"/><path class="cls-5" d="M36.71,16.77l-1.19-.15c-8.24-1-8.44-8.14-8.44-8.21v-1h1.06a8.34,8.34,0,0,1,6.11,2.2,9.28,9.28,0,0,1,2.47,6ZM29.37,9.51a6.53,6.53,0,0,0,5.06,4.77A6.57,6.57,0,0,0,32.75,11a5.73,5.73,0,0,0-3.38-1.52" transform="translate(0 0)"/></g></g></svg>