<svg id="Layer_1" data-name="Layer 1" xmlns="http://www.w3.org/2000/svg" viewBox="0 0 30.32 41.86"><defs><style>.cls-1{fill:#8d7249;}</style></defs><title>map-marker</title><path class="cls-1" d="M25.46,3.64A15.18,15.18,0,0,0,10.3,18.8c0,10.38,13.57,25.61,14.15,26.25a1.35,1.35,0,0,0,2,0c.57-.64,14.14-15.87,14.14-26.25A15.18,15.18,0,0,0,25.46,3.64Zm0,38.41C20.89,36.63,13,25.92,13,18.8a12.43,12.43,0,0,1,24.86,0C37.89,25.93,30,36.62,25.46,42.05Z" transform="translate(-10.3 -3.64)"/><path class="cls-1" d="M25.46,11.18a7.63,7.63,0,1,0,7.63,7.62A7.63,7.63,0,0,0,25.46,11.18Zm0,12.52a4.9,4.9,0,1,1,4.9-4.9A4.9,4.9,0,0,1,25.46,23.7Z" transform="translate(-10.3 -3.64)"/></svg>