<?xml version="1.0" encoding="utf-8"?>
<!-- Generator: Adobe Illustrator 22.1.0, SVG Export Plug-In . SVG Version: 6.00 Build 0)  -->
<svg version="1.1" id="Layer_1" xmlns="http://www.w3.org/2000/svg" xmlns:xlink="http://www.w3.org/1999/xlink" x="0px" y="0px"
	 viewBox="0 0 50 50" style="enable-background:new 0 0 50 50;" xml:space="preserve">
<style type="text/css">
	.st0{fill:#FFFEFD;}
	.st1{fill:#007576;}
</style>
<circle class="st0" cx="24.5" cy="24.5" r="20.5"/>
<g>
	<g>
		<path class="st1" d="M48.7,24.4l-1.9-2.3l1.3-2.7c0.2-0.4,0.1-0.8-0.3-1.1l-2.5-1.8l0.5-3c0.1-0.4-0.2-0.8-0.6-1l-2.8-1.1l-0.3-3
			c0-0.4-0.4-0.7-0.8-0.8l-3-0.3l-1.1-2.8c-0.1-0.4-0.5-0.6-1-0.6l-3,0.5l-1.8-2.5c-0.2-0.3-0.7-0.5-1.1-0.3l-2.7,1.3l-2.3-1.9
			c-0.3-0.3-0.8-0.3-1.1,0L22,3.1l-2.7-1.3c-0.4-0.2-0.8-0.1-1.1,0.3l-1.8,2.5l-3-0.5c-0.4-0.1-0.8,0.2-1,0.6l-1.1,2.8l-3,0.3
			C8,7.8,7.7,8.1,7.7,8.6l-0.3,3l-2.8,1.1c-0.4,0.1-0.6,0.5-0.6,1l0.5,3L2,18.3c-0.3,0.2-0.5,0.7-0.3,1.1L3,22.1l-1.9,2.3
			c-0.3,0.3-0.3,0.8,0,1.1L3,27.9l-1.3,2.7C1.6,31,1.7,31.5,2,31.7l2.5,1.8l-0.5,3c-0.1,0.4,0.2,0.8,0.6,1l2.8,1.1l0.3,3
			c0,0.4,0.4,0.7,0.8,0.8l3,0.3l1.1,2.8c0.1,0.4,0.5,0.6,1,0.6l3-0.5l1.8,2.5c0.2,0.3,0.7,0.5,1.1,0.3l2.7-1.3l2.3,1.9
			c0.2,0.1,0.4,0.2,0.6,0.2c0.2,0,0.4-0.1,0.6-0.2l2.3-1.9l2.7,1.3c0.4,0.2,0.8,0.1,1.1-0.3l1.8-2.5l3,0.5c0.4,0.1,0.8-0.2,1-0.6
			l1.1-2.8l3-0.3c0.4,0,0.7-0.4,0.8-0.8l0.3-3l2.8-1.1c0.4-0.1,0.6-0.5,0.6-1l-0.5-3l2.5-1.8c0.3-0.2,0.5-0.7,0.3-1.1l-1.3-2.7
			l1.9-2.3C49,25.2,49,24.8,48.7,24.4z M25.5,44.8c-11.5,0.4-20.8-9-20.4-20.4C5.4,14,13.9,5.5,24.2,5.2c11.5-0.4,20.8,9,20.4,20.4
			C44.4,36,35.9,44.5,25.5,44.8z"/>
	</g>
	<g>
		<g>
			<polygon class="st1" points="10.5,23.8 11,25.4 12.7,25.4 11.4,26.4 11.9,28 10.5,27 9.2,28 9.7,26.4 8.3,25.4 10,25.4 			"/>
		</g>
	</g>
	<g>
		<g>
			<polygon class="st1" points="39,23.8 39.6,25.4 41.2,25.4 39.9,26.4 40.4,28 39,27 37.7,28 38.2,26.4 36.9,25.4 38.5,25.4 			"/>
		</g>
	</g>
	<g>
		<g>
			<path class="st1" d="M24.9,44c-5.1,0-9.9-2-13.4-5.6C7.8,34.9,5.9,30.1,5.9,25c0-5.1,2-9.9,5.6-13.4C15,8,19.8,6,24.9,6
				c5.1,0,9.9,2,13.4,5.6c3.6,3.6,5.6,8.4,5.6,13.4c0,5.1-2,9.9-5.6,13.4C34.7,42,30,44,24.9,44z M24.9,6.4c-5,0-9.6,1.9-13.1,5.4
				C8.2,15.4,6.3,20,6.3,25c0,5,1.9,9.6,5.4,13.1c3.5,3.5,8.2,5.4,13.1,5.4c5,0,9.6-1.9,13.1-5.4c3.5-3.5,5.4-8.2,5.4-13.1
				c0-5-1.9-9.6-5.4-13.1C34.5,8.3,29.9,6.4,24.9,6.4z"/>
		</g>
	</g>
	<g>
		<path class="st1" d="M10.1,19.5c0,0-0.1-0.1-0.1-0.1l0.2-0.4c0,0,0.1-0.1,0.1,0l2.9,1.1c0,0,0.1,0.1,0.1,0.1l-0.2,0.4
			c0,0-0.1,0.1-0.1,0L10.1,19.5z"/>
		<path class="st1" d="M11.1,17.2c0,0,0-0.1,0-0.1l0.1-0.1l2.8-0.3l0,0l-1.6-1.1c0,0-0.1-0.1,0-0.1l0.2-0.3c0,0,0.1,0,0.1,0l2.6,1.8
			c0,0,0,0.1,0,0.1l-0.1,0.1l-2.8,0.3l0,0l1.7,1.1c0,0,0.1,0.1,0,0.1L13.8,19c0,0-0.1,0-0.1,0L11.1,17.2z"/>
		<path class="st1" d="M15.6,15.8l-0.1-0.3c0-0.1,0-0.1,0.1-0.1c0,0,0.5,0,0.7-0.2c0.2-0.1,0.2-0.4,0.1-0.5
			c-0.2-0.2-0.4-0.2-0.8-0.1c-0.4,0.1-0.9,0.2-1.3-0.2C14.1,14,14,13.4,14.5,13c0.3-0.3,0.8-0.3,0.9-0.3c0.1,0,0.1,0,0.1,0.1l0,0.3
			c0,0.1,0,0.1-0.1,0.1c0,0-0.5,0-0.6,0.2c-0.2,0.2-0.2,0.4-0.1,0.5c0.1,0.2,0.4,0.2,0.7,0.1c0.4-0.1,1-0.3,1.4,0.2
			c0.3,0.4,0.3,1-0.2,1.4c-0.4,0.4-0.9,0.4-1,0.4C15.7,15.9,15.7,15.9,15.6,15.8z"/>
		<path class="st1" d="M17.4,11.7l-0.6,0.3c0,0-0.1,0-0.1,0l-0.2-0.3c0,0,0-0.1,0-0.1l1.7-0.9c0,0,0.1,0,0.1,0l0.2,0.3
			c0,0,0,0.1,0,0.1l-0.6,0.3l1.2,2.3c0,0,0,0.1,0,0.1l-0.4,0.2c0,0-0.1,0-0.1,0L17.4,11.7z"/>
		<path class="st1" d="M19.8,10.2c0,0,0-0.1,0.1-0.1l0.4-0.1c0,0,0.1,0,0.1,0.1l0.9,3c0,0,0,0.1-0.1,0.1l-0.4,0.1c0,0-0.1,0-0.1-0.1
			L19.8,10.2z"/>
		<path class="st1" d="M22.6,10l-0.7,0.1c0,0-0.1,0-0.1-0.1l0-0.4c0,0,0-0.1,0.1-0.1l1.9-0.2c0,0,0.1,0,0.1,0.1l0,0.4
			c0,0,0,0.1-0.1,0.1l-0.7,0.1l0.3,2.6c0,0,0,0.1-0.1,0.1L23,12.7c0,0-0.1,0-0.1-0.1L22.6,10z"/>
		<path class="st1" d="M25.4,9.4C25.4,9.3,25.5,9.3,25.4,9.4l0.5,0c0,0,0.1,0.1,0.1,0.1l-0.2,1.9c0,0.4,0.2,0.7,0.6,0.8
			c0.4,0,0.7-0.2,0.7-0.6l0.2-1.9c0,0,0-0.1,0.1-0.1l0.4,0.1c0,0,0.1,0.1,0.1,0.1l-0.2,1.9c-0.1,0.7-0.7,1.2-1.4,1.1
			c-0.7-0.1-1.2-0.7-1.1-1.4L25.4,9.4z"/>
		<path class="st1" d="M29.7,10.2c0,0,0.1-0.1,0.1-0.1l0.4,0.1c0,0,0.1,0.1,0,0.1l-1,2.9c0,0-0.1,0.1-0.1,0.1l-0.4-0.1
			c0,0-0.1-0.1,0-0.1L29.7,10.2z"/>
		<path class="st1" d="M31,12.3c0.5-0.8,1.5-1.1,2.3-0.6c0.4,0.2,0.6,0.5,0.7,0.9c0,0.1,0,0.1-0.1,0.1l-0.4,0.1c0,0-0.1,0-0.1-0.1
			c-0.1-0.2-0.2-0.5-0.4-0.6c-0.5-0.3-1.1-0.1-1.4,0.4c-0.3,0.5-0.2,1.1,0.3,1.4c0.2,0.1,0.5,0.2,0.7,0.1c0,0,0.1,0,0.1,0.1l0.1,0.4
			c0,0,0,0.1-0.1,0.1c-0.4,0.1-0.8,0-1.2-0.2l-0.1,0.2c0.2,0.2,0.3,0.4,0.1,0.6c-0.1,0.2-0.4,0.3-0.7,0.2c-0.1-0.1-0.2-0.2-0.2-0.3
			c0-0.1,0-0.1,0.1-0.1l0.1,0c0,0,0.1,0,0.1,0.1c0,0.1,0,0.1,0.1,0.1c0.1,0,0.2,0,0.2-0.1c0.1-0.1,0-0.2-0.2-0.4c-0.1,0,0-0.1,0-0.1
			l0.2-0.3C30.6,13.9,30.5,13.1,31,12.3z"/>
		<path class="st1" d="M32.9,15.4l3.3-1.1c0,0,0.1,0,0.1,0l0,0c0,0,0,0.1,0,0.1l-1.4,3.2c0,0.1-0.1,0.1-0.1,0l-0.3-0.3
			c0,0,0-0.1,0-0.2l0.2-0.5l-0.9-1l-0.5,0.2c0,0-0.1,0-0.2,0l-0.3-0.3C32.8,15.5,32.8,15.4,32.9,15.4z M34.9,16.1l0.5-1l0,0
			l-1.1,0.4L34.9,16.1z M36.2,13.5C36.2,13.5,36.2,13.4,36.2,13.5c0.2-0.1,0.5-0.2,0.7,0c0.2,0.2,0,0.4,0.1,0.5
			c0.1,0.1,0.3-0.1,0.3,0.1l0,0.2c0,0.1,0,0.1-0.1,0.1c-0.1,0-0.4,0.1-0.6-0.1c-0.2-0.2,0-0.4-0.1-0.5c-0.1-0.1-0.3,0.1-0.3-0.1
			L36.2,13.5z"/>
		<path class="st1" d="M38.8,18c0.4,0.8,0,1.8-0.8,2.2c-0.8,0.4-1.8,0.1-2.2-0.7c-0.4-0.8,0-1.8,0.8-2.2
			C37.4,16.9,38.4,17.2,38.8,18z M36.3,19.3c0.2,0.5,0.9,0.7,1.4,0.4c0.5-0.3,0.8-0.9,0.5-1.4c-0.2-0.5-0.9-0.7-1.4-0.4
			C36.3,18.1,36.1,18.8,36.3,19.3z"/>
	</g>
	<g>
		<path class="st1" d="M20.4,36.8C20.4,36.7,20.5,36.7,20.4,36.8l0.2,0c0,0,0.1,0,0.1,0.1l0.4,2.4c0,0,0,0,0,0l1.5-1.9
			c0,0,0,0,0.1,0l0.1,0c0,0,0.1,0.1,0.1,0.1l-0.3,3.2c0,0.1,0,0.1-0.1,0.1L22,40.5c0,0-0.1-0.1-0.1-0.1l0.2-1.8c0,0,0,0,0,0
			l-1.2,1.6c0,0,0,0-0.1,0l-0.1,0c0,0-0.1,0-0.1-0.1l-0.3-2c0,0,0,0,0,0l-0.7,1.7c0,0-0.1,0.1-0.1,0l-0.4-0.1
			c-0.1,0-0.1-0.1-0.1-0.1L20.4,36.8z"/>
		<path class="st1" d="M24.2,37.5C24.2,37.5,24.2,37.5,24.2,37.5l1.9-0.1c0,0,0.1,0,0.1,0.1l0,0.4c0,0,0,0.1-0.1,0.1l-1.3,0l0,0.8
			l1.1,0c0,0,0.1,0,0.1,0.1l0,0.4c0,0.1,0,0.1-0.1,0.1l-1.1,0l0,0.8l1.3,0c0,0,0.1,0,0.1,0.1l0,0.4c0,0,0,0.1-0.1,0.1l-1.8,0.1
			c0,0-0.1,0-0.1-0.1L24.2,37.5z"/>
		<path class="st1" d="M28.3,36.8c0.4-0.1,0.8-0.1,1.2,0.1c0,0,0.1,0.1,0,0.1l-0.2,0.4c0,0-0.1,0.1-0.1,0c-0.2-0.1-0.5-0.1-0.7-0.1
			c-0.5,0.2-0.8,0.8-0.7,1.3c0.2,0.6,0.7,0.9,1.3,0.8c0.3-0.1,0.4-0.2,0.6-0.4c0,0,0.1-0.1,0.1,0l0.3,0.2c0,0,0.1,0.1,0,0.1
			c-0.2,0.4-0.5,0.6-0.9,0.7c-0.9,0.2-1.8-0.3-2-1.2C27,38,27.5,37.1,28.3,36.8z"/>
	</g>
	<g>
		<g>
			<polygon class="st1" points="37.4,34.9 32.8,34.9 32.8,33.9 33.2,33.9 33.2,34.4 36.3,34.4 35.1,33.2 36.2,31.5 34.5,31.5 
				34.5,31.1 37,31.1 35.7,33.1 			"/>
		</g>
		<g>
			<polygon class="st1" points="12.2,34.9 16.7,34.9 16.7,33.9 16.3,33.9 16.3,34.4 13.2,34.4 14.4,33.2 13.4,31.5 15.1,31.5 
				15.1,31.1 12.6,31.1 13.9,33.1 			"/>
		</g>
		<g>
			<path class="st1" d="M15.4,33.6h18.7v-3.7H15.4V33.6z M34.5,34H15v-4.5h19.5V34z"/>
		</g>
		<g>
			<path class="st1" d="M19.9,26.5h4.2c1.8,0,2.8,1.2,2.8,2.8c0,0.2,0,0.4-0.1,0.6h4c0-0.2,0-0.4,0-0.6c0-3.8-2.5-6.6-6.3-6.6h-2
				v-3.1h5.7c0.3,0,0.5-0.3,0.5-0.5v-2.5c0-0.3-0.2-0.5-0.5-0.5h-8.9c-0.3,0-0.5,0.3-0.5,0.5v9C19,25.9,19.3,26.5,19.9,26.5z"/>
			<path class="st1" d="M18.8,33.6c0.7,0.9,2.6,2.3,5.4,2.3c2.1,0,3.9-0.9,5.2-2.3H18.8z"/>
		</g>
		<g>
			<path class="st1" d="M17.3,30.9c0.3,0,0.5,0.1,0.7,0.3c0,0,0,0.1,0,0.1l-0.2,0.2c0,0,0,0-0.1,0c-0.1-0.1-0.3-0.2-0.4-0.2
				c-0.4,0-0.6,0.3-0.6,0.7c0,0.4,0.3,0.7,0.6,0.7c0.2,0,0.3-0.1,0.4-0.2c0,0,0.1,0,0.1,0l0.2,0.2c0,0,0,0.1,0,0.1
				C17.8,33,17.6,33,17.3,33c-0.6,0-1-0.5-1-1.1C16.3,31.3,16.8,30.9,17.3,30.9z"/>
			<path class="st1" d="M19.7,30.9c0.6,0,1,0.5,1,1.1c0,0.6-0.5,1.1-1,1.1c-0.6,0-1-0.5-1-1.1C18.6,31.3,19.1,30.9,19.7,30.9z
				 M19.7,32.7c0.4,0,0.7-0.3,0.7-0.7s-0.3-0.7-0.7-0.7c-0.4,0-0.7,0.3-0.7,0.7S19.3,32.7,19.7,32.7z"/>
			<path class="st1" d="M21.4,30.9C21.4,30.9,21.5,30.9,21.4,30.9l0.1-0.1l1.2,1.3h0v-1.3c0,0,0-0.1,0.1-0.1h0.3c0,0,0.1,0,0.1,0.1
				v2c0,0,0,0.1-0.1,0.1H23l-1.2-1.4h0V33c0,0,0,0.1-0.1,0.1h-0.3c0,0-0.1,0-0.1-0.1V30.9z"/>
			<path class="st1" d="M24.9,30.9c0.3,0,0.5,0.1,0.7,0.3c0,0,0,0.1,0,0.1l-0.2,0.2c0,0,0,0-0.1,0c-0.1-0.1-0.3-0.2-0.4-0.2
				c-0.4,0-0.6,0.3-0.6,0.7c0,0.4,0.3,0.7,0.6,0.7c0.2,0,0.3-0.1,0.4-0.2c0,0,0.1,0,0.1,0l0.2,0.2c0,0,0,0.1,0,0.1
				C25.5,33,25.2,33,24.9,33c-0.6,0-1-0.5-1-1.1C23.9,31.3,24.4,30.9,24.9,30.9z"/>
			<path class="st1" d="M26.4,30.9C26.4,30.9,26.4,30.9,26.4,30.9l1.2-0.1c0,0,0.1,0,0.1,0.1v0.2c0,0,0,0.1-0.1,0.1h-0.9v0.5h0.7
				c0,0,0.1,0,0.1,0.1v0.3c0,0,0,0.1-0.1,0.1h-0.7v0.5h0.9c0,0,0.1,0,0.1,0.1V33c0,0,0,0.1-0.1,0.1h-1.2c0,0-0.1,0-0.1-0.1V30.9z"/>
			<path class="st1" d="M28.5,30.9C28.5,30.9,28.5,30.9,28.5,30.9l0.3-0.1c0,0,0.1,0,0.1,0.1v2c0,0,0,0.1-0.1,0.1h-0.3
				c0,0-0.1,0-0.1-0.1V30.9z"/>
			<path class="st1" d="M30,31.3h-0.4c0,0-0.1,0-0.1-0.1v-0.2c0,0,0-0.1,0.1-0.1h1.3c0,0,0.1,0,0.1,0.1v0.2c0,0,0,0.1-0.1,0.1h-0.4
				V33c0,0,0,0.1-0.1,0.1h-0.3c0,0-0.1,0-0.1-0.1V31.3z"/>
			<path class="st1" d="M32.4,30.9c0.6,0,1,0.5,1,1.1c0,0.6-0.5,1.1-1,1.1c-0.6,0-1-0.5-1-1.1C31.4,31.3,31.8,30.9,32.4,30.9z
				 M32.4,32.7c0.4,0,0.7-0.3,0.7-0.7s-0.3-0.7-0.7-0.7c-0.4,0-0.7,0.3-0.7,0.7S32.1,32.7,32.4,32.7z"/>
		</g>
	</g>
</g>
</svg>
