<?xml version="1.0" encoding="utf-8"?>
<!-- Generator: Adobe Illustrator 23.0.1, SVG Export Plug-In . SVG Version: 6.00 Build 0)  -->
<svg version="1.1" id="Camada_1" xmlns="http://www.w3.org/2000/svg" xmlns:xlink="http://www.w3.org/1999/xlink" x="0px" y="0px"
	 viewBox="0 0 66 82.5" style="enable-background:new 0 0 66 82.5;" xml:space="preserve">
<path d="M55.59,9.8h-6.4V9.79h-4V9.8h-10.2V9.79h-4V9.8h-10.2V9.79h-4V9.8h-6.4c-4.1,0-7.5,3.4-7.5,7.5v37.2c0,4.1,3.4,7.5,7.5,7.5
	h45.2c4.1,0,7.5-3.4,7.5-7.5V17.3C63.09,13.2,59.69,9.8,55.59,9.8z M59.09,29.7v24.8c0,1.9-1.6,3.5-3.5,3.5h-45.2
	c-1.9,0-3.5-1.6-3.5-3.5V29.7 M6.89,25.7v-8.4c0-1.9,1.6-3.5,3.5-3.5h5.16v0h37.12v0h2.91c1.9,0,3.5,1.6,3.5,3.5v8.4"/>
<g>
	<g>
		<path d="M18.81,6.35c-1.1,0-2,0.9-2,2v7.6c0,1.1,0.9,2,2,2c1.1,0,2-0.9,2-2v-7.6C20.81,7.25,19.91,6.35,18.81,6.35z"/>
	</g>
	<g>
		<path d="M33.06,6.35c-1.1,0-2,0.9-2,2v7.6c0,1.1,0.9,2,2,2c1.1,0,2-0.9,2-2v-7.6C35.06,7.25,34.16,6.35,33.06,6.35z"/>
	</g>
	<g>
		<path d="M47.18,6.35c-1.1,0-2,0.9-2,2v7.6c0,1.1,0.9,2,2,2c1.1,0,2-0.9,2-2v-7.6C49.18,7.25,48.28,6.35,47.18,6.35z"/>
	</g>
</g>
</svg>
