<svg id="Camada_1" data-name="Camada 1" xmlns="http://www.w3.org/2000/svg" viewBox="0 0 65.91 68.8"><title>Icone_Mensalidade</title><circle cx="58.38" cy="46.93" r="2.16"/><path d="M61.68,53.08H52.49V44.67h9.19Zm0-11.9H52.29a3.2,3.2,0,0,0-3.2,3.2h0v9a3.19,3.19,0,0,0,3.19,3.19h9.44v6.59a4.22,4.22,0,0,1-4.22,4.22H7.78a4.21,4.21,0,0,1-4.21-4.22V27.65a7.51,7.51,0,0,0,4.21,1.26H57.46a4.22,4.22,0,0,1,4.22,4.22ZM59.05,25.66l-.89-.22H7.77a4.23,4.23,0,0,1-4.22-4.12,3.86,3.86,0,0,1,3.86-3.73H18.29l.59-3.43H7.43A7.27,7.27,0,0,0,.09,21.21h0v41.9a7.66,7.66,0,0,0,7.67,7.66h49.7a7.67,7.67,0,0,0,7.65-7.65v-30A7.66,7.66,0,0,0,59.05,25.66Z" transform="translate(-0.09 -1.97)"/><polygon points="25.63 23.52 28.92 23.52 28.92 23.52 25.63 23.52 25.63 23.52"/><path d="M38.65,25.51Z" transform="translate(-0.09 -1.97)"/><polygon points="32.53 23.52 34.74 23.52 34.74 23.52 32.53 23.52 32.53 23.52"/><polygon points="19.49 23.52 22.13 23.52 22.13 23.52 19.49 23.52 19.49 23.52"/><path d="M53.56,25.51Z" transform="translate(-0.09 -1.97)"/><path d="M32.17,6.45a1.07,1.07,0,0,1,.89-.07,1.73,1.73,0,0,0,1-3.28A4.56,4.56,0,0,0,28.36,6L22.3,24.94a1.75,1.75,0,0,0-.08.55h3.51l6-18.4A1,1,0,0,1,32.17,6.45Z" transform="translate(-0.09 -1.97)"/><path d="M65.69,13.07a4.48,4.48,0,0,0-2.41-2.52L43.47,2.32a4.54,4.54,0,0,0-5.93,2.43L29.13,24.93a1.86,1.86,0,0,0-.11.58h3.6l5-11.89a10.71,10.71,0,0,0,3.46.6A10.77,10.77,0,0,0,50.33,9l3.43,1.38a10.63,10.63,0,0,0,5.62,12.36l-1.06,2.54a1.29,1.29,0,0,0-.08.26h3.67l3.75-9A4.64,4.64,0,0,0,65.69,13.07Zm-26.8-2.63,1.82-4.36a1.09,1.09,0,0,1,1.38-.59l5,2.09A7.3,7.3,0,0,1,38.89,10.44ZM62.5,15.15l-1.81,4.37A7.34,7.34,0,0,1,57,11.7l5,2a1.1,1.1,0,0,1,.59.61A1,1,0,0,1,62.5,15.15Z" transform="translate(-0.09 -1.97)"/><path d="M17.58,17.59l-1.44,7.85h3.43l2.87-15.11a1.11,1.11,0,0,1,1.29-.88,1.73,1.73,0,0,0,2-1.37h0a1.71,1.71,0,0,0-1.34-2h0a4.55,4.55,0,0,0-5.31,3.61L7.41,17.58Z" transform="translate(-0.09 -1.97)"/><path d="M48.06,19.94A10.06,10.06,0,0,0,34.9,25.33v0a.54.54,0,0,0,0,.18h3.84a6.65,6.65,0,0,1,11-.11h3.86A10,10,0,0,0,48.06,19.94Z" transform="translate(-0.09 -1.97)"/></svg>