<?xml version="1.0" encoding="utf-8"?>
<!-- Generator: Adobe Illustrator 23.0.1, SVG Export Plug-In . SVG Version: 6.00 Build 0)  -->
<svg version="1.1" id="Camada_1" xmlns="http://www.w3.org/2000/svg" xmlns:xlink="http://www.w3.org/1999/xlink" x="0px" y="0px"
	 viewBox="0 0 100 125" style="enable-background:new 0 0 100 125;" xml:space="preserve">
<g>
	<path d="M37.38,48.33c-1.58-1.71-3.44-3.13-5.5-4.2c5.43-5.11,5.69-13.65,0.58-19.08s-13.65-5.69-19.08-0.58S7.69,38.12,12.8,43.55
		c0.19,0.2,0.38,0.39,0.58,0.58c-6.67,3.43-10.87,10.3-10.9,17.8v4.5c0,1.66,1.34,3,3,3s3-1.34,3-3v-4.5
		c0.06-7.79,6.43-14.05,14.21-13.99c5.73,0.05,10.87,3.56,12.99,8.89c-3.78,3.76-5.9,8.87-5.9,14.2v4.5c0,1.66,1.35,3,3,3
		c1.65,0,3-1.34,3-3v-4.5c-0.66-7.76,5.1-14.58,12.86-15.24c7.76-0.66,14.58,5.1,15.24,12.86c0.07,0.79,0.07,1.58,0,2.37v4.5
		c0,1.66,1.34,3,3,3s3-1.34,3-3v-4.5c0-5.33-2.12-10.44-5.9-14.2c2.88-7.24,11.08-10.77,18.31-7.89c5.33,2.12,8.84,7.25,8.89,12.99
		v4.5c0,1.66,1.34,3,3,3s3-1.34,3-3v-4.5c0.01-7.46-4.11-14.31-10.7-17.8c5.43-5.11,5.69-13.65,0.58-19.08
		c-5.11-5.43-13.65-5.69-19.08-0.58s-5.69,13.65-0.58,19.08c0.19,0.2,0.38,0.39,0.58,0.58c-2.06,1.07-3.92,2.49-5.5,4.2l-13.89,3.73
		L37.38,48.33z M15.08,34.43c0-4.14,3.36-7.5,7.5-7.5s7.5,3.36,7.5,7.5s-3.36,7.5-7.5,7.5S15.08,38.57,15.08,34.43L15.08,34.43z
		 M69.68,34.43c0-4.14,3.36-7.5,7.5-7.5s7.5,3.36,7.5,7.5s-3.36,7.5-7.5,7.5l0,0C73.04,41.93,69.68,38.57,69.68,34.43z"/>
</g>
<path d="M64.75,57.38l-0.01,0.01c-1.58-1.71-3.44-3.13-5.51-4.21c5.44-5.12,5.7-13.68,0.58-19.12c-2.56-2.73-5.99-4.15-9.46-4.25
	c-3.46-0.11-6.96,1.11-9.68,3.67c-5.44,5.12-5.7,13.68-0.58,19.12c0.19,0.2,0.38,0.4,0.58,0.58c-0.38,0.2-0.75,0.42-1.12,0.64
	c-0.03,0.02-0.06,0.03-0.09,0.05c-0.3,0.18-0.58,0.37-0.87,0.57c-0.16,0.11-0.32,0.22-0.48,0.33c-0.23,0.17-0.46,0.34-0.68,0.52
	c-0.23,0.18-0.46,0.37-0.68,0.57c-0.15,0.13-0.31,0.26-0.46,0.4c-4.07,3.74-6.49,9.06-6.51,14.75v4.51c0,1.66,1.35,3.01,3.01,3.01
	c1.66,0,3.01-1.35,3.01-3.01v-4.51c0.06-7.31,5.66-13.27,12.78-13.95c0.02,0,0.04,0,0.07,0c0.39-0.04,0.79-0.05,1.2-0.05
	c0.33,0,0.65,0,0.98,0.03c0.02,0,0.05,0,0.07,0c1.38,0.11,2.77,0.42,4.12,0.96c5.34,2.12,8.85,7.27,8.9,13.01v4.51
	c0,1.66,1.35,3.01,3.01,3.01c1.66,0,3.01-1.35,3.01-3.01v-4.51C69.93,65.94,68.04,61.03,64.75,57.38z M42.4,43.47
	c0-4.14,3.36-7.5,7.5-7.51c4.14,0.01,7.5,3.37,7.5,7.51s-3.36,7.5-7.5,7.51C45.76,50.97,42.4,47.61,42.4,43.47z"/>
</svg>
