<?xml version="1.0" encoding="utf-8"?>
<!-- Generator: Adobe Illustrator 23.0.1, SVG Export Plug-In . SVG Version: 6.00 Build 0)  -->
<svg version="1.1" id="Camada_1" xmlns="http://www.w3.org/2000/svg" xmlns:xlink="http://www.w3.org/1999/xlink" x="0px" y="0px"
	 viewBox="0 0 64 80" style="enable-background:new 0 0 64 80;" xml:space="preserve">
<g>
	<g>
		<path d="M13.68,40.27l-3.46,2C9.26,42.82,8.93,44.04,9.48,45c0.37,0.64,1.04,1,1.73,1c0.34,0,0.68-0.09,1-0.27l3.46-2
			c0.96-0.55,1.28-1.78,0.73-2.73C15.86,40.04,14.64,39.72,13.68,40.27z"/>
		<path d="M20.27,15.68c0.37,0.64,1.04,1,1.73,1c0.34,0,0.68-0.09,1-0.27c0.96-0.55,1.28-1.77,0.73-2.73l-2-3.46
			C21.18,9.26,19.96,8.93,19,9.48c-0.96,0.55-1.28,1.77-0.73,2.73L20.27,15.68z"/>
		<path d="M23,47.59c-0.96-0.56-2.18-0.23-2.73,0.73l-2,3.46c-0.55,0.96-0.23,2.18,0.73,2.73c0.32,0.18,0.66,0.27,1,0.27
			c0.69,0,1.36-0.36,1.73-1l2-3.46C24.28,49.36,23.96,48.14,23,47.59z"/>
		<path d="M15.68,20.27l-3.46-2c-0.96-0.55-2.18-0.23-2.73,0.73s-0.23,2.18,0.73,2.73l3.46,2c0.31,0.18,0.66,0.27,1,0.27
			c0.69,0,1.36-0.36,1.73-1C16.96,22.04,16.64,20.82,15.68,20.27z"/>
		<path d="M54.56,44.89C56.75,41.09,58,36.69,58,32c0-4.69-1.25-9.08-3.43-12.89c-0.02-0.04-0.03-0.08-0.05-0.11
			c-0.02-0.04-0.05-0.07-0.07-0.1c-2.26-3.86-5.49-7.09-9.35-9.35C45.06,9.53,45.03,9.5,45,9.48c-0.04-0.02-0.08-0.03-0.11-0.05
			C41.09,7.25,36.69,6,32,6c-1.1,0-2,0.9-2,2v48c0,1.1,0.9,2,2,2c4.7,0,9.1-1.26,12.91-3.45c0.03-0.01,0.06-0.02,0.09-0.04
			c0.04-0.02,0.06-0.05,0.1-0.07c3.87-2.27,7.1-5.5,9.36-9.38c0.02-0.03,0.04-0.04,0.05-0.07C54.54,44.96,54.55,44.93,54.56,44.89z
			 M44.71,50.89l-0.99-1.71c-0.58-1.01-1.87-1.35-2.88-0.77c-1.01,0.58-1.35,1.87-0.77,2.88L41.07,53c-2.35,1.09-4.9,1.81-7.59,2.06
			V8.94c2.69,0.24,5.24,0.97,7.59,2.06l-0.99,1.72c-0.58,1.01-0.24,2.29,0.77,2.88c0.33,0.19,0.69,0.28,1.05,0.28
			c0.73,0,1.43-0.38,1.83-1.05l0.99-1.71c2.15,1.52,4.03,3.4,5.55,5.55l-1.71,0.99c-1.01,0.58-1.35,1.87-0.77,2.88
			c0.39,0.68,1.1,1.05,1.83,1.05c0.36,0,0.72-0.09,1.05-0.28l1.72-0.99c1.09,2.35,1.81,4.9,2.05,7.59h-2c-1.16,0-2.1,0.94-2.1,2.1
			c0,1.16,0.94,2.1,2.1,2.1h2c-0.24,2.69-0.97,5.24-2.05,7.59l-1.72-0.99c-1.01-0.58-2.3-0.24-2.88,0.77
			c-0.58,1.01-0.24,2.29,0.77,2.88l1.71,0.99C48.74,47.49,46.86,49.37,44.71,50.89z"/>
		<path d="M14,32c0-1.1-0.9-2-2-2H8c-1.1,0-2,0.9-2,2s0.9,2,2,2h4C13.1,34,14,33.1,14,32z"/>
	</g>
</g>
</svg>
