<?xml version="1.0" encoding="utf-8"?>
<!-- Generator: Adobe Illustrator 23.0.1, SVG Export Plug-In . SVG Version: 6.00 Build 0)  -->
<svg version="1.1" id="Camada_1" xmlns="http://www.w3.org/2000/svg" xmlns:xlink="http://www.w3.org/1999/xlink" x="0px" y="0px"
	 viewBox="0 0 48 60" style="enable-background:new 0 0 48 60;" xml:space="preserve">
<style type="text/css">
	.st0{stroke:#000000;stroke-miterlimit:10;}
</style>
<g>
	<path class="st0" d="M47,0H32.2c-0.6,0-1,0.4-1,1v5.1c0,0.6,0.4,1,1,1h1.2v22.5L32,28.2c-1.9-1.9-3-4.5-3-7.2v-5.6h1.2
		c0.6,0,1-0.4,1-1V9.9c0-0.6-0.4-1-1-1H17.7c-0.6,0-1,0.4-1,1v4.6c0,0.6,0.4,1,1,1h1.8v5.6c0,2.7-1.1,5.3-3,7.2l-1.9,1.9V7.1h1.2
		c0.6,0,1-0.4,1-1V1c0-0.6-0.4-1-1-1H1C0.5,0,0,0.4,0,1v5.1c0,0.6,0.4,1,1,1h1.2v29.3c0,3,2.2,5.6,5.1,6.1c0.1,1.7,0.7,3.5,1.8,5
		C9.3,47.8,9.6,48,9.9,48h28.7c0.4,0,0.7-0.2,0.9-0.6c0.7-1.5,1.1-3.2,1.1-4.9c2.9-0.5,5.1-3.1,5.1-6.1V7.1H47c0.6,0,1-0.4,1-1V1
		C48,0.4,47.5,0,47,0z M18.7,13.5v-2.6h10.7v2.6H18.7z M2,5.1V2h12.8v3.1H2z M7.4,40.5c-1.8-0.5-3.2-2.1-3.2-4.1V7.1h8.4v25.1
		C10,34.1,7,38.9,7.4,40.5z M38,46H10.5c-3.9-7.2,3.8-12.6,3.8-12.6l0,0l3.6-3.6c2.3-2.3,3.6-5.3,3.6-8.6v-5.6h5.6v5.6
		c0,3.2,1.3,6.3,3.6,8.6c0,0,6.5,6.1,6.9,7.5v0.1C38.8,40,39.1,43.4,38,46z M43.8,36.5c0,2-1.4,3.6-3.2,4.1c-0.4-2.7-1.5-5.2-3.3-7
		l-1.9-1.9V7.1h8.4L43.8,36.5z M46,5.1H33.2V2H46V5.1z"/>
</g>
</svg>
