<svg id="Componente_11_1" data-name="Componente 11 – 1" xmlns="http://www.w3.org/2000/svg" xmlns:xlink="http://www.w3.org/1999/xlink" width="404.618" height="156.096" viewBox="0 0 404.618 156.096">
  <defs>
    <clipPath id="clip-path">
      <path id="Caminho_310" data-name="Caminho 310" d="M1782.877,4753.033v42.8H1807.4v-9.494a22.638,22.638,0,0,1,45.275,0v9.494h53.759v-42.8Z" transform="translate(-1782.877 -4753.033)" fill="none"/>
    </clipPath>
    <clipPath id="clip-path-2">
      <rect id="Retângulo_24" data-name="Retângulo 24" width="42.804" height="42.803" fill="none"/>
    </clipPath>
    <clipPath id="clip-path-3">
      <path id="Caminho_306" data-name="Caminho 306" d="M486.128,4531.465a22.485,22.485,0,0,0,.587,5.118,41.905,41.905,0,0,1-2.744,27.072,27.044,27.044,0,1,0,49.009-.377,40.492,40.492,0,0,1-2.568-26.689,22.455,22.455,0,0,0-20.973-27.543c-.293-.011-.585-.018-.875-.018a22.437,22.437,0,0,0-22.436,22.437" transform="translate(-481.521 -4509.028)" fill="none"/>
    </clipPath>
  </defs>
  <g id="Grupo_273" data-name="Grupo 273" transform="translate(-1801.486 -4426.669)">
    <rect id="Retângulo_19" data-name="Retângulo 19" width="82.991" height="117.64" transform="translate(1924.167 4465.125)" fill="#ffd780"/>
    <path id="Caminho_301" data-name="Caminho 301" d="M2014.208,4459.894h-97.091a.63.63,0,0,1-.346-1.157l48.546-31.963a.629.629,0,0,1,.693,0l48.546,31.963a.63.63,0,0,1-.347,1.157m-94.989-1.26H2012.1l-46.443-30.58Z" fill="#b3193d"/>
    <path id="Caminho_302" data-name="Caminho 302" d="M2003.9,4597.522h-51.768v-63.454a25.884,25.884,0,0,1,51.768,0Z" transform="translate(-12.351 -28.247)" fill="#3d2014"/>
  </g>
  <g id="Grupo_281" data-name="Grupo 281" transform="translate(-1494.952 -4666.523)">
    <path id="Caminho_307" data-name="Caminho 307" d="M1782.877,4762.674v36.261H1807.4v-9.494a22.637,22.637,0,0,1,45.274,0v9.494h53.759v-36.261Z" transform="translate(-9.299 -3.1)" fill="#128080"/>
    <g id="Grupo_278" data-name="Grupo 278" transform="translate(1773.578 4753.033)">
      <g id="Grupo_277" data-name="Grupo 277" transform="translate(0 0)" clip-path="url(#clip-path)">
        <path id="Caminho_308" data-name="Caminho 308" d="M1817.773,4822.175l-.269-1.606c-.134-.81-1.405-.763-1.309.035a22.858,22.858,0,0,1-7.982-17.11c.065-7.435,4.512-14.788,11.4-17.779a24.831,24.831,0,0,1,12.447-1.649c.828.085,1.109-1.194.269-1.281a27.013,27.013,0,0,0-11.8,1.167,19.819,19.819,0,0,0-9.366,6.944,21.987,21.987,0,0,0-2.335,21.84,25.13,25.13,0,0,0,7.844,9.956c.4.3,1.2.108,1.1-.517" transform="translate(-1790.619 -4762.54)" fill="#b3193d"/>
        <path id="Caminho_309" data-name="Caminho 309" d="M1801.94,4771.391a8.277,8.277,0,0,0-4.1-5.161.655.655,0,0,0-.606,1.16,7.123,7.123,0,0,1,3.681,5.452,8.115,8.115,0,0,1-2.224,6.524c-3.55,3.85-9.231,4.061-13.834,2.18-.772-.314-1.387.841-.607,1.16,4.1,1.675,8.94,1.957,12.854-.386,3.743-2.241,6.059-6.6,4.84-10.93" transform="translate(-1783.201 -4757.251)" fill="#b3193d"/>
      </g>
    </g>
    <path id="Caminho_311" data-name="Caminho 311" d="M1753.952,4753.033v42.8h24.528v-9.494a22.637,22.637,0,0,1,45.275,0v9.494h53.759v-42.8Z" transform="translate(0 0)" fill="#ffd780"/>
    <rect id="Retângulo_23" data-name="Retângulo 23" width="42.803" height="42.803" transform="translate(1856.766 4753.032)" fill="#128080"/>
    <g id="Grupo_280" data-name="Grupo 280" transform="translate(1856.766 4753.032)">
      <g id="Grupo_279" data-name="Grupo 279" clip-path="url(#clip-path-2)">
        <path id="Caminho_312" data-name="Caminho 312" d="M1953.352,4828.049q-.135-.8-.269-1.605c-.135-.81-1.4-.763-1.308.034a22.857,22.857,0,0,1-7.983-17.11c.064-7.435,4.511-14.788,11.4-17.779a24.836,24.836,0,0,1,12.448-1.649c.828.085,1.109-1.194.269-1.281a27.011,27.011,0,0,0-11.8,1.167,19.819,19.819,0,0,0-9.365,6.944,21.983,21.983,0,0,0-2.335,21.84,25.126,25.126,0,0,0,7.843,9.956c.4.3,1.2.109,1.1-.517" transform="translate(-1917.396 -4764.427)" fill="#b3193d"/>
        <path id="Caminho_313" data-name="Caminho 313" d="M1906.753,4795.353a8.278,8.278,0,0,0-6.325,1.864.655.655,0,0,0,.847,1,7.126,7.126,0,0,1,6.436-1.364,8.123,8.123,0,0,1,5.21,4.514c2.233,4.737.292,10.081-3.179,13.639-.582.6.258,1.6.847,1,3.094-3.172,5.174-7.548,4.474-12.057-.669-4.312-3.836-8.093-8.309-8.593" transform="translate(-1903.785 -4766.62)" fill="#b3193d"/>
        <path id="Caminho_314" data-name="Caminho 314" d="M1935.053,4735.168a8.5,8.5,0,0,0-5.2-1.611c-.018-.784-1.26-.77-1.3.05l0,.056c-.307.052-.619.114-.929.178-.328-.4-.646-.8-.94-1.224a20.976,20.976,0,0,1-1.706-2.951,19.945,19.945,0,0,1,1.5-19.814,19.935,19.935,0,0,1,2.428-2.965c.9-.907,2.21-2.353,3.626-2.035.82.185,1.17-1.075.349-1.261a4.331,4.331,0,0,0-3.764,1.316,20.229,20.229,0,0,0-3.018,3.233,21.334,21.334,0,0,0-.841,24.7c.3.458.627.9.963,1.333a10.286,10.286,0,0,0-6.285,4.1,7.983,7.983,0,0,0,1.228,9.595,9.049,9.049,0,0,0,9.891,1.631,10.587,10.587,0,0,0,5.948-8.614,6.577,6.577,0,0,0-1.95-5.717m-3.826,12.779a7.817,7.817,0,0,1-8.716-.618,6.7,6.7,0,0,1-1.669-8.012c1.247-2.333,3.747-3.419,6.269-4.029a3.508,3.508,0,0,0,1.293,1.114c1.06.415,1.991-.726,1.414-1.539a7.678,7.678,0,0,1,4.069,1.056,4.89,4.89,0,0,1,1.847,4.238,9.342,9.342,0,0,1-4.507,7.791" transform="translate(-1909.782 -4737.11)" fill="#b3193d"/>
      </g>
    </g>
  </g>
  <g id="Grupo_276" data-name="Grupo 276" transform="translate(-481.52 -4486.301)">
    <path id="Caminho_303" data-name="Caminho 303" d="M530.411,4536.588a22.435,22.435,0,1,0-43.7-.006,41.9,41.9,0,0,1-2.743,27.072,27.044,27.044,0,1,0,49.008-.376,40.5,40.5,0,0,1-2.568-26.69" transform="translate(0 0)" fill="#76c6d4"/>
    <g id="Grupo_275" data-name="Grupo 275" transform="translate(481.521 4509.028)">
      <g id="Grupo_274" data-name="Grupo 274" clip-path="url(#clip-path-3)">
        <path id="Caminho_304" data-name="Caminho 304" d="M563.25,4547.848l-.829-1.149-12.983,9.359,9.113-23.969-1.326-.5-9.876,25.98-27.742,20,.83,1.15,15.336-11.059,25.328,12.5.628-1.272-24.654-12.171Z" transform="translate(-491.595 -4514.995)" fill="#610047"/>
        <rect id="Retângulo_20" data-name="Retângulo 20" width="53.093" height="1.418" transform="translate(27.982 22.82) rotate(-38.771)" fill="#610047"/>
        <path id="Caminho_305" data-name="Caminho 305" d="M457.849,4573.7l28.342-21.982,16.987,7.231.557-1.305-44.161-18.8-.557,1.3L484.7,4551.08l-27.719,21.5Z" transform="translate(-475.03 -4516.914)" fill="#610047"/>
        <rect id="Retângulo_21" data-name="Retângulo 21" width="1.418" height="50.09" transform="translate(-19.796 66.6) rotate(-73.473)" fill="#610047"/>
      </g>
    </g>
    <rect id="Retângulo_22" data-name="Retângulo 22" width="1.418" height="109.825" transform="translate(509.238 4509.045)" fill="#610047"/>
  </g>
</svg>
