<svg xmlns="http://www.w3.org/2000/svg" width="113.839" height="73.922" viewBox="0 0 113.839 73.922">
  <g id="Componente_6_1" data-name="Componente 6 – 1" transform="translate(0.692 0.64)">
    <g id="Grupo_161" data-name="Grupo 161">
      <g id="Grupo_160" data-name="Grupo 160" transform="translate(0 0)">
        <g id="Grupo_159" data-name="Grupo 159">
          <g id="Grupo_158" data-name="Grupo 158" transform="translate(0)">
            <g id="Diamantes">
              <path id="Caminho_1" data-name="Caminho 1" d="M5781.488,1102.671l18.736-32.451h-37.471Z" transform="translate(-5687.758 -1029.889)" fill="none" stroke="#fff" stroke-linecap="round" stroke-linejoin="round" stroke-width="1"/>
              <path id="Caminho_2" data-name="Caminho 2" d="M5694.886,1102.671l18.735-32.451H5676.15Z" transform="translate(-5638.626 -1029.889)" fill="none" stroke="#fff" stroke-linecap="round" stroke-linejoin="round" stroke-width="1"/>
              <path id="Caminho_3" data-name="Caminho 3" d="M5608.284,1102.671l18.734-32.451h-37.47Z" transform="translate(-5589.494 -1029.889)" fill="none" stroke="#fff" stroke-linecap="round" stroke-linejoin="round" stroke-width="1"/>
              <path id="Caminho_4" data-name="Caminho 4" d="M5781.488,1027.671l18.736-32.45h-37.471Z" transform="translate(-5687.758 -987.34)" fill="none" stroke="#fff" stroke-linecap="round" stroke-linejoin="round" stroke-width="1"/>
              <path id="Caminho_5" data-name="Caminho 5" d="M5694.886,1027.671l18.735-32.45H5676.15Z" transform="translate(-5638.626 -987.34)" fill="none" stroke="#fff" stroke-linecap="round" stroke-linejoin="round" stroke-width="1"/>
              <path id="Caminho_6" data-name="Caminho 6" d="M5608.284,1027.671l18.734-32.45h-37.47Z" transform="translate(-5589.494 -987.34)" fill="none" stroke="#fff" stroke-linecap="round" stroke-linejoin="round" stroke-width="1"/>
              <path id="Caminho_310" data-name="Caminho 310" d="M0,65.141v-32.7" transform="translate(93.731 -24.809)" fill="none" stroke="#fff" stroke-linecap="round" stroke-width="1"/>
              <line id="Linha_2" data-name="Linha 2" y2="32.451" transform="translate(56.26 40.331)" fill="none" stroke="#fff" stroke-linecap="round" stroke-linejoin="round" stroke-width="1"/>
              <line id="Linha_3" data-name="Linha 3" y2="40.331" transform="translate(18.789 0)" fill="none" stroke="#fff" stroke-linecap="round" stroke-linejoin="round" stroke-width="1"/>
              <line id="Linha_4" data-name="Linha 4" y2="40.331" transform="translate(56.26 0)" fill="none" stroke="#fff" stroke-linecap="round" stroke-linejoin="round" stroke-width="1"/>
              <line id="Linha_5" data-name="Linha 5" y1="32.379" transform="translate(93.731 40.403)" fill="none" stroke="#fff" stroke-linecap="round" stroke-linejoin="round" stroke-width="1"/>
              <path id="Caminho_8" data-name="Caminho 8" d="M5800.225,1059.929l-4.517-7.975h-27.795l-5.159,7.975" transform="translate(-5687.758 -1019.527)" fill="none" stroke="#fff" stroke-linecap="round" stroke-linejoin="round" stroke-width="1"/>
              <path id="Caminho_9" data-name="Caminho 9" d="M5802.472,1051.955l-14.218,39.465-13.576-39.465" transform="translate(-5694.523 -1019.527)" fill="none" stroke="#fff" stroke-linecap="round" stroke-linejoin="round" stroke-width="1"/>
              <line id="Linha_6" data-name="Linha 6" y1="32.379" transform="translate(19.111 40.403)" fill="none" stroke="#fff" stroke-linecap="round" stroke-linejoin="round" stroke-width="1"/>
              <path id="Caminho_10" data-name="Caminho 10" d="M5626.894,1059.929l-4.517-7.975h-27.795l-5.159,7.975" transform="translate(-5589.423 -1019.527)" fill="none" stroke="#fff" stroke-linecap="round" stroke-linejoin="round" stroke-width="1"/>
              <path id="Caminho_11" data-name="Caminho 11" d="M5629.143,1051.955l-14.218,39.465-13.575-39.465" transform="translate(-5596.189 -1019.527)" fill="none" stroke="#fff" stroke-linecap="round" stroke-linejoin="round" stroke-width="1"/>
              <path id="Caminho_12" data-name="Caminho 12" d="M5713.621,984.982l-4.517-7.975h-27.794l-5.16,7.975" transform="translate(-5638.626 -977.007)" fill="none" stroke="#fff" stroke-linecap="round" stroke-linejoin="round" stroke-width="1"/>
              <path id="Caminho_13" data-name="Caminho 13" d="M5715.871,977.007l-14.22,39.465-13.574-39.465" transform="translate(-5645.393 -977.007)" fill="none" stroke="#fff" stroke-linecap="round" stroke-linejoin="round" stroke-width="1"/>
              <path id="Caminho_14" data-name="Caminho 14" d="M5627.018,984.982l-4.516-7.975h-27.794l-5.16,7.975" transform="translate(-5589.494 -977.007)" fill="none" stroke="#fff" stroke-linecap="round" stroke-linejoin="round" stroke-width="1"/>
              <path id="Caminho_15" data-name="Caminho 15" d="M5629.267,977.007l-14.218,39.465-13.575-39.465" transform="translate(-5596.26 -977.007)" fill="none" stroke="#fff" stroke-linecap="round" stroke-linejoin="round" stroke-width="1"/>
            </g>
          </g>
        </g>
      </g>
    </g>
  </g>
</svg>
