<svg xmlns="http://www.w3.org/2000/svg" width="242.16" height="136.651" viewBox="0 0 242.16 136.651"><g transform="translate(1.037 0.96)"><path d="M6343.128,1111.8l24-41.575h-48.006Z" transform="translate(-6175.037 -976.854)" fill="#fff" stroke="#cbcbcb" stroke-linecap="round" stroke-linejoin="round" stroke-width="1.5"/><path d="M6256.525,1111.8l24-41.575h-48.005Z" transform="translate(-6136.441 -976.854)" fill="#fff" stroke="#cbcbcb" stroke-linecap="round" stroke-linejoin="round" stroke-width="1.5"/><path d="M6169.923,1111.8l24-41.575h-48.007Z" transform="translate(-6097.844 -976.854)" fill="#fff" stroke="#cbcbcb" stroke-linecap="round" stroke-linejoin="round" stroke-width="1.5"/><path d="M6083.32,1111.8l24-41.575h-48.006Z" transform="translate(-6059.248 -976.854)" fill="#fff" stroke="#cbcbcb" stroke-linecap="round" stroke-linejoin="round" stroke-width="1.5"/><path d="M6343.128,1036.8l24-41.575h-48.006Z" transform="translate(-6175.037 -943.429)" fill="#fff" stroke="#cbcbcb" stroke-linecap="round" stroke-linejoin="round" stroke-width="1.5"/><path d="M6256.525,1036.8l24-41.575h-48.005Z" transform="translate(-6136.441 -943.429)" fill="#fff" stroke="#cbcbcb" stroke-linecap="round" stroke-linejoin="round" stroke-width="1.5"/><path d="M6169.923,1036.8l24-41.575h-48.007Z" transform="translate(-6097.844 -943.429)" fill="#fff" stroke="#cbcbcb" stroke-linecap="round" stroke-linejoin="round" stroke-width="1.5"/><path d="M6083.32,1036.8l24-41.575h-48.006Z" transform="translate(-6059.248 -943.429)" fill="#fff" stroke="#cbcbcb" stroke-linecap="round" stroke-linejoin="round" stroke-width="1.5"/><path d="M6429.73,961.8l24-41.575h-48.006Z" transform="translate(-6213.633 -910.004)" fill="#fff" stroke="#cbcbcb" stroke-linecap="round" stroke-linejoin="round" stroke-width="1.5"/><path d="M6343.128,961.8l24-41.575h-48.006Z" transform="translate(-6175.037 -910.004)" fill="#fff" stroke="#cbcbcb" stroke-linecap="round" stroke-linejoin="round" stroke-width="1.5"/><path d="M6256.525,961.8l24-41.575h-48.005Z" transform="translate(-6136.441 -910.004)" fill="#fff" stroke="#cbcbcb" stroke-linecap="round" stroke-linejoin="round" stroke-width="1.5"/><line y1="93.366" transform="translate(168.091)" stroke-width="1.5" stroke="#cbcbcb" stroke-linecap="round" stroke-linejoin="round" fill="none"/><line y1="83.149" transform="translate(120.085 10.217)" stroke-width="1.5" stroke="#cbcbcb" stroke-linecap="round" stroke-linejoin="round" fill="none"/><line y2="41.575" transform="translate(72.079 93.366)" stroke-width="1.5" stroke="#cbcbcb" stroke-linecap="round" stroke-linejoin="round" fill="none"/><line y2="51.671" transform="translate(24.073 41.695)" stroke-width="1.5" stroke="#cbcbcb" stroke-linecap="round" stroke-linejoin="round" fill="none"/><line y2="51.671" transform="translate(72.079 41.695)" stroke-width="1.5" stroke="#cbcbcb" stroke-linecap="round" stroke-linejoin="round" fill="none"/><path d="M6367.131,912.007l-5.786-10.217h-35.608l-6.611,10.217" transform="translate(-6175.037 -901.79)" fill="none" stroke="#cbcbcb" stroke-linecap="round" stroke-linejoin="round" stroke-width="1.5"/><path d="M6366.659,901.79l-18.217,50.561-17.392-50.561" transform="translate(-6180.352 -901.79)" fill="none" stroke="#cbcbcb" stroke-linecap="round" stroke-linejoin="round" stroke-width="1.5"/><path d="M6453.733,912.007l-5.786-10.217h-35.609l-6.611,10.217" transform="translate(-6213.633 -901.79)" fill="none" stroke="#cbcbcb" stroke-linecap="round" stroke-linejoin="round" stroke-width="1.5"/><path d="M6453.262,901.79l-18.217,50.561-17.393-50.561" transform="translate(-6218.948 -901.79)" fill="none" stroke="#cbcbcb" stroke-linecap="round" stroke-linejoin="round" stroke-width="1.5"/><line y1="41.483" transform="translate(120.085 93.458)" stroke-width="1.5" stroke="#cbcbcb" stroke-linecap="round" stroke-linejoin="round" fill="none"/><path d="M6280.528,1062.171l-5.786-10.217h-35.609l-6.61,10.217" transform="translate(-6136.441 -968.714)" fill="none" stroke="#cbcbcb" stroke-linecap="round" stroke-linejoin="round" stroke-width="1.5"/><path d="M6280.056,1051.955l-18.216,50.561-17.393-50.561" transform="translate(-6141.755 -968.714)" fill="none" stroke="#cbcbcb" stroke-linecap="round" stroke-linejoin="round" stroke-width="1.5"/><line y1="41.483" transform="translate(24.484 93.458)" stroke-width="1.5" stroke="#cbcbcb" stroke-linecap="round" stroke-linejoin="round" fill="none"/><path d="M6107.2,1062.171l-5.786-10.217H6065.8l-6.611,10.217" transform="translate(-6059.191 -968.714)" fill="none" stroke="#cbcbcb" stroke-linecap="round" stroke-linejoin="round" stroke-width="1.5"/><path d="M6106.727,1051.955l-18.217,50.561-17.393-50.561" transform="translate(-6064.507 -968.714)" fill="none" stroke="#cbcbcb" stroke-linecap="round" stroke-linejoin="round" stroke-width="1.5"/><line y1="41.483" transform="translate(168.091 93.458)" stroke-width="1.5" stroke="#cbcbcb" stroke-linecap="round" stroke-linejoin="round" fill="none"/><path d="M6367.513,1061.264l-5.786-10.217h-35.609l-6.611,10.217" transform="translate(-6175.207 -968.309)" fill="none" stroke="#cbcbcb" stroke-linecap="round" stroke-linejoin="round" stroke-width="1.5"/><path d="M6367.4,1051.955l-18.217,50.561-17.392-50.561" transform="translate(-6180.683 -968.714)" fill="none" stroke="#cbcbcb" stroke-linecap="round" stroke-linejoin="round" stroke-width="1.5"/><path d="M6193.926,987.224l-5.787-10.217h-35.609l-6.611,10.217" transform="translate(-6097.844 -935.312)" fill="none" stroke="#cbcbcb" stroke-linecap="round" stroke-linejoin="round" stroke-width="1.5"/><path d="M6193.455,977.007l-18.217,50.561-17.392-50.561" transform="translate(-6103.159 -935.312)" fill="none" stroke="#cbcbcb" stroke-linecap="round" stroke-linejoin="round" stroke-width="1.5"/><path d="M6107.323,987.224l-5.787-10.217h-35.609l-6.61,10.217" transform="translate(-6059.248 -935.312)" fill="none" stroke="#cbcbcb" stroke-linecap="round" stroke-linejoin="round" stroke-width="1.5"/><path d="M6106.853,977.007l-18.217,50.561-17.394-50.561" transform="translate(-6064.563 -935.312)" fill="none" stroke="#cbcbcb" stroke-linecap="round" stroke-linejoin="round" stroke-width="1.5"/></g></svg>