<svg xmlns="http://www.w3.org/2000/svg" width="418.382" height="76.888" viewBox="0 0 418.382 76.888"><g transform="translate(1.383 1.28)"><path d="M5797.411,1055.251l34.658-60.03h-69.316Z" transform="translate(-5416.07 -980.643)" fill="none" stroke="#ffe7f9" stroke-linecap="round" stroke-linejoin="round" stroke-width="2"/><path d="M5710.808,1055.251l34.659-60.03H5676.15Z" transform="translate(-5398.783 -980.643)" fill="none" stroke="#ffe7f9" stroke-linecap="round" stroke-linejoin="round" stroke-width="2"/><path d="M5624.206,1055.251l34.658-60.03h-69.316Z" transform="translate(-5381.498 -980.643)" fill="none" stroke="#ffe7f9" stroke-linecap="round" stroke-linejoin="round" stroke-width="2"/><line y1="60.03" transform="translate(173.292 14.578)" stroke-width="2" stroke="#ffe7f9" stroke-linecap="round" stroke-linejoin="round" fill="none"/><line y2="74.608" transform="translate(242.708)" stroke-width="2" stroke="#ffe7f9" stroke-linecap="round" stroke-linejoin="round" fill="none"/><line y2="74.608" transform="translate(312.025)" stroke-width="2" stroke="#ffe7f9" stroke-linecap="round" stroke-linejoin="round" fill="none"/><path d="M5745.467,991.76l-8.355-14.752h-51.417l-9.545,14.752" transform="translate(-5398.783 -977.007)" fill="none" stroke="#ffe7f9" stroke-linecap="round" stroke-linejoin="round" stroke-width="2"/><path d="M5739.492,977.007l-26.3,73.005-25.113-73.005" transform="translate(-5401.164 -977.007)" fill="none" stroke="#ffe7f9" stroke-linecap="round" stroke-linejoin="round" stroke-width="2"/><path d="M5658.864,991.76l-8.355-14.752h-51.416l-9.545,14.752" transform="translate(-5381.498 -977.007)" fill="none" stroke="#ffe7f9" stroke-linecap="round" stroke-linejoin="round" stroke-width="2"/><path d="M5652.889,977.007l-26.3,73.005-25.113-73.005" transform="translate(-5383.877 -977.007)" fill="none" stroke="#ffe7f9" stroke-linecap="round" stroke-linejoin="round" stroke-width="2"/><path d="M5537.478,1055.251l34.659-60.03H5502.82Z" transform="translate(-5364.187 -980.643)" fill="none" stroke="#ffe7f9" stroke-linecap="round" stroke-linejoin="round" stroke-width="2"/><path d="M5450.876,1055.251l34.658-60.03h-69.316Z" transform="translate(-5346.901 -980.643)" fill="none" stroke="#ffe7f9" stroke-linecap="round" stroke-linejoin="round" stroke-width="2"/><path d="M5364.273,1055.251l34.659-60.03h-69.317Z" transform="translate(-5329.615 -980.643)" fill="none" stroke="#ffe7f9" stroke-linecap="round" stroke-linejoin="round" stroke-width="2"/><line y2="74.608" transform="translate(34.658)" stroke-width="2" stroke="#ffe7f9" stroke-linecap="round" stroke-linejoin="round" fill="none"/><line y2="74.608" transform="translate(103.976)" stroke-width="2" stroke="#ffe7f9" stroke-linecap="round" stroke-linejoin="round" fill="none"/><path d="M5485.534,991.76l-8.355-14.752h-51.416l-9.545,14.752" transform="translate(-5346.901 -977.007)" fill="none" stroke="#ffe7f9" stroke-linecap="round" stroke-linejoin="round" stroke-width="2"/><path d="M5479.559,977.007l-26.3,73.005-25.113-73.005" transform="translate(-5349.281 -977.007)" fill="none" stroke="#ffe7f9" stroke-linecap="round" stroke-linejoin="round" stroke-width="2"/><path d="M5398.932,991.76l-8.355-14.752H5339.16l-9.545,14.752" transform="translate(-5329.615 -977.007)" fill="none" stroke="#ffe7f9" stroke-linecap="round" stroke-linejoin="round" stroke-width="2"/><path d="M5392.957,977.007l-26.3,73.005-25.113-73.005" transform="translate(-5331.995 -977.007)" fill="none" stroke="#ffe7f9" stroke-linecap="round" stroke-linejoin="round" stroke-width="2"/></g></svg>