<svg id="Componente_13_1" data-name="Componente 13 – 1" xmlns="http://www.w3.org/2000/svg" width="334" height="344.311" viewBox="0 0 334 344.311">
  <g id="Grupo_53" data-name="Grupo 53" transform="matrix(0.985, 0.174, -0.174, 0.985, 74.486, 236.201)">
    <path id="Caminho_191" data-name="Caminho 191" d="M6325.428,801.769a1,1,0,0,1-.048-1.991l.487-.027a1,1,0,0,1,.118,1.988l-.507.027Zm-4.975-.005-.053,0-.507-.029a1,1,0,0,1,.124-1.988l.488.028a1,1,0,0,1-.052,1.991Zm10.417-.579a1,1,0,0,1-.162-1.978l.481-.082a1,1,0,0,1,.346,1.962l-.5.085A.982.982,0,0,1,6330.871,801.185Zm-15.857-.018a1.088,1.088,0,0,1-.168-.014l-.5-.087a1,1,0,0,1,.353-1.96l.48.083a1,1,0,0,1-.166,1.978Zm21.194-1.184a1,1,0,0,1-.276-1.953l.469-.138a1,1,0,0,1,.57,1.909l-.484.142A.976.976,0,0,1,6336.208,799.982Zm-26.531-.032a.98.98,0,0,1-.278-.04l-.487-.143a1,1,0,0,1,.574-1.908l.468.138a1,1,0,0,1-.277,1.953Zm31.7-1.779a1,1,0,0,1-.384-1.915l.448-.19a1,1,0,0,1,.785,1.831l-.467.2A1,1,0,0,1,6341.372,798.171Zm-36.858-.045a1,1,0,0,1-.383-.077l-.469-.2a1,1,0,1,1,.787-1.829l.45.191a1,1,0,0,1-.385,1.915Zm41.779-2.347a1,1,0,0,1-.486-1.866l.424-.24a1,1,0,0,1,.989,1.729l-.443.25A.993.993,0,0,1,6346.293,795.78Zm-46.7-.059a.989.989,0,0,1-.488-.129q-.223-.125-.443-.253a1,1,0,1,1,1-1.723q.211.122.423.241a1,1,0,0,1-.49,1.864Zm51.315-2.881a1,1,0,0,1-.581-1.805c.131-.094.26-.189.39-.285a1,1,0,0,1,1.185,1.6c-.138.1-.275.2-.415.3A.986.986,0,0,1,6350.909,792.84Zm-55.925-.072a.988.988,0,0,1-.584-.19l-.41-.3a1,1,0,1,1,1.185-1.6l.394.289a1,1,0,0,1-.584,1.8Zm60.177-3.376a1,1,0,0,1-.673-1.73l.359-.332a1,1,0,0,1,1.359,1.457l-.373.343A.992.992,0,0,1,6355.161,789.393Zm-64.421-.084a.991.991,0,0,1-.672-.262l-.373-.344a1,1,0,0,1,1.359-1.457l.358.332a1,1,0,0,1-.673,1.73Zm68.252-3.825a1,1,0,0,1-.748-1.653l.32-.368a1,1,0,0,1,1.511,1.3q-.166.193-.334.385A.993.993,0,0,1,6358.992,785.484Zm-72.073-.092a.993.993,0,0,1-.751-.343c-.112-.128-.223-.257-.332-.386a1,1,0,1,1,1.518-1.289c.105.123.21.246.317.368a1,1,0,0,1-.751,1.65Zm75.437-4.227a1,1,0,0,1-.817-1.564q.138-.2.274-.4a1,1,0,1,1,1.65,1.115q-.142.21-.288.421A1,1,0,0,1,6362.355,781.164Zm-78.788-.1a1,1,0,0,1-.822-.433l-.284-.419a1,1,0,1,1,1.653-1.111l.274.4a1,1,0,0,1-.82,1.559Zm-2.835-4.679a1,1,0,0,1-.881-.531l-.234-.446a1,1,0,0,1,1.769-.918l.227.433a1,1,0,0,1-.88,1.461Zm-2.283-4.975a1,1,0,0,1-.928-.634l-.182-.474a1,1,0,1,1,1.862-.706l.176.456a1,1,0,0,1-.566,1.29A.984.984,0,0,1,6278.449,771.411Zm-1.695-5.205a1,1,0,0,1-.963-.745l-.126-.49a1,1,0,0,1,1.932-.487l.121.475a.994.994,0,0,1-.711,1.215A.984.984,0,0,1,6276.754,766.206Zm-1.083-5.365a1,1,0,0,1-.985-.856c-.024-.168-.048-.337-.07-.506a1,1,0,0,1,1.977-.255c.021.16.042.32.065.48a1,1,0,0,1-.845,1.127A.942.942,0,0,1,6275.671,760.841Zm-.463-5.453a1,1,0,0,1-1-.967c0-.17-.008-.339-.011-.51a.994.994,0,0,1,.979-1.012h.017a.994.994,0,0,1,.994.979c0,.162.008.323.012.484a1,1,0,0,1-.966,1.025Z" transform="translate(-6274.202 -752.9)" fill="#fff"/>
    <path id="Caminho_317" data-name="Caminho 317" d="M6300.472,777.961a.511.511,0,0,1-.025-1.021l.25-.014a.511.511,0,1,1,.061,1.02l-.26.014Zm-2.551,0h-.027l-.26-.015a.511.511,0,0,1,.063-1.019l.251.014a.511.511,0,0,1-.027,1.021Zm5.342-.3a.511.511,0,0,1-.083-1.014l.247-.042a.511.511,0,0,1,.177,1.006l-.257.044A.508.508,0,0,1,6303.263,777.661Zm-8.132-.009a.562.562,0,0,1-.086-.007l-.257-.045a.511.511,0,0,1,.181-1.005l.247.043a.511.511,0,0,1-.085,1.015Zm10.868-.607a.511.511,0,0,1-.142-1l.241-.071a.511.511,0,0,1,.292.979l-.249.073A.5.5,0,0,1,6306,777.044Zm-13.6-.016a.5.5,0,0,1-.143-.021l-.25-.073a.511.511,0,0,1,.294-.978l.24.071a.511.511,0,0,1-.142,1Zm16.253-.912a.511.511,0,0,1-.2-.982l.229-.1a.511.511,0,0,1,.4.939l-.239.1A.513.513,0,0,1,6308.647,776.116Zm-18.9-.023a.513.513,0,0,1-.2-.039l-.24-.1a.51.51,0,1,1,.4-.938l.231.1a.511.511,0,0,1-.2.982Zm21.425-1.2a.511.511,0,0,1-.249-.957l.217-.123a.511.511,0,0,1,.507.887l-.227.128A.509.509,0,0,1,6311.171,774.889Zm-23.948-.03a.508.508,0,0,1-.25-.066l-.227-.13a.511.511,0,1,1,.512-.884l.217.124a.511.511,0,0,1-.251.956Zm26.315-1.477a.511.511,0,0,1-.3-.926l.2-.146a.511.511,0,0,1,.608.821l-.213.154A.505.505,0,0,1,6313.538,773.382Zm-28.679-.037a.508.508,0,0,1-.3-.1l-.21-.154a.511.511,0,1,1,.607-.821l.2.148a.511.511,0,0,1-.3.924Zm30.859-1.731a.511.511,0,0,1-.345-.887l.184-.17a.511.511,0,1,1,.7.747l-.191.176A.509.509,0,0,1,6315.719,771.614Zm-33.036-.043a.508.508,0,0,1-.345-.134l-.191-.176a.511.511,0,0,1,.7-.747l.184.17a.511.511,0,0,1-.345.887Zm35-1.962a.511.511,0,0,1-.384-.848l.164-.189a.51.51,0,1,1,.774.665c-.057.066-.113.132-.171.2A.508.508,0,0,1,6317.684,769.609Zm-36.96-.047a.509.509,0,0,1-.385-.176q-.086-.1-.17-.2a.511.511,0,1,1,.778-.661l.163.189a.511.511,0,0,1-.385.846Zm38.685-2.168a.511.511,0,0,1-.419-.8q.071-.1.141-.206a.511.511,0,0,1,.847.572l-.148.216A.51.51,0,0,1,6319.408,767.394Zm-40.4-.051a.511.511,0,0,1-.422-.222l-.146-.215a.511.511,0,1,1,.848-.57l.141.207a.511.511,0,0,1-.421.8Zm-1.454-2.4a.511.511,0,0,1-.452-.272l-.12-.229a.511.511,0,1,1,.907-.471l.116.222a.511.511,0,0,1-.451.749Zm-1.171-2.551a.511.511,0,0,1-.476-.325l-.093-.243a.511.511,0,1,1,.955-.362l.091.234a.511.511,0,0,1-.291.661A.506.506,0,0,1,6276.38,762.393Zm-.869-2.669a.511.511,0,0,1-.494-.382l-.064-.251a.511.511,0,0,1,.991-.25l.062.243a.51.51,0,0,1-.494.64Zm-.556-2.751a.511.511,0,0,1-.5-.439c-.013-.086-.024-.173-.036-.259a.511.511,0,0,1,1.014-.131c.011.082.021.164.034.246a.511.511,0,0,1-.434.578A.475.475,0,0,1,6274.955,756.972Zm-.237-2.8a.512.512,0,0,1-.511-.5c0-.087,0-.174,0-.261a.509.509,0,0,1,.5-.519h.009a.51.51,0,0,1,.51.5c0,.083,0,.165.006.248a.51.51,0,0,1-.5.526Z" transform="translate(6467.395 -1181.881) rotate(163)" fill="#fff"/>
  </g>
  <g id="Grupo_55" data-name="Grupo 55" transform="translate(0 228.033)">
    <path id="Caminho_193" data-name="Caminho 193" d="M6002.07,647.56h-44.1a.994.994,0,0,1-.806-.412l-7.549-10.465a.993.993,0,0,1-.112-.962l21.275-51.338v-30a.994.994,0,0,1,.994-.993h16.273a.994.994,0,0,1,.994.993v30l21.5,51.336a.993.993,0,0,1-.111.965l-7.549,10.465A.993.993,0,0,1,6002.07,647.56Zm-43.6-1.987h43.088l6.927-9.6-21.365-51.007a1,1,0,0,1-.077-.384v-29.2h-14.286v29.2a.989.989,0,0,1-.076.38l-21.14,51.008Z" transform="translate(-5949.422 -553.39)" fill="#fff"/>
  </g>
  <g id="Grupo_56" data-name="Grupo 56" transform="translate(27.84 213.29)">
    <path id="Caminho_194" data-name="Caminho 194" d="M6029.888,556.3a13.744,13.744,0,1,1,13.743-13.744A13.759,13.759,0,0,1,6029.888,556.3Zm0-25.316a11.573,11.573,0,1,0,11.573,11.573A11.585,11.585,0,0,0,6029.888,530.986Z" transform="translate(-6016.145 -528.815)" fill="#fff"/>
  </g>
  <g id="Grupo_57" data-name="Grupo 57" transform="translate(20.258 192.259)">
    <path id="Caminho_195" data-name="Caminho 195" d="M6004.454,515.657a7.617,7.617,0,1,1,7.616-7.617A7.626,7.626,0,0,1,6004.454,515.657Zm0-13.062a5.445,5.445,0,1,0,5.446,5.445A5.452,5.452,0,0,0,6004.454,502.6Z" transform="translate(-5996.837 -500.424)" fill="#fff"/>
  </g>
  <g id="Grupo_58" data-name="Grupo 58" transform="translate(31.81 175.241)">
    <path id="Caminho_196" data-name="Caminho 196" d="M6024.09,491.382a4.662,4.662,0,1,1,4.662-4.662A4.667,4.667,0,0,1,6024.09,491.382Zm0-7.152a2.49,2.49,0,1,0,2.49,2.49A2.493,2.493,0,0,0,6024.09,484.23Z" transform="translate(-6019.429 -482.059)" fill="#fff"/>
  </g>
  <g id="Grupo_194" data-name="Grupo 194" transform="translate(-5975.698 -394.151)">
    <g id="Grupo_60" data-name="Grupo 60" transform="translate(6213.198 678.902)">
      <path id="Caminho_198" data-name="Caminho 198" d="M5762.467,744.535a.789.789,0,0,1-.682-.394L5739.8,706.069a.788.788,0,0,1,.682-1.182h43.962a.788.788,0,0,1,.683,1.182l-21.981,38.072A.788.788,0,0,1,5762.467,744.535Zm-20.617-38.072,20.617,35.709,20.617-35.709Z" transform="translate(-5739.699 -704.887)" fill="#fff"/>
    </g>
    <g id="Grupo_64" data-name="Grupo 64" transform="translate(6235.179 669.656)">
      <path id="Caminho_202" data-name="Caminho 202" d="M5810.246,724.438a.788.788,0,0,1-.788-.788V676.332a.788.788,0,1,1,1.575,0V723.65A.787.787,0,0,1,5810.246,724.438Z" transform="translate(-5809.458 -675.544)" fill="#fff"/>
    </g>
    <g id="Grupo_65" data-name="Grupo 65" transform="translate(6213.198 669.656)">
      <path id="Caminho_203" data-name="Caminho 203" d="M5784.448,686.476a.787.787,0,0,1-.686-.4l-5.073-8.957h-31.722l-5.821,9a.788.788,0,0,1-1.323-.856l6.054-9.356a.789.789,0,0,1,.661-.36h32.61a.788.788,0,0,1,.686.4l5.3,9.356a.787.787,0,0,1-.685,1.176Z" transform="translate(-5739.698 -675.544)" fill="#fff"/>
    </g>
    <g id="Grupo_66" data-name="Grupo 66" transform="translate(6219.251 669.656)">
      <path id="Caminho_204" data-name="Caminho 204" d="M5775.625,723.42h-.006a.787.787,0,0,1-.739-.531l-15.928-46.3a.788.788,0,1,1,1.49-.513l15.2,44.186,15.924-44.2a.788.788,0,1,1,1.482.534l-16.682,46.3A.787.787,0,0,1,5775.625,723.42Z" transform="translate(-5758.91 -675.543)" fill="#fff"/>
    </g>
  </g>
  <g id="Grupo_193" data-name="Grupo 193" transform="translate(-5961.698 -368.151)">
    <g id="Grupo_61" data-name="Grupo 61" transform="translate(6240.871 633.541)">
      <path id="Caminho_199" data-name="Caminho 199" d="M5850.292,600.576a.789.789,0,0,1-.682-.394l-21.981-38.072a.788.788,0,0,1,.682-1.182h43.962a.788.788,0,0,1,.683,1.182l-21.981,38.072A.789.789,0,0,1,5850.292,600.576ZM5829.675,562.5l20.617,35.709,20.617-35.709Z" transform="translate(-5827.523 -560.928)" fill="#fff"/>
    </g>
    <g id="Grupo_63" data-name="Grupo 63" transform="translate(6262.852 624.296)">
      <path id="Caminho_201" data-name="Caminho 201" d="M5898.07,580.479a.788.788,0,0,1-.788-.788V532.374a.788.788,0,0,1,1.576,0v47.318A.788.788,0,0,1,5898.07,580.479Z" transform="translate(-5897.282 -531.586)" fill="#fff"/>
    </g>
    <g id="Grupo_67" data-name="Grupo 67" transform="translate(6240.871 624.296)">
      <path id="Caminho_205" data-name="Caminho 205" d="M5872.273,542.517a.788.788,0,0,1-.687-.4l-5.073-8.957h-31.722l-5.82,9a.788.788,0,0,1-1.323-.856l6.053-9.356a.789.789,0,0,1,.662-.36h32.609a.789.789,0,0,1,.686.4l5.3,9.356a.788.788,0,0,1-.685,1.176Z" transform="translate(-5827.522 -531.586)" fill="#fff"/>
    </g>
    <path id="Caminho_206" data-name="Caminho 206" d="M5863.449,579.462h-.006a.788.788,0,0,1-.739-.531l-15.928-46.3a.788.788,0,0,1,1.49-.513l15.2,44.186,15.924-44.2a.787.787,0,1,1,1.481.534l-16.682,46.3A.788.788,0,0,1,5863.449,579.462Z" transform="translate(400.19 92.711)" fill="#fff"/>
  </g>
  <g id="Grupo_195" data-name="Grupo 195" transform="translate(-5998.213 -393.262)">
    <g id="Grupo_61-2" data-name="Grupo 61" transform="translate(6240.871 631.314)">
      <path id="Caminho_199-2" data-name="Caminho 199" d="M5844.807,591.025a.6.6,0,0,1-.518-.3l-16.686-28.9a.6.6,0,0,1,.518-.9h33.372a.6.6,0,0,1,.519.9l-16.687,28.9A.6.6,0,0,1,5844.807,591.025Zm-15.65-28.9,15.65,27.107,15.65-27.107Z" transform="translate(-5827.523 -560.928)" fill="#fff"/>
    </g>
    <g id="Grupo_63-2" data-name="Grupo 63" transform="translate(6257.557 624.296)">
      <path id="Caminho_201-2" data-name="Caminho 201" d="M5897.88,568.7a.6.6,0,0,1-.6-.6v-35.92a.6.6,0,0,1,1.2,0V568.1A.6.6,0,0,1,5897.88,568.7Z" transform="translate(-5897.282 -531.586)" fill="#fff"/>
    </g>
    <g id="Grupo_67-2" data-name="Grupo 67" transform="translate(6240.871 624.296)">
      <path id="Caminho_205-2" data-name="Caminho 205" d="M5861.494,539.884a.6.6,0,0,1-.521-.3l-3.851-6.8h-24.081l-4.418,6.829a.6.6,0,1,1-1-.65l4.595-7.1a.6.6,0,0,1,.5-.273h24.754a.6.6,0,0,1,.521.3l4.022,7.1a.6.6,0,0,1-.52.893Z" transform="translate(-5827.523 -531.586)" fill="#fff"/>
    </g>
    <path id="Caminho_206-2" data-name="Caminho 206" d="M5859.423,567.929h0a.6.6,0,0,1-.561-.4l-12.091-35.148a.6.6,0,0,1,1.131-.389l11.539,33.542,12.088-33.55a.6.6,0,1,1,1.125.406l-12.664,35.148A.6.6,0,0,1,5859.423,567.929Z" transform="translate(398.732 92.711)" fill="#fff"/>
  </g>
  <g id="Grupo_196" data-name="Grupo 196" transform="translate(-5956.213 -412.262)">
    <g id="Grupo_61-3" data-name="Grupo 61" transform="translate(6240.871 631.314)">
      <path id="Caminho_199-3" data-name="Caminho 199" d="M5844.807,591.025a.6.6,0,0,1-.518-.3l-16.686-28.9a.6.6,0,0,1,.518-.9h33.372a.6.6,0,0,1,.519.9l-16.687,28.9A.6.6,0,0,1,5844.807,591.025Zm-15.65-28.9,15.65,27.107,15.65-27.107Z" transform="translate(-5827.523 -560.928)" fill="#fff"/>
    </g>
    <g id="Grupo_63-3" data-name="Grupo 63" transform="translate(6257.557 624.296)">
      <path id="Caminho_201-3" data-name="Caminho 201" d="M5897.88,568.7a.6.6,0,0,1-.6-.6v-35.92a.6.6,0,0,1,1.2,0V568.1A.6.6,0,0,1,5897.88,568.7Z" transform="translate(-5897.282 -531.586)" fill="#fff"/>
    </g>
    <g id="Grupo_67-3" data-name="Grupo 67" transform="translate(6240.871 624.296)">
      <path id="Caminho_205-3" data-name="Caminho 205" d="M5861.494,539.884a.6.6,0,0,1-.521-.3l-3.851-6.8h-24.081l-4.418,6.829a.6.6,0,1,1-1-.65l4.595-7.1a.6.6,0,0,1,.5-.273h24.754a.6.6,0,0,1,.521.3l4.022,7.1a.6.6,0,0,1-.52.893Z" transform="translate(-5827.523 -531.586)" fill="#fff"/>
    </g>
    <path id="Caminho_206-3" data-name="Caminho 206" d="M5859.423,567.929h0a.6.6,0,0,1-.561-.4l-12.091-35.148a.6.6,0,0,1,1.131-.389l11.539,33.542,12.088-33.55a.6.6,0,1,1,1.125.406l-12.664,35.148A.6.6,0,0,1,5859.423,567.929Z" transform="translate(398.732 92.711)" fill="#fff"/>
  </g>
  <g id="Grupo_69" data-name="Grupo 69" transform="matrix(-0.998, 0.07, -0.07, -0.998, 156.636, 40.003)">
    <path id="Caminho_207" data-name="Caminho 207" d="M6009.533,672.409s12.562-2.222,41.237,12.33c28.981,14.708,75.95,6.133,109.453-21.114,0,0-3.613,53.183-45.984,33.654S6046.392,644,6009.533,672.409Z" transform="translate(-6009.533 -661.487)" fill="#482e59"/>
  </g>
  <g id="Grupo_114" data-name="Grupo 114" transform="translate(33.191 44.975)">
    <g id="Grupo_80" data-name="Grupo 80" transform="translate(0 0)">
      <g id="Grupo_70" data-name="Grupo 70" transform="translate(1.344 9.709)">
        <path id="Caminho_208" data-name="Caminho 208" d="M6244.873,428.127h0c-16.876-.03-20.624-8.384-20.775-8.739a1.152,1.152,0,0,1,2.116-.909c.056.123,3.493,7.318,18.663,7.345a1.152,1.152,0,0,1,0,2.3Z" transform="translate(-6224.003 -417.785)" fill="#fff" stroke="#c4badc" stroke-width="1"/>
      </g>
      <g id="Grupo_71" data-name="Grupo 71" transform="translate(9.192 28.858)">
        <path id="Caminho_209" data-name="Caminho 209" d="M6250.26,460.973c-12.424,0-13.146-7.357-13.171-7.67,0-.03,0-.06,0-.091v-2.355a1.152,1.152,0,0,1,2.3,0v2.295c.063.478.968,5.518,10.871,5.518a1.152,1.152,0,1,1,0,2.3Z" transform="translate(-6237.085 -449.706)" fill="#fff" stroke="#c4badc" stroke-width="1"/>
      </g>
      <g id="Grupo_72" data-name="Grupo 72" transform="translate(13.195 5.477)">
        <path id="Caminho_210" data-name="Caminho 210" d="M6252.777,419.83c-5.921,0-9.019-2.289-9.019-4.55s3.1-4.55,9.019-4.55,9.019,2.289,9.019,4.55S6258.7,419.83,6252.777,419.83Zm0-6.8c-4.166,0-6.715,1.455-6.715,2.247s2.549,2.247,6.715,2.247,6.714-1.455,6.714-2.247S6256.943,413.032,6252.777,413.032Z" transform="translate(-6243.759 -410.73)" fill="#fff" stroke="#c4badc" stroke-width="1"/>
      </g>
      <g id="Grupo_73" data-name="Grupo 73">
        <path id="Caminho_211" data-name="Caminho 211" d="M6244.13,434.292h-.357c-19.249-.122-20.594-10.168-20.642-10.6l-1.341-12.38a4.508,4.508,0,0,1,.715-2.956c4.393-6.662,20.551-6.746,21.315-6.746h.005c14.755-.234,19.888,4.126,21.623,6.745a4.485,4.485,0,0,1,.716,2.959l-1.34,12.375c-.048.434-1.394,10.48-20.642,10.6Zm-.29-30.379c-4.367,0-16.323,1.025-19.413,5.712a2.191,2.191,0,0,0-.348,1.441l1.34,12.375c.045.334,1.322,8.5,18.558,8.547,17.4-.049,18.548-8.466,18.558-8.552l1.34-12.372a2.179,2.179,0,0,0-.346-1.438c-1.188-1.792-5.479-5.938-19.687-5.714Z" transform="translate(-6221.763 -401.601)" fill="#fff" stroke="#c4badc" stroke-width="1"/>
      </g>
      <g id="Grupo_74" data-name="Grupo 74" transform="translate(21.062 9.714)">
        <path id="Caminho_212" data-name="Caminho 212" d="M6258.024,428.13a1.151,1.151,0,0,1,0-2.3c15.224-.027,18.63-7.273,18.663-7.346a1.152,1.152,0,0,1,2.116.911c-.151.355-3.9,8.709-20.775,8.739Z" transform="translate(-6256.872 -417.794)" fill="#fff" stroke="#c4badc" stroke-width="1"/>
      </g>
      <g id="Grupo_75" data-name="Grupo 75" transform="translate(20.909 28.858)">
        <path id="Caminho_213" data-name="Caminho 213" d="M6257.769,460.973a1.152,1.152,0,1,1,0-2.3c9.917,0,10.813-5.072,10.872-5.517v-2.3a1.152,1.152,0,0,1,2.3,0v2.355c0,.031,0,.061,0,.091C6270.915,453.617,6270.193,460.973,6257.769,460.973Z" transform="translate(-6256.617 -449.706)" fill="#fff" stroke="#c4badc" stroke-width="1"/>
      </g>
      <g id="Grupo_78" data-name="Grupo 78" transform="translate(2.133 17.697)">
        <g id="Grupo_76" data-name="Grupo 76">
          <path id="Caminho_214" data-name="Caminho 214" d="M6245.552,439.253c-12.817,0-19.568-5.89-19.848-6.141a1.151,1.151,0,0,1,1.53-1.721h0c.063.056,6.432,5.559,18.318,5.559a1.151,1.151,0,1,1,0,2.3Z" transform="translate(-6225.318 -431.102)" fill="#fff" stroke="#c4badc" stroke-width="1"/>
        </g>
        <g id="Grupo_77" data-name="Grupo 77" transform="translate(19.082 0.002)">
          <path id="Caminho_215" data-name="Caminho 215" d="M6258.279,439.254a1.151,1.151,0,1,1,0-2.3c11.885,0,18.254-5.5,18.317-5.559a1.151,1.151,0,0,1,1.531,1.721C6277.847,433.364,6271.1,439.254,6258.279,439.254Z" transform="translate(-6257.127 -431.104)" fill="#fff" stroke="#c4badc" stroke-width="1"/>
        </g>
      </g>
      <g id="Grupo_79" data-name="Grupo 79" transform="translate(6.923 3.716)">
        <path id="Caminho_216" data-name="Caminho 216" d="M6248.594,420.111h-.02c-7.423-.121-12.225-1.51-14.272-4.129a4.143,4.143,0,0,1-.951-3.268c.16-.868,1.645-4.892,15.24-4.919h.133c13.513,0,14.961,4.025,15.114,4.931a4.153,4.153,0,0,1-.955,3.255c-2.046,2.619-6.849,4.008-14.271,4.129ZM6235.6,413.2a2.086,2.086,0,0,0,.584,1.456c.937,1.118,3.793,3.014,12.406,3.157,8.761-.145,11.578-2.094,12.476-3.244a1.994,1.994,0,0,0,.513-1.375l0-.017-.013-.028v0c-.176-.364-1.853-3.043-12.837-3.043h-.132C6237.2,410.121,6235.7,412.974,6235.6,413.2Zm0-.006h0a.272.272,0,0,0,.007-.028c0,.005,0,.014-.007.027Zm.014-.066Zm25.947-.026Z" transform="translate(-6233.303 -407.796)" fill="#fff" stroke="#c4badc" stroke-width="1"/>
      </g>
    </g>
    <g id="Grupo_91" data-name="Grupo 91" transform="translate(0 49.999)">
      <g id="Grupo_81" data-name="Grupo 81" transform="translate(1.344 9.709)">
        <path id="Caminho_217" data-name="Caminho 217" d="M6244.873,511.473h0c-16.876-.03-20.624-8.383-20.775-8.739a1.152,1.152,0,0,1,2.116-.91c.054.119,3.488,7.319,18.663,7.345a1.152,1.152,0,0,1,0,2.3Z" transform="translate(-6224.003 -501.132)" fill="#fff" stroke="#c4badc" stroke-width="1"/>
      </g>
      <g id="Grupo_82" data-name="Grupo 82" transform="translate(9.192 28.858)">
        <path id="Caminho_218" data-name="Caminho 218" d="M6250.26,544.319c-12.424,0-13.146-7.357-13.171-7.67,0-.03,0-.061,0-.09V534.2a1.152,1.152,0,0,1,2.3,0V536.5c.063.478.968,5.517,10.871,5.517a1.152,1.152,0,1,1,0,2.3Z" transform="translate(-6237.085 -533.052)" fill="#fff" stroke="#c4badc" stroke-width="1"/>
      </g>
      <g id="Grupo_83" data-name="Grupo 83" transform="translate(13.195 5.475)">
        <path id="Caminho_219" data-name="Caminho 219" d="M6252.777,503.175c-5.921,0-9.019-2.289-9.019-4.55s3.1-4.551,9.019-4.551,9.019,2.29,9.019,4.551S6258.7,503.175,6252.777,503.175Zm0-6.8c-4.166,0-6.715,1.455-6.715,2.247s2.549,2.247,6.715,2.247,6.714-1.454,6.714-2.247S6256.943,496.378,6252.777,496.378Z" transform="translate(-6243.759 -494.074)" fill="#fff" stroke="#c4badc" stroke-width="1"/>
      </g>
      <g id="Grupo_84" data-name="Grupo 84">
        <path id="Caminho_220" data-name="Caminho 220" d="M6244.13,517.638h-.357c-19.249-.124-20.594-10.168-20.642-10.6l-1.341-12.38a4.507,4.507,0,0,1,.715-2.956c4.393-6.663,20.551-6.747,21.315-6.747h.005c14.767-.226,19.888,4.127,21.624,6.745a4.488,4.488,0,0,1,.715,2.959l-1.34,12.377c-.048.434-1.394,10.478-20.642,10.6Zm-.29-30.38c-4.367,0-16.323,1.026-19.413,5.712a2.192,2.192,0,0,0-.348,1.441l1.34,12.376c.045.333,1.322,8.5,18.558,8.548,17.4-.049,18.548-8.467,18.558-8.552l1.34-12.373a2.178,2.178,0,0,0-.346-1.437c-1.188-1.793-5.473-5.941-19.687-5.715Z" transform="translate(-6221.763 -484.947)" fill="#fff" stroke="#c4badc" stroke-width="1"/>
      </g>
      <g id="Grupo_85" data-name="Grupo 85" transform="translate(21.062 9.713)">
        <path id="Caminho_221" data-name="Caminho 221" d="M6258.024,511.476a1.152,1.152,0,0,1,0-2.3c15.224-.026,18.63-7.273,18.663-7.346a1.152,1.152,0,0,1,2.116.911c-.151.356-3.9,8.709-20.775,8.739Z" transform="translate(-6256.872 -501.138)" fill="#fff" stroke="#c4badc" stroke-width="1"/>
      </g>
      <g id="Grupo_86" data-name="Grupo 86" transform="translate(20.909 28.858)">
        <path id="Caminho_222" data-name="Caminho 222" d="M6257.769,544.319a1.152,1.152,0,1,1,0-2.3c9.917,0,10.813-5.072,10.872-5.516v-2.3a1.152,1.152,0,0,1,2.3,0v2.356c0,.029,0,.06,0,.09C6270.915,536.963,6270.193,544.319,6257.769,544.319Z" transform="translate(-6256.617 -533.052)" fill="#fff" stroke="#c4badc" stroke-width="1"/>
      </g>
      <g id="Grupo_89" data-name="Grupo 89" transform="translate(2.133 17.697)">
        <g id="Grupo_87" data-name="Grupo 87">
          <path id="Caminho_223" data-name="Caminho 223" d="M6245.552,522.6c-12.817,0-19.568-5.89-19.848-6.141a1.151,1.151,0,0,1,1.53-1.72h0c.063.056,6.432,5.558,18.318,5.558a1.152,1.152,0,1,1,0,2.3Z" transform="translate(-6225.318 -514.447)" fill="#fff" stroke="#c4badc" stroke-width="1"/>
        </g>
        <g id="Grupo_88" data-name="Grupo 88" transform="translate(19.082 0.002)">
          <path id="Caminho_224" data-name="Caminho 224" d="M6258.279,522.6a1.152,1.152,0,1,1,0-2.3c11.885,0,18.254-5.5,18.317-5.558a1.151,1.151,0,0,1,1.531,1.721C6277.847,516.71,6271.1,522.6,6258.279,522.6Z" transform="translate(-6257.127 -514.45)" fill="#fff" stroke="#c4badc" stroke-width="1"/>
        </g>
      </g>
      <g id="Grupo_90" data-name="Grupo 90" transform="translate(6.923 3.716)">
        <path id="Caminho_225" data-name="Caminho 225" d="M6248.594,503.457h-.02c-7.423-.121-12.225-1.511-14.272-4.129a4.143,4.143,0,0,1-.951-3.268c.16-.867,1.645-4.892,15.24-4.919h.131c13.515,0,14.963,4.025,15.116,4.931a4.155,4.155,0,0,1-.955,3.256c-2.046,2.618-6.849,4.008-14.271,4.129Zm-12.99-6.917a2.086,2.086,0,0,0,.584,1.456c.937,1.118,3.793,3.015,12.406,3.157,8.761-.145,11.577-2.094,12.476-3.244a2,2,0,0,0,.513-1.376l0-.017-.013-.028v0c-.176-.365-1.853-3.043-12.84-3.043h-.129C6237.2,493.467,6235.7,496.319,6235.6,496.54Zm0-.006h0c0-.011.005-.02.007-.028s0,.014-.007.028Zm.014-.066Zm25.947-.026Z" transform="translate(-6233.303 -491.141)" fill="#fff" stroke="#c4badc" stroke-width="1"/>
      </g>
    </g>
    <g id="Grupo_102" data-name="Grupo 102" transform="translate(61.702 18.911)">
      <g id="Grupo_92" data-name="Grupo 92" transform="translate(1.344 9.708)">
        <path id="Caminho_226" data-name="Caminho 226" d="M6347.727,459.65h0c-16.877-.03-20.624-8.384-20.776-8.739a1.152,1.152,0,0,1,2.117-.91c.049.109,3.477,7.319,18.663,7.346a1.152,1.152,0,0,1,0,2.3Z" transform="translate(-6326.856 -449.308)" fill="#fff" stroke="#c4badc" stroke-width="1"/>
      </g>
      <g id="Grupo_93" data-name="Grupo 93" transform="translate(9.191 28.858)">
        <path id="Caminho_227" data-name="Caminho 227" d="M6353.113,492.5c-12.425,0-13.146-7.357-13.172-7.67,0-.03,0-.061,0-.091v-2.355a1.152,1.152,0,0,1,2.3,0v2.295c.063.477.968,5.517,10.872,5.517a1.152,1.152,0,0,1,0,2.3Z" transform="translate(-6339.938 -481.23)" fill="#fff" stroke="#c4badc" stroke-width="1"/>
      </g>
      <g id="Grupo_94" data-name="Grupo 94" transform="translate(13.194 5.476)">
        <path id="Caminho_228" data-name="Caminho 228" d="M6355.63,451.353c-5.921,0-9.019-2.289-9.019-4.55s3.1-4.55,9.019-4.55,9.019,2.289,9.019,4.55S6361.551,451.353,6355.63,451.353Zm0-6.8c-4.166,0-6.715,1.455-6.715,2.247s2.549,2.247,6.715,2.247,6.715-1.455,6.715-2.247S6359.8,444.556,6355.63,444.556Z" transform="translate(-6346.611 -442.253)" fill="#fff" stroke="#c4badc" stroke-width="1"/>
      </g>
      <g id="Grupo_95" data-name="Grupo 95">
        <path id="Caminho_229" data-name="Caminho 229" d="M6346.983,465.816h-.358c-19.249-.123-20.594-10.168-20.642-10.6l-1.341-12.38a4.5,4.5,0,0,1,.715-2.956c4.394-6.663,20.554-6.747,21.314-6.747h0c14.774-.228,19.888,4.127,21.624,6.745a4.486,4.486,0,0,1,.716,2.959l-1.34,12.376c-.049.434-1.393,10.479-20.643,10.6Zm-.29-30.38c-4.367,0-16.323,1.025-19.413,5.712a2.2,2.2,0,0,0-.349,1.44l1.341,12.376c.045.334,1.322,8.5,18.558,8.548,17.235-.048,18.513-8.214,18.559-8.563l1.338-12.36a2.178,2.178,0,0,0-.347-1.439c-1.188-1.792-5.49-5.932-19.686-5.714Z" transform="translate(-6324.617 -433.125)" fill="#fff" stroke="#c4badc" stroke-width="1"/>
      </g>
      <g id="Grupo_96" data-name="Grupo 96" transform="translate(21.062 9.714)">
        <path id="Caminho_230" data-name="Caminho 230" d="M6360.877,459.654a1.152,1.152,0,0,1,0-2.3c15.224-.026,18.631-7.273,18.664-7.346a1.151,1.151,0,0,1,2.115.91c-.151.356-3.9,8.709-20.774,8.739Z" transform="translate(-6359.725 -449.318)" fill="#fff" stroke="#c4badc" stroke-width="1"/>
      </g>
      <g id="Grupo_97" data-name="Grupo 97" transform="translate(20.908 28.858)">
        <path id="Caminho_231" data-name="Caminho 231" d="M6360.621,492.5a1.152,1.152,0,1,1,0-2.3c9.854,0,10.8-4.988,10.871-5.521v-2.29a1.152,1.152,0,0,1,2.3,0v2.355c0,.03,0,.061,0,.091C6373.768,485.141,6373.046,492.5,6360.621,492.5Z" transform="translate(-6359.469 -481.23)" fill="#fff" stroke="#c4badc" stroke-width="1"/>
      </g>
      <g id="Grupo_100" data-name="Grupo 100" transform="translate(2.133 17.697)">
        <g id="Grupo_98" data-name="Grupo 98">
          <path id="Caminho_232" data-name="Caminho 232" d="M6348.405,470.777c-12.816,0-19.567-5.89-19.848-6.141a1.151,1.151,0,0,1,1.531-1.721h0c.063.055,6.432,5.558,18.317,5.558a1.152,1.152,0,1,1,0,2.3Z" transform="translate(-6328.172 -462.625)" fill="#fff" stroke="#c4badc" stroke-width="1"/>
        </g>
        <g id="Grupo_99" data-name="Grupo 99" transform="translate(19.082 0.001)">
          <path id="Caminho_233" data-name="Caminho 233" d="M6361.132,470.778a1.152,1.152,0,1,1,0-2.3c11.886,0,18.255-5.5,18.317-5.558a1.151,1.151,0,0,1,1.531,1.72C6380.7,464.887,6373.949,470.778,6361.132,470.778Z" transform="translate(-6359.98 -462.627)" fill="#fff" stroke="#c4badc" stroke-width="1"/>
        </g>
      </g>
      <g id="Grupo_101" data-name="Grupo 101" transform="translate(6.922 3.716)">
        <path id="Caminho_234" data-name="Caminho 234" d="M6351.447,451.635h-.019c-7.424-.121-12.225-1.51-14.272-4.129a4.137,4.137,0,0,1-.951-3.268c.16-.867,1.644-4.892,15.24-4.919h.134c13.514,0,14.96,4.025,15.113,4.931a4.147,4.147,0,0,1-.954,3.255c-2.047,2.619-6.849,4.009-14.271,4.129Zm-12.99-6.917a2.083,2.083,0,0,0,.584,1.456c.936,1.118,3.793,3.014,12.406,3.157,8.762-.146,11.578-2.095,12.476-3.244a2,2,0,0,0,.514-1.374c0-.007,0-.013,0-.017l-.013-.028h0c-.176-.364-1.853-3.044-12.836-3.044h-.133C6340.053,441.644,6338.555,444.5,6338.457,444.718Zm0-.005h0a.278.278,0,0,0,.007-.028c0,.005,0,.014-.007.028Zm.014-.031Zm0-.036Zm25.948-.026Z" transform="translate(-6336.155 -439.319)" fill="#fff" stroke="#c4badc" stroke-width="1"/>
      </g>
    </g>
    <g id="Grupo_113" data-name="Grupo 113" transform="translate(0 99.491)">
      <g id="Grupo_103" data-name="Grupo 103" transform="translate(1.344 9.71)">
        <path id="Caminho_235" data-name="Caminho 235" d="M6244.873,593.974h0c-16.876-.031-20.624-8.383-20.775-8.739a1.152,1.152,0,0,1,2.116-.91c.054.118,3.488,7.318,18.664,7.345a1.152,1.152,0,0,1,0,2.3Z" transform="translate(-6224.003 -583.633)" fill="#fff" stroke="#c4badc" stroke-width="1"/>
      </g>
      <g id="Grupo_104" data-name="Grupo 104" transform="translate(9.192 28.858)">
        <path id="Caminho_236" data-name="Caminho 236" d="M6250.26,626.819c-12.424,0-13.146-7.357-13.171-7.67,0-.03,0-.061,0-.09V616.7a1.152,1.152,0,0,1,2.3,0V619c.063.478.968,5.517,10.871,5.517a1.152,1.152,0,1,1,0,2.3Z" transform="translate(-6237.085 -615.552)" fill="#fff" stroke="#c4badc" stroke-width="1"/>
      </g>
      <g id="Grupo_105" data-name="Grupo 105" transform="translate(13.195 5.476)">
        <path id="Caminho_237" data-name="Caminho 237" d="M6252.777,585.676c-5.921,0-9.019-2.289-9.019-4.551s3.1-4.55,9.019-4.55,9.019,2.29,9.019,4.55S6258.7,585.676,6252.777,585.676Zm0-6.8c-4.166,0-6.715,1.455-6.715,2.247s2.549,2.247,6.715,2.247,6.714-1.454,6.714-2.247S6256.943,578.879,6252.777,578.879Z" transform="translate(-6243.759 -576.575)" fill="#fff" stroke="#c4badc" stroke-width="1"/>
      </g>
      <g id="Grupo_106" data-name="Grupo 106">
        <path id="Caminho_238" data-name="Caminho 238" d="M6244.13,600.139h-.357c-19.249-.124-20.594-10.168-20.642-10.6l-1.341-12.38a4.507,4.507,0,0,1,.715-2.956c4.394-6.664,20.557-6.748,21.315-6.748h.005c14.79-.224,19.887,4.127,21.623,6.745a4.488,4.488,0,0,1,.716,2.959l-1.34,12.376c-.048.434-1.394,10.478-20.642,10.6Zm-.289-30.38c-4.366,0-16.324,1.026-19.414,5.712a2.195,2.195,0,0,0-.348,1.442l1.34,12.375c.045.334,1.322,8.5,18.558,8.548,17.4-.049,18.548-8.467,18.558-8.552l1.34-12.372a2.182,2.182,0,0,0-.346-1.439c-1.188-1.792-5.479-5.944-19.687-5.714Z" transform="translate(-6221.763 -567.447)" fill="#fff" stroke="#c4badc" stroke-width="1"/>
      </g>
      <g id="Grupo_107" data-name="Grupo 107" transform="translate(21.062 9.714)">
        <path id="Caminho_239" data-name="Caminho 239" d="M6258.024,593.977a1.152,1.152,0,0,1,0-2.3c15.225-.027,18.631-7.273,18.664-7.346a1.152,1.152,0,0,1,2.116.911c-.151.356-3.9,8.709-20.774,8.739Z" transform="translate(-6256.872 -583.64)" fill="#fff" stroke="#c4badc" stroke-width="1"/>
      </g>
      <g id="Grupo_108" data-name="Grupo 108" transform="translate(20.909 28.858)">
        <path id="Caminho_240" data-name="Caminho 240" d="M6257.769,626.819a1.152,1.152,0,1,1,0-2.3c9.917,0,10.813-5.072,10.872-5.516v-2.3a1.152,1.152,0,0,1,2.3,0v2.356c0,.029,0,.06,0,.09C6270.915,619.463,6270.193,626.819,6257.769,626.819Z" transform="translate(-6256.617 -615.552)" fill="#fff" stroke="#c4badc" stroke-width="1"/>
      </g>
      <g id="Grupo_111" data-name="Grupo 111" transform="translate(2.133 17.698)">
        <g id="Grupo_109" data-name="Grupo 109">
          <path id="Caminho_241" data-name="Caminho 241" d="M6245.552,605.1c-12.817,0-19.568-5.89-19.848-6.141a1.151,1.151,0,0,1,1.53-1.72h0c.063.056,6.432,5.558,18.318,5.558a1.152,1.152,0,1,1,0,2.3Z" transform="translate(-6225.318 -596.948)" fill="#fff" stroke="#c4badc" stroke-width="1"/>
        </g>
        <g id="Grupo_110" data-name="Grupo 110" transform="translate(19.082 0.002)">
          <path id="Caminho_242" data-name="Caminho 242" d="M6258.279,605.1a1.152,1.152,0,1,1,0-2.3c11.885,0,18.254-5.5,18.317-5.558a1.151,1.151,0,0,1,1.531,1.721C6277.847,599.211,6271.1,605.1,6258.279,605.1Z" transform="translate(-6257.127 -596.951)" fill="#fff" stroke="#c4badc" stroke-width="1"/>
        </g>
      </g>
      <g id="Grupo_112" data-name="Grupo 112" transform="translate(6.923 3.716)">
        <path id="Caminho_243" data-name="Caminho 243" d="M6248.594,585.957h-.02c-7.423-.121-12.225-1.51-14.272-4.129a4.142,4.142,0,0,1-.951-3.268c.16-.867,1.643-4.892,15.24-4.919h.133c13.513,0,14.961,4.024,15.114,4.931a4.155,4.155,0,0,1-.954,3.256c-2.047,2.619-6.849,4.008-14.272,4.129Zm-12.99-6.916a2.085,2.085,0,0,0,.583,1.455c.937,1.119,3.793,3.015,12.407,3.157,8.612-.143,11.469-2.039,12.405-3.157a2.051,2.051,0,0,0,.579-1.481c-.092-.219-1.518-3.071-12.85-3.071h-.132C6237.2,575.967,6235.7,578.82,6235.6,579.041Zm0-.005h0c0-.011.005-.02.007-.028s0,.014-.007.028Zm25.965-.066a.207.207,0,0,0,.008.04V579A.175.175,0,0,0,6261.569,578.97Zm-25.951,0Z" transform="translate(-6233.303 -573.642)" fill="#fff" stroke="#c4badc" stroke-width="1"/>
      </g>
    </g>
  </g>
  <g id="Grupo_121" data-name="Grupo 121" transform="translate(93.389 126.074)">
    <g id="Grupo_115" data-name="Grupo 115" transform="translate(65.277 92.436)">
      <path id="Caminho_244" data-name="Caminho 244" d="M6449.986,752.872a1.5,1.5,0,0,1-1.066-.444l-27.565-27.82a1.5,1.5,0,0,1,.011-2.122l27.627-27.321a1.5,1.5,0,0,1,2.55.948,6.938,6.938,0,0,1,.058.81l.006,2.3c.008,2.656.015,5.4-.013,8.109q5.838-.016,11.676-.01c5.712,0,11.621,0,17.427-.035,4.394-.028,7.723-.79,10.478-2.4,3.416-1.992,5.867-5.009,7.949-9.782a1.5,1.5,0,0,1,2.864.768c-.081.713-.142,1.43-.2,2.146a38.546,38.546,0,0,1-.635,4.9c-3.163,14.539-10.869,25.292-22.9,31.96a40.027,40.027,0,0,1-19.631,5c-1.925-.007-3.85,0-5.775,0l-1.11,0q-.009,3.651,0,7.3v4.083a1.5,1.5,0,0,1-.873,1.362l-.24.11A1.5,1.5,0,0,1,6449.986,752.872Zm-25.443-29.309,24.186,24.41v-.795q0-3.726.005-7.451c0-2.073.768-2.845,2.818-2.849l1.285,0c1.931,0,3.86-.007,5.792,0a36.574,36.574,0,0,0,18.166-4.619c11.278-6.249,18.257-15.906,21.324-29.512a19.228,19.228,0,0,1-5.431,4.736c-3.226,1.882-7.03,2.773-11.97,2.805-5.816.038-11.728.04-17.447.035q-5.978,0-11.954.011a2.8,2.8,0,0,1-2.029-.711,2.762,2.762,0,0,1-.694-2.057c.029-2.594.024-5.234.017-7.8Z" transform="translate(-6420.921 -694.208)" fill="#fff"/>
    </g>
    <g id="Grupo_116" data-name="Grupo 116" transform="translate(0 47.871)">
      <path id="Caminho_245" data-name="Caminho 245" d="M6336.412,704.435a1.488,1.488,0,0,1-.773-.215l-.272-.161c-.225-.133-.45-.265-.669-.409a45.221,45.221,0,0,1-15.865-17.788,44.516,44.516,0,0,1-5.212-20.172,39.8,39.8,0,0,1,5.323-20.5l.93-1.6c.938-1.618,1.907-3.288,2.909-4.92-2.294-1.289-4.593-2.634-6.818-3.937l-2.188-1.279c-.2-.118-.4-.253-.647-.434-.107-.078-.229-.166-.375-.267a1.5,1.5,0,0,1,.469-2.68l37.778-10.1a1.5,1.5,0,0,1,1.837,1.065l10.033,37.911a1.5,1.5,0,0,1-.49,1.536l-.194.163a1.5,1.5,0,0,1-1.724.147l-9.708-5.68c-.341.569-.678,1.133-1.008,1.7l-2.75,4.721q-5.159,8.854-10.3,17.716c-2.379,4.109-3.473,7.444-3.544,10.814a16.438,16.438,0,0,0,3.988,11.145,3.2,3.2,0,0,1,.736,1.383,1.5,1.5,0,0,1-1.459,1.842Zm-19.059-72.36.124.073c2.313,1.353,4.7,2.753,7.074,4.079a2.7,2.7,0,0,1,1.425,1.619,2.745,2.745,0,0,1-.463,2.11c-1.043,1.689-2.062,3.444-3.046,5.142l-.934,1.606a36.843,36.843,0,0,0-4.913,18.975,41.6,41.6,0,0,0,4.889,18.832,42.618,42.618,0,0,0,9.913,12.9,19.246,19.246,0,0,1-1.273-7.414c.083-3.9,1.3-7.682,3.947-12.253q5.139-8.872,10.307-17.723l2.751-4.721c.4-.685.807-1.365,1.221-2.056l.567-.946a1.5,1.5,0,0,1,2.046-.527l8.141,4.764-8.808-33.28Zm5.918,6.886h0Zm-.2-.78Z" transform="translate(-6312.108 -619.921)" fill="#fff"/>
    </g>
    <g id="Grupo_117" data-name="Grupo 117" transform="translate(51.421 0)">
      <path id="Caminho_246" data-name="Caminho 246" d="M6462.321,602.125a1.5,1.5,0,0,1-.386-.051l-37.476-9.943a1.5,1.5,0,0,1-.431-2.709l.406-.266c.252-.167.449-.3.652-.415q1.17-.687,2.337-1.376c2.158-1.274,4.388-2.589,6.62-3.841-1.443-2.51-2.866-5.031-4.289-7.552l-.48-.851q-1.523-2.7-3.038-5.394c-2.059-3.662-4.187-7.448-6.31-11.153a20.886,20.886,0,0,0-7.094-7.873,16.725,16.725,0,0,0-12.788-1.948,3,3,0,0,1-.4.053,1.566,1.566,0,0,1-1.576-.872l-.11-.246a1.5,1.5,0,0,1,.744-1.98c.62-.284,1.236-.576,1.854-.868,1.358-.642,2.762-1.307,4.2-1.881,6.411-2.557,12.992-2.855,18.013-2.836a41.593,41.593,0,0,1,18.472,4.424,39.477,39.477,0,0,1,17.826,17.472c.462.891.974,1.79,1.469,2.66.436.764.885,1.554,1.311,2.353,2.184-1.275,4.417-2.533,6.578-3.751l2.369-1.338c.18-.1.365-.2.6-.322l.42-.221a1.5,1.5,0,0,1,2.154,1.713l-10.2,37.9A1.5,1.5,0,0,1,6462.321,602.125Zm-33.688-11.991,32.627,8.657,8.889-33.039-.252.143c-2.194,1.237-4.462,2.515-6.669,3.8a2.944,2.944,0,0,1-2.269.422,2.889,2.889,0,0,1-1.679-1.522c-.429-.813-.9-1.638-1.352-2.436-.509-.894-1.035-1.82-1.524-2.76a36.528,36.528,0,0,0-16.5-16.169,38.619,38.619,0,0,0-17.15-4.11c-4.528-.022-10.39.231-16.071,2.311a19.117,19.117,0,0,1,7.714,2.707,23.717,23.717,0,0,1,8.132,8.943c2.128,3.714,4.26,7.506,6.323,11.173q1.515,2.7,3.034,5.389l.48.851c1.463,2.591,2.926,5.183,4.41,7.76a2.455,2.455,0,0,1-1.014,3.742c-2.286,1.276-4.588,2.634-6.814,3.948Z" transform="translate(-6397.824 -540.123)" fill="#fff"/>
    </g>
    <g id="Grupo_118" data-name="Grupo 118" transform="translate(105.659 60.189)">
      <path id="Caminho_247" data-name="Caminho 247" d="M6503.57,683.344c-.833,0-1.663-.008-2.487-.017q-.823-.009-1.654-.014A1.5,1.5,0,0,1,6498,681.4a10.032,10.032,0,0,0,.192-6.181,17.713,17.713,0,0,0-1.423-2.948c-2.947-5.186-5.578-9.76-8.04-13.983a2.77,2.77,0,0,1-.413-2.137,2.836,2.836,0,0,1,1.461-1.667c7.82-4.458,15.747-9.015,23.562-13.543a2.757,2.757,0,0,1,2.147-.407A2.694,2.694,0,0,1,6517.07,642c.714,1.347,1.5,2.7,2.257,4.012a58.73,58.73,0,0,1,4.581,9.1c2.222,6.048,2.5,11.532.841,16.768-1.855,5.868-5.946,9.484-12.155,10.748A45.078,45.078,0,0,1,6503.57,683.344Zm-2.237-3.014a50.6,50.6,0,0,0,10.662-.645c5.134-1.044,8.37-3.895,9.894-8.714,1.448-4.578,1.187-9.428-.8-14.828a55.673,55.673,0,0,0-4.361-8.634c-.718-1.241-1.46-2.521-2.156-3.819-7.675,4.446-15.457,8.919-23.137,13.3,2.433,4.175,5.03,8.692,7.933,13.8a20.464,20.464,0,0,1,1.654,3.463A11.935,11.935,0,0,1,6501.333,680.33Z" transform="translate(-6488.235 -640.455)" fill="#fff"/>
    </g>
    <g id="Grupo_119" data-name="Grupo 119" transform="translate(30.163 9.785)">
      <path id="Caminho_248" data-name="Caminho 248" d="M6388.98,596.323a2.8,2.8,0,0,1-1.389-.433c-8.433-4.885-16.169-9.333-23.648-13.6a2.854,2.854,0,0,1-1.486-1.729,2.921,2.921,0,0,1,.432-2.176q.545-.95,1.08-1.9a63.3,63.3,0,0,1,7.748-11.6c3.875-4.294,8.062-6.9,12.8-7.969a15.285,15.285,0,0,1,15.882,5.21,57.8,57.8,0,0,1,6.988,10.98,1.5,1.5,0,0,1-.941,2.157,10.1,10.1,0,0,0-5.656,3.229,34.933,34.933,0,0,0-2.67,4.114l-.3.517c-2.175,3.7-4.412,7.573-6.838,11.843a2.466,2.466,0,0,1-1.475,1.292A1.993,1.993,0,0,1,6388.98,596.323Zm-23.422-16.561c7.305,4.165,14.858,8.507,23.07,13.263,2.333-4.1,4.5-7.845,6.6-11.426l.3-.513a37.561,37.561,0,0,1,2.911-4.464,11.777,11.777,0,0,1,5.44-3.707,48.3,48.3,0,0,0-5.75-8.827,12.328,12.328,0,0,0-12.957-4.251c-4.17.94-7.739,3.181-11.232,7.052a60.114,60.114,0,0,0-7.363,11.07Q6366.071,578.862,6365.559,579.762Z" transform="translate(-6362.387 -556.433)" fill="#fff"/>
    </g>
    <g id="Grupo_120" data-name="Grupo 120" transform="translate(23.46 101.329)">
      <path id="Caminho_249" data-name="Caminho 249" d="M6385.335,745.662h-.1c-1.442-.04-2.918-.052-4.345-.064-2.822-.025-5.741-.049-8.621-.285-6.486-.531-11.567-2.653-15.532-6.485-4.228-4.086-6-8.421-5.409-13.252a26.489,26.489,0,0,1,3.393-9.627c.77-1.4,1.554-2.759,2.385-4.2.372-.644.75-1.3,1.131-1.964a1.5,1.5,0,0,1,2.4-.272,10.816,10.816,0,0,0,8.735,3.574c3.217-.072,6.479-.059,9.632-.049,2.018.008,4.038.015,6.057,0a2.747,2.747,0,0,1,2.008.679,2.656,2.656,0,0,1,.686,1.971c-.032,9.572-.022,19.188-.009,27.333a2.66,2.66,0,0,1-.684,2.009A2.379,2.379,0,0,1,6385.335,745.662Zm-25.451-32.728-.184.318c-.823,1.423-1.6,2.767-2.353,4.139a23.309,23.309,0,0,0-3.045,8.545c-.473,3.888.963,7.3,4.516,10.734,3.447,3.331,7.925,5.18,13.693,5.653,2.771.226,5.633.25,8.4.274,1.256.01,2.55.022,3.835.05-.013-7.963-.021-17.3.008-26.6-1.92.011-3.841,0-5.761,0-3.137-.011-6.378-.023-9.554.047A13.756,13.756,0,0,1,6359.884,712.934Z" transform="translate(-6351.214 -709.033)" fill="#fff"/>
    </g>
  </g>
  <g id="Grupo_122" data-name="Grupo 122" transform="translate(269.5 344.311) rotate(180)">
    <path id="Caminho_250" data-name="Caminho 250" d="M6567.482,647.968s36.516-29.99,37.729,15.844c.408,15.39,9.188,12.2,11.04,12.033,13.569-1.209,47.533-37.513,81.333-11.664,0,0-43.9,42.189-78.3.288C6600.385,641.447,6567.482,647.968,6567.482,647.968Z" transform="translate(-6567.482 -638.331)" fill="#482e59"/>
  </g>
  <g id="Grupo_133" data-name="Grupo 133" transform="translate(227.42 35.476)">
    <g id="Grupo_123" data-name="Grupo 123" transform="translate(0)">
      <path id="Caminho_251" data-name="Caminho 251" d="M6854.911,575.606a.827.827,0,0,1-.209-.027c-.233-.061-23.452-6.337-34.289-27.379-7.726-15-7.432-33.659.877-55.462a.824.824,0,0,1,1.054-.48c.266.1,26.761,10.049,36.708,33.9,6.015,14.423,4.874,30.9-3.391,48.963A.827.827,0,0,1,6854.911,575.606Zm-32.376-81.5c-7.842,21-8.065,38.936-.666,53.32,9.474,18.409,28.767,25.177,32.586,26.36,7.8-17.37,8.834-33.174,3.081-46.98C6848.811,505.871,6826.9,495.913,6822.535,494.109Z" transform="translate(-6814.83 -492.207)" fill="#fff"/>
    </g>
    <g id="Grupo_124" data-name="Grupo 124" transform="translate(9.289 6.382)">
      <path id="Caminho_252" data-name="Caminho 252" d="M6866.006,583.229a.82.82,0,0,1-.6-.263c-22.917-24.59-30.111-75.308-30.181-75.818a.824.824,0,1,1,1.633-.224c.07.5,7.2,50.712,29.754,74.918a.825.825,0,0,1-.6,1.387Z" transform="translate(-6835.215 -506.212)" fill="#fff"/>
    </g>
    <g id="Grupo_125" data-name="Grupo 125" transform="translate(14.109 9.193)">
      <path id="Caminho_253" data-name="Caminho 253" d="M6846.617,533.178a.816.816,0,0,1-.518-.184.824.824,0,0,1-.124-1.159c8.119-10.051,8.459-18.568,8.461-18.653a.825.825,0,0,1,1.648.044c-.01.368-.33,9.126-8.826,19.645A.823.823,0,0,1,6846.617,533.178Z" transform="translate(-6845.792 -512.381)" fill="#fff"/>
    </g>
    <g id="Grupo_126" data-name="Grupo 126" transform="translate(17.946 16.41)">
      <path id="Caminho_254" data-name="Caminho 254" d="M6855.039,554.954a.825.825,0,0,1-.446-1.519c12.616-8.075,12.785-24.231,12.785-24.393a.824.824,0,0,1,.824-.823h0a.825.825,0,0,1,.825.824c0,.7-.156,17.211-13.544,25.781A.832.832,0,0,1,6855.039,554.954Z" transform="translate(-6854.214 -528.219)" fill="#fff"/>
    </g>
    <g id="Grupo_127" data-name="Grupo 127" transform="translate(22.621 30.222)">
      <path id="Caminho_255" data-name="Caminho 255" d="M6865.3,584.464a.824.824,0,0,1-.445-1.519c12.772-8.174,18.141-23.7,18.193-23.856a.825.825,0,0,1,1.563.529c-.224.659-5.612,16.233-18.866,24.716A.823.823,0,0,1,6865.3,584.464Z" transform="translate(-6864.473 -558.529)" fill="#fff"/>
    </g>
    <g id="Grupo_128" data-name="Grupo 128" transform="translate(28.931 44.414)">
      <path id="Caminho_256" data-name="Caminho 256" d="M6879.146,614.293a.824.824,0,0,1-.445-1.519c12.739-8.154,16.42-22.333,16.456-22.475a.824.824,0,1,1,1.6.4c-.151.607-3.88,14.959-17.166,23.462A.819.819,0,0,1,6879.146,614.293Z" transform="translate(-6878.321 -589.674)" fill="#fff"/>
    </g>
    <g id="Grupo_129" data-name="Grupo 129" transform="translate(0.086 27.838)">
      <path id="Caminho_257" data-name="Caminho 257" d="M6830.191,560.381a.839.839,0,0,1-.157-.015,39.2,39.2,0,0,1-14.646-5.555.824.824,0,1,1,.909-1.376c2.393,1.581,6.451,3.851,14.049,5.312a.825.825,0,0,1-.155,1.634Z" transform="translate(-6815.019 -553.299)" fill="#fff"/>
    </g>
    <g id="Grupo_130" data-name="Grupo 130" transform="translate(0.97 41.551)">
      <path id="Caminho_258" data-name="Caminho 258" d="M6831.852,589.469a25.366,25.366,0,0,1-14.529-4.57.824.824,0,0,1,.922-1.367,23.919,23.919,0,0,0,17.2,4.044.824.824,0,1,1,.217,1.634A28.936,28.936,0,0,1,6831.852,589.469Z" transform="translate(-6816.958 -583.391)" fill="#fff"/>
    </g>
    <g id="Grupo_131" data-name="Grupo 131" transform="translate(6.988 57.477)">
      <path id="Caminho_259" data-name="Caminho 259" d="M6842.518,621.747a40.549,40.549,0,0,1-11.764-1.791.824.824,0,1,1,.474-1.579,38,38,0,0,0,16.237,1.39.824.824,0,1,1,.217,1.634A39.056,39.056,0,0,1,6842.518,621.747Z" transform="translate(-6830.167 -618.342)" fill="#fff"/>
    </g>
    <g id="Grupo_132" data-name="Grupo 132" transform="translate(21.61 72.332)">
      <path id="Caminho_260" data-name="Caminho 260" d="M6866.547,653.5a30.848,30.848,0,0,1-3.562-.219.824.824,0,1,1,.188-1.638,25.968,25.968,0,0,0,10.053-.679.824.824,0,0,1,.391,1.6A28.813,28.813,0,0,1,6866.547,653.5Z" transform="translate(-6862.254 -650.942)" fill="#fff"/>
    </g>
  </g>
  <g id="Grupo_144" data-name="Grupo 144" transform="translate(275.269 79.966)">
    <g id="Grupo_134" data-name="Grupo 134" transform="translate(0 0)">
      <path id="Caminho_261" data-name="Caminho 261" d="M6931.838,625.255c-.861,0-1.349-.026-1.382-.028a.82.82,0,0,1-.764-.727c-2.194-19.62,1.842-35.526,12-47.275,16.795-19.431,44.895-20.6,45.178-20.612h.028a.82.82,0,0,1,.817.782c1.074,23.16-4.439,40.867-16.388,52.629C6956.886,624.235,6937.179,625.255,6931.838,625.255Zm-.593-1.642c3.955.07,24.284-.329,38.942-14.77,11.452-11.282,16.808-28.284,15.924-50.541-4.677.35-28.457,2.948-43.192,20.005C6933.2,589.554,6929.277,604.8,6931.245,623.613Z" transform="translate(-6929.112 -556.613)" fill="#fff"/>
    </g>
    <g id="Grupo_135" data-name="Grupo 135" transform="translate(0.576 5.129)">
      <path id="Caminho_262" data-name="Caminho 262" d="M6931.2,631.426a.819.819,0,0,1-.4-1.537c8.3-4.565,21.382-14.644,36.578-36.731a217.867,217.867,0,0,0,14.763-24.758.819.819,0,1,1,1.473.719c-.224.459-22.757,46.1-52.023,62.206A.816.816,0,0,1,6931.2,631.426Z" transform="translate(-6930.382 -567.939)" fill="#fff"/>
    </g>
    <g id="Grupo_136" data-name="Grupo 136" transform="translate(38.004 3.603)">
      <path id="Caminho_263" data-name="Caminho 263" d="M7016.745,586.969a.818.818,0,0,1-.766-.529c-4.757-12.568-2.34-20.935-2.235-21.286a.82.82,0,0,1,1.57.471h0c-.024.081-2.348,8.226,2.2,20.235a.821.821,0,0,1-.477,1.057A.835.835,0,0,1,7016.745,586.969Z" transform="translate(-7013.038 -564.57)" fill="#fff"/>
    </g>
    <g id="Grupo_137" data-name="Grupo 137" transform="translate(27.155 7.823)">
      <path id="Caminho_264" data-name="Caminho 264" d="M6995.93,603.295a.814.814,0,0,1-.635-.3c-9.98-12.245-5-27.882-4.783-28.542a.819.819,0,0,1,1.556.511c-.049.154-4.906,15.457,4.5,27a.82.82,0,0,1-.635,1.337Z" transform="translate(-6989.079 -573.888)" fill="#fff"/>
    </g>
    <g id="Grupo_138" data-name="Grupo 138" transform="translate(14.781 17.745)">
      <path id="Caminho_265" data-name="Caminho 265" d="M6972.526,626.117a.813.813,0,0,1-.635-.3c-9.88-12.123-10.132-28.5-10.139-29.189a.819.819,0,0,1,.813-.826h.007a.819.819,0,0,1,.819.811c0,.164.262,16.5,9.769,28.169a.819.819,0,0,1-.634,1.337Z" transform="translate(-6961.753 -595.8)" fill="#fff"/>
    </g>
    <g id="Grupo_139" data-name="Grupo 139" transform="translate(6 29.717)">
      <path id="Caminho_266" data-name="Caminho 266" d="M6951.963,650.78a.818.818,0,0,1-.636-.3c-9.9-12.151-8.968-26.858-8.923-27.478a.819.819,0,0,1,1.634.117c-.01.145-.922,14.693,8.559,26.326a.819.819,0,0,1-.634,1.337Z" transform="translate(-6942.362 -622.239)" fill="#fff"/>
    </g>
    <g id="Grupo_140" data-name="Grupo 140" transform="translate(39.056 28.241)">
      <path id="Caminho_267" data-name="Caminho 267" d="M7022.61,621.736a51.356,51.356,0,0,1-6.535-.448.819.819,0,1,1,.208-1.626c7.624.98,12.161.1,14.911-.653a.819.819,0,1,1,.431,1.58A33.839,33.839,0,0,1,7022.61,621.736Z" transform="translate(-7015.36 -618.979)" fill="#fff"/>
    </g>
    <g id="Grupo_141" data-name="Grupo 141" transform="translate(31.121 39.338)">
      <path id="Caminho_268" data-name="Caminho 268" d="M7009.578,647.732a25.616,25.616,0,0,1-11.277-2.689.819.819,0,1,1,.712-1.475,23.772,23.772,0,0,0,17.5,1.522.819.819,0,0,1,.445,1.577A27.006,27.006,0,0,1,7009.578,647.732Z" transform="translate(-6997.837 -643.486)" fill="#fff"/>
    </g>
    <g id="Grupo_142" data-name="Grupo 142" transform="translate(22.476 50.27)">
      <path id="Caminho_269" data-name="Caminho 269" d="M6995.66,673.075h-.021a39.356,39.356,0,0,1-16.431-3.89.819.819,0,0,1,.713-1.475,37.745,37.745,0,0,0,15.76,3.728.819.819,0,0,1-.021,1.638Z" transform="translate(-6978.747 -667.626)" fill="#fff"/>
    </g>
    <g id="Grupo_143" data-name="Grupo 143" transform="translate(10.393 60.355)">
      <path id="Caminho_270" data-name="Caminho 270" d="M6962.431,695.4a.884.884,0,0,1-.166-.017,27.629,27.629,0,0,1-9.814-3.975.819.819,0,1,1,.867-1.39,25.8,25.8,0,0,0,9.277,3.76.819.819,0,0,1-.164,1.622Z" transform="translate(-6952.064 -689.897)" fill="#fff"/>
    </g>
  </g>
  <g id="Grupo_145" data-name="Grupo 145" transform="translate(171.552 61.262)">
    <path id="Caminho_271" data-name="Caminho 271" d="M6430.855,429.69v-4.065a14.016,14.016,0,0,1-6.789-1.844l1.131-3.939a13.214,13.214,0,0,0,6.538,1.844c2.64,0,4.441-1.3,4.441-3.311,0-1.885-1.466-3.1-4.568-4.232-4.4-1.592-7.249-3.6-7.249-7.5,0-3.6,2.515-6.369,6.747-7.123v-4.107h3.436v3.9a13.4,13.4,0,0,1,5.783,1.383l-1.131,3.855a12.459,12.459,0,0,0-5.7-1.424c-2.934,0-3.981,1.508-3.981,2.933,0,1.718,1.508,2.682,5.07,4.106,4.692,1.76,6.789,4.023,6.789,7.752,0,3.562-2.473,6.7-7.082,7.459v4.316Z" transform="translate(-6424.066 -395.413)" fill="#c4badc"/>
  </g>
  <g id="Grupo_146" data-name="Grupo 146" transform="translate(193.326 80.598)">
    <path id="Caminho_272" data-name="Caminho 272" d="M6485.35,478.083v-4.065a14.023,14.023,0,0,1-6.789-1.844l1.131-3.939a13.217,13.217,0,0,0,6.538,1.844c2.639,0,4.441-1.3,4.441-3.311,0-1.886-1.466-3.1-4.567-4.232-4.4-1.592-7.25-3.6-7.25-7.5,0-3.6,2.515-6.369,6.746-7.123v-4.107h3.437v3.9a13.4,13.4,0,0,1,5.783,1.383l-1.131,3.855a12.463,12.463,0,0,0-5.7-1.424c-2.933,0-3.98,1.508-3.98,2.933,0,1.718,1.508,2.682,5.07,4.107,4.693,1.76,6.789,4.023,6.789,7.752,0,3.562-2.472,6.7-7.082,7.458v4.316Z" transform="translate(-6478.561 -443.806)" fill="#c4badc"/>
  </g>
</svg>
