<svg xmlns="http://www.w3.org/2000/svg" width="174.363" height="112.738" viewBox="0 0 174.363 112.738">
  <g id="LOGO_BATISTA" data-name="LOGO BATISTA" transform="translate(0.059 106.971)">
    <path id="Caminho_9" data-name="Caminho 9" d="M160.5,125.851h.5a.2.2,0,0,0,.184-.119c.161-.37.33-.73.489-1.1h2.62l.5,1.1a.185.185,0,0,0,.184.119h.5a.141.141,0,0,0,.137-.209l-2.444-5.392a.182.182,0,0,0-.137-.087h-.079a.191.191,0,0,0-.137.087l-2.459,5.392a.142.142,0,0,0,.137.209Zm1.49-1.907.976-2.2h.042l.983,2.2Z" transform="translate(-160.351 -120.164)" fill="#fff" fill-rule="evenodd"/>
    <path id="Caminho_10" data-name="Caminho 10" d="M164.021,125.652a.151.151,0,0,0,.144.152h1.843a2.8,2.8,0,1,0,0-5.608h-1.843a.151.151,0,0,0-.144.152v5.3Zm.817-.608v-4.085H165.9a2.043,2.043,0,0,1,0,4.085Z" transform="translate(-154.906 -120.117)" fill="#fff" fill-rule="evenodd"/>
    <path id="Caminho_11" data-name="Caminho 11" d="M169.779,125.8a.167.167,0,0,0,.137.087H170a.151.151,0,0,0,.137-.087l2.461-5.392a.142.142,0,0,0-.137-.209h-.569a.144.144,0,0,0-.137.089l-1.763,3.964h-.047l-1.763-3.964a.153.153,0,0,0-.137-.089h-.569a.142.142,0,0,0-.137.209Z" transform="translate(-150.012 -120.117)" fill="#fff" fill-rule="evenodd"/>
    <path id="Caminho_12" data-name="Caminho 12" d="M170.813,123.055a2.88,2.88,0,1,0,2.876-2.891,2.857,2.857,0,0,0-2.876,2.891Zm.8,0a2.08,2.08,0,1,1,2.076,2.076A2.1,2.1,0,0,1,171.613,123.055Z" transform="translate(-144.83 -120.164)" fill="#fff" fill-rule="evenodd"/>
    <path id="Caminho_13" data-name="Caminho 13" d="M174.654,123.055a2.87,2.87,0,0,0,2.893,2.876,2.761,2.761,0,0,0,1.947-.775.156.156,0,0,0,.007-.219l-.37-.36a.145.145,0,0,0-.191.01,2.148,2.148,0,0,1-1.378.526,2.08,2.08,0,0,1-.007-4.157,2.176,2.176,0,0,1,1.386.536c.072.072.144.072.2,0l.353-.36a.15.15,0,0,0-.01-.224,2.767,2.767,0,0,0-1.937-.745A2.884,2.884,0,0,0,174.654,123.055Z" transform="translate(-139.133 -120.164)" fill="#fff" fill-rule="evenodd"/>
    <path id="Caminho_14" data-name="Caminho 14" d="M178.13,125.851h.507a.205.205,0,0,0,.184-.119c.159-.37.328-.73.489-1.1h2.62l.5,1.1a.183.183,0,0,0,.184.119h.5a.142.142,0,0,0,.137-.209l-2.444-5.392a.191.191,0,0,0-.137-.087h-.079a.191.191,0,0,0-.137.087L178,125.642a.141.141,0,0,0,.134.209Zm1.49-1.907.978-2.2h.04l.986,2.2Z" transform="translate(-134.2 -120.164)" fill="#fff" fill-rule="evenodd"/>
    <path id="Caminho_15" data-name="Caminho 15" d="M181.472,123.055a2.87,2.87,0,0,0,2.893,2.876,2.751,2.751,0,0,0,1.945-.775.156.156,0,0,0,.01-.219l-.37-.36a.145.145,0,0,0-.191.01,2.153,2.153,0,0,1-1.378.526,2.08,2.08,0,0,1-.007-4.157,2.176,2.176,0,0,1,1.386.536c.072.072.144.072.2,0l.35-.36a.148.148,0,0,0-.007-.224,2.771,2.771,0,0,0-1.937-.745A2.884,2.884,0,0,0,181.472,123.055Z" transform="translate(-129.019 -120.164)" fill="#fff" fill-rule="evenodd"/>
    <rect id="Ret창ngulo_2" data-name="Ret창ngulo 2" width="0.833" height="5.608" rx="0.061" transform="translate(61.48 0.08)" fill="#fff"/>
    <path id="Caminho_16" data-name="Caminho 16" d="M187.134,125.851h.507a.205.205,0,0,0,.184-.119c.159-.37.328-.73.489-1.1h2.62l.5,1.1a.185.185,0,0,0,.184.119h.5a.142.142,0,0,0,.137-.209l-2.444-5.392a.191.191,0,0,0-.137-.087H189.6a.191.191,0,0,0-.137.087L187,125.642a.141.141,0,0,0,.134.209Zm1.49-1.907.978-2.2h.04l.986,2.2Z" transform="translate(-120.843 -120.164)" fill="#fff" fill-rule="evenodd"/>
    <path id="Caminho_17" data-name="Caminho 17" d="M192.014,125.652a.15.15,0,0,0,.151.152h3.2a.153.153,0,0,0,.154-.152v-.44a.153.153,0,0,0-.154-.154h-2.531v-1.721h2.138a.153.153,0,0,0,.154-.154v-.447a.158.158,0,0,0-.154-.154h-2.138v-1.634h2.531a.153.153,0,0,0,.154-.151v-.45a.153.153,0,0,0-.154-.152h-3.2a.15.15,0,0,0-.151.152Z" transform="translate(-113.38 -120.117)" fill="#fff" fill-rule="evenodd"/>
    <path id="Caminho_18" data-name="Caminho 18" d="M196.388,123.055a2.872,2.872,0,0,0,2.893,2.876,2.757,2.757,0,0,0,1.947-.775.156.156,0,0,0,.007-.219l-.368-.36a.148.148,0,0,0-.194.01,2.148,2.148,0,0,1-1.378.526,2.08,2.08,0,0,1-.007-4.157,2.171,2.171,0,0,1,1.386.536c.072.072.144.072.2,0l.353-.36a.148.148,0,0,0-.007-.224,2.778,2.778,0,0,0-1.94-.745A2.886,2.886,0,0,0,196.388,123.055Z" transform="translate(-106.892 -120.164)" fill="#fff" fill-rule="evenodd"/>
    <path id="Caminho_19" data-name="Caminho 19" d="M199.731,123.055a2.88,2.88,0,1,0,2.876-2.891,2.857,2.857,0,0,0-2.876,2.891Zm.8,0a2.079,2.079,0,1,1,2.076,2.076A2.1,2.1,0,0,1,200.531,123.055Z" transform="translate(-101.933 -120.164)" fill="#fff" fill-rule="evenodd"/>
    <path id="Caminho_20" data-name="Caminho 20" d="M203.618,125.7a.157.157,0,0,0,.151.152h.5a.153.153,0,0,0,.154-.152v-3.9h.007l3.477,4.132h.209a.149.149,0,0,0,.152-.144v-5.392a.157.157,0,0,0-.152-.152h-.514a.152.152,0,0,0-.152.152v3.79h-.007l-3.477-4.021h-.2a.151.151,0,0,0-.151.144Z" transform="translate(-96.167 -120.164)" fill="#fff" fill-rule="evenodd"/>
    <path id="Caminho_21" data-name="Caminho 21" d="M207.269,125.3a2.606,2.606,0,0,0,1.724.631,1.635,1.635,0,0,0,1.786-1.512c0-.978-.792-1.418-1.721-1.8-.666-.273-1.018-.551-1.018-1.008,0-.3.233-.723.906-.723a2.457,2.457,0,0,1,1.08.4.19.19,0,0,0,.281-.082c.065-.094.137-.206.2-.3a.191.191,0,0,0-.05-.273,2.7,2.7,0,0,0-1.483-.472,1.563,1.563,0,0,0-1.753,1.483c0,.929.641,1.353,1.458,1.7.792.328,1.209.631,1.209,1.113a.807.807,0,0,1-.9.745,2.363,2.363,0,0,1-1.284-.554.18.18,0,0,0-.271.065c-.072.1-.137.223-.209.328A.171.171,0,0,0,207.269,125.3Z" transform="translate(-90.879 -120.164)" fill="#fff" fill-rule="evenodd"/>
    <path id="Caminho_22" data-name="Caminho 22" d="M210.271,123.713a2.179,2.179,0,0,0,4.358,0v-3.365a.157.157,0,0,0-.151-.152h-.536a.15.15,0,0,0-.151.152v3.325a1.341,1.341,0,1,1-2.677-.015v-3.31a.152.152,0,0,0-.152-.152h-.536a.158.158,0,0,0-.154.152Z" transform="translate(-86.297 -120.117)" fill="#fff" fill-rule="evenodd"/>
    <path id="Caminho_23" data-name="Caminho 23" d="M213.789,125.652a.152.152,0,0,0,.151.152h2.853a.152.152,0,0,0,.151-.152v-.44a.153.153,0,0,0-.151-.154h-2.173v-4.711a.157.157,0,0,0-.151-.152h-.529a.152.152,0,0,0-.151.152Z" transform="translate(-81.079 -120.117)" fill="#fff" fill-rule="evenodd"/>
    <path id="Caminho_24" data-name="Caminho 24" d="M217.728,125.652a.157.157,0,0,0,.152.152h.529a.157.157,0,0,0,.152-.152v-4.7h1.306a.153.153,0,0,0,.154-.151v-.45a.153.153,0,0,0-.154-.152h-3.445a.152.152,0,0,0-.151.152v.45a.152.152,0,0,0,.151.151h1.306Z" transform="translate(-77.398 -120.117)" fill="#fff" fill-rule="evenodd"/>
    <path id="Caminho_25" data-name="Caminho 25" d="M219.156,123.055a2.881,2.881,0,1,0,2.876-2.891,2.857,2.857,0,0,0-2.876,2.891Zm.8,0a2.079,2.079,0,1,1,2.074,2.076A2.1,2.1,0,0,1,219.958,123.055Z" transform="translate(-73.117 -120.164)" fill="#fff" fill-rule="evenodd"/>
    <path id="Caminho_26" data-name="Caminho 26" d="M223.162,125.652a.152.152,0,0,0,.152.152h.521a.157.157,0,0,0,.151-.152v-2.044H225.2l1.065,2.123a.15.15,0,0,0,.129.072h.623a.15.15,0,0,0,.137-.231l-1.1-2.036a1.778,1.778,0,0,0,1.187-1.627,1.729,1.729,0,0,0-1.746-1.714h-2.18a.152.152,0,0,0-.152.152v5.3ZM224,122.92v-1.947h1.425a.982.982,0,0,1,.976.954,1,1,0,0,1-.976.993Z" transform="translate(-67.175 -120.117)" fill="#fff" fill-rule="evenodd"/>
    <rect id="Ret창ngulo_3" data-name="Ret창ngulo 3" width="0.833" height="5.608" rx="0.061" transform="translate(164.357 0.08)" fill="#fff"/>
    <path id="Caminho_27" data-name="Caminho 27" d="M228.561,125.851h.5a.2.2,0,0,0,.184-.119c.161-.37.33-.73.489-1.1h2.62l.5,1.1a.187.187,0,0,0,.184.119h.507a.141.141,0,0,0,.134-.209l-2.444-5.392a.182.182,0,0,0-.134-.087h-.082a.191.191,0,0,0-.137.087l-2.459,5.392a.142.142,0,0,0,.137.209Zm1.49-1.907.976-2.2h.042l.986,2.2Z" transform="translate(-59.391 -120.164)" fill="#fff" fill-rule="evenodd"/>
    <path id="Caminho_8" data-name="Caminho 8" d="M219.652,102.423H198.764l10.443-20.888,10.445,20.888Zm-25.366,8.955H224.13l-3.1-6.2H197.386l-3.1,6.2Zm31.212,2.739H192.915L186.1,127.757h35.779a11.252,11.252,0,0,0,7.964-3.323c.184-.184.363-.375.531-.571l-4.872-9.745Zm-8.66-37.028H182.495v53.423h39.38a14,14,0,0,0,9.914-4.132h0a14.052,14.052,0,0,0-6.022-23.4,14.072,14.072,0,0,0,2.734-3.32,16.8,16.8,0,0,0,2.352-8.526A14.106,14.106,0,0,0,216.838,77.09Zm7.383,28.338h0a11.369,11.369,0,0,1,8.94,11.039,11.148,11.148,0,0,1-1.053,4.736l-7.887-15.775ZM211.429,79.847l11.066,22.13a10.564,10.564,0,0,0,3.648-3.728,14.042,14.042,0,0,0,1.952-7.115,11.345,11.345,0,0,0-11.287-11.287Zm-26.178,22.577h10.443l11.29-22.577H185.252v22.577Zm0,20.888V105.18h9.067Z" transform="translate(-127.501 -184.061)" fill="#936816" fill-rule="evenodd"/>
    <g id="Grupo_1" data-name="Grupo 1" transform="translate(-0.059 -41.289)">
      <path id="Caminho_1" data-name="Caminho 1" d="M165.043,129.7h9.412a14.544,14.544,0,0,0,3.077-.283,6.394,6.394,0,0,0,2.163-.852,3.505,3.505,0,0,0,1.272-1.416,4.7,4.7,0,0,0,.42-2.069A3.929,3.929,0,0,0,179.7,121.6a9.369,9.369,0,0,0-5.247-1.185h-9.412V129.7Zm11.168-21.822a12.548,12.548,0,0,0-2.806-.281h-8.362v8.9H173.4a11.761,11.761,0,0,0,2.789-.3,6.331,6.331,0,0,0,2.066-.872h0a3.7,3.7,0,0,0,1.207-1.366h0a4.226,4.226,0,0,0,.41-1.915,4.31,4.31,0,0,0-.407-1.927,3.621,3.621,0,0,0-1.207-1.393h0a6.111,6.111,0,0,0-2.049-.849Zm5.98,9.34a7.307,7.307,0,0,1-1.14.82,8.171,8.171,0,0,1,1.748.832,7.363,7.363,0,0,1,1.82,1.637l0,0a7.04,7.04,0,0,1,1.142,2.228,9.011,9.011,0,0,1,.382,2.677,7.838,7.838,0,0,1-.747,3.5,7.04,7.04,0,0,1-2.218,2.6v0a10.417,10.417,0,0,1-3.648,1.589,20.829,20.829,0,0,1-4.91.519h-14.3v-29.94h13.455a18.184,18.184,0,0,1,4.54.514,9.964,9.964,0,0,1,3.43,1.552l0,0a6.878,6.878,0,0,1,2.121,2.5,7.353,7.353,0,0,1,.715,3.3,8.763,8.763,0,0,1-.266,2.22,6.751,6.751,0,0,1-.825,1.91A7.038,7.038,0,0,1,182.191,117.214Z" transform="translate(-160.327 -103.336)" fill="#fff" fill-rule="evenodd"/>
      <path id="Caminho_2" data-name="Caminho 2" d="M187.005,108.854l-5.953,13.527H192.96l-5.955-13.527Zm15.469,24.76H197.9l-.07-.154-3.169-7.2h-15.3l-3.169,7.2-.067.154h-4.895l.164-.363,13.326-29.426.067-.151h4.492l.07.151,13.368,29.426.164.363Z" transform="translate(-144.164 -103.336)" fill="#fff" fill-rule="evenodd"/>
      <path id="Caminho_3" data-name="Caminho 3" d="M196.892,133.614h-4.419V107.845H182.384v-4.171h24.853v4.171H197.149v25.769Z" transform="translate(-127.607 -103.336)" fill="#fff" fill-rule="evenodd"/>
      <path id="Caminho_4" data-name="Caminho 4" d="M199.311,133.614h-4.684v-29.94h4.954v29.94Z" transform="translate(-109.444 -103.336)" fill="#fff" fill-rule="evenodd"/>
      <path id="Caminho_5" data-name="Caminho 5" d="M213.849,133.863a19.812,19.812,0,0,1-3.482.288,20.387,20.387,0,0,1-3.3-.261,19.264,19.264,0,0,1-3.171-.8h0a17.026,17.026,0,0,1-2.821-1.192,10.445,10.445,0,0,1-2.148-1.512l-.139-.129.082-.169,1.555-3.278.147-.308.253.226a10.944,10.944,0,0,0,1.885,1.329,15.5,15.5,0,0,0,2.362,1.058h0a15.68,15.68,0,0,0,2.625.715,15.1,15.1,0,0,0,2.67.238,13.98,13.98,0,0,0,3.132-.31,6.307,6.307,0,0,0,2.188-.906l0,0a3.781,3.781,0,0,0,1.274-1.329,3.806,3.806,0,0,0,.189-3.02,2.893,2.893,0,0,0-.663-1.013,5.857,5.857,0,0,0-1.058-.787,7.314,7.314,0,0,0-1.284-.584c-.482-.166-1.065-.345-1.743-.531s-1.453-.382-2.352-.6h0c-1.115-.276-2.118-.539-3.012-.8s-1.684-.531-2.362-.807h0a9.2,9.2,0,0,1-1.954-1.048,8.9,8.9,0,0,1-1.629-1.5h0a5.763,5.763,0,0,1-1.15-2.019,8.211,8.211,0,0,1-.387-2.608,8.075,8.075,0,0,1,.328-2.31,7.62,7.62,0,0,1,.974-2.071h0a7.254,7.254,0,0,1,1.587-1.758,10.178,10.178,0,0,1,2.267-1.366h0a12.377,12.377,0,0,1,2.888-.869,19.459,19.459,0,0,1,3.479-.291,20.809,20.809,0,0,1,2.657.171,19.061,19.061,0,0,1,2.538.512,16.751,16.751,0,0,1,2.377.839,12.415,12.415,0,0,1,2.031,1.132l.171.117-.079.191-1.388,3.363-.117.286-.261-.169a13.382,13.382,0,0,0-1.82-1,16.077,16.077,0,0,0-2.064-.775v0a17.519,17.519,0,0,0-2.069-.432,14.042,14.042,0,0,0-1.977-.144,13.219,13.219,0,0,0-3.067.313,5.739,5.739,0,0,0-2.118.939l0,0a4.237,4.237,0,0,0-1.286,1.406,3.632,3.632,0,0,0-.415,1.751,3.273,3.273,0,0,0,.231,1.262,2.868,2.868,0,0,0,.7.988,6.078,6.078,0,0,0,1.108.822,6.887,6.887,0,0,0,1.321.594l.012,0q.715.279,1.714.559c.661.186,1.423.375,2.282.564l0,0c1.12.273,2.123.536,3.015.8s1.684.534,2.362.807a10.087,10.087,0,0,1,1.962,1.06,9.118,9.118,0,0,1,1.622,1.448,5.52,5.52,0,0,1,1.13,2.014,8.352,8.352,0,0,1,.365,2.568,7.926,7.926,0,0,1-.325,2.285,7.74,7.74,0,0,1-.978,2.059h0a7.413,7.413,0,0,1-1.637,1.8,9.6,9.6,0,0,1-2.3,1.329h0A13.045,13.045,0,0,1,213.849,133.863Z" transform="translate(-103.274 -103.538)" fill="#fff" fill-rule="evenodd"/>
      <path id="Caminho_6" data-name="Caminho 6" d="M223.6,133.614h-4.418V107.845H209.1v-4.171h24.853v4.171H223.86v25.769Z" transform="translate(-87.982 -103.336)" fill="#fff" fill-rule="evenodd"/>
      <path id="Caminho_7" data-name="Caminho 7" d="M233.463,108.854l-5.953,13.527h11.908l-5.955-13.527Zm15.472,24.76h-4.582l-.067-.154-3.169-7.2H225.812l-3.169,7.2-.067.154h-4.895l.164-.363,13.326-29.426.07-.151h4.493l.067.151,13.368,29.426.164.363Z" transform="translate(-75.247 -103.336)" fill="#fff" fill-rule="evenodd"/>
    </g>
  </g>
</svg>
